<svg id="asns-logo" xmlns:rdf="http://www.w3.org/1999/02/22-rdf-syntax-ns#" style="enable-background:new;" xmlns="http://www.w3.org/2000/svg" xmlns:osb="http://www.openswatchbook.org/uri/2009/osb"  width="100%" height="100%" viewBox="0 0 135 89" preserveAspectRatio="xMidYMid meet" version="1.1" xmlns:cc="http://creativecommons.org/ns#" xmlns:xlink="http://www.w3.org/1999/xlink" xmlns:dc="http://purl.org/dc/elements/1.1/">

 <defs>

  <linearGradient id="linearGradient3805" osb:paint="solid">

   <stop stop-color="#c00" offset="0"/>

  </linearGradient>

  <linearGradient id="linearGradient4603" y2="254.79" xlink:href="#linearGradient3805" gradientUnits="userSpaceOnUse" x2="701.14" y1="254.79" x1="410.67"/>

  <linearGradient id="linearGradient3809" y2="561.22" xlink:href="#linearGradient3805" gradientUnits="userSpaceOnUse" x2="549.28" y1="561.22" x1="209.16"/>

  <linearGradient id="linearGradient5603" y2="561.22" xlink:href="#linearGradient3805" gradientUnits="userSpaceOnUse" x2="549.28" gradientTransform="matrix(0.97757143,0,0,1,7.5720599,0)" y1="561.22" x1="209.16"/>

  <linearGradient id="linearGradient5916" y2="561.22" gradientUnits="userSpaceOnUse" x2="395.1" gradientTransform="matrix(0.97757143,0,0,1,11.488833,0)" y1="561.22" x1="209.16">

   <stop stop-color="lightblue" offset="0"/>

  </linearGradient>

  <linearGradient id="linearGradient6074" y2="43.955" gradientUnits="userSpaceOnUse" x2="134.4" gradientTransform="matrix(0.97757143,0,0,1,1.6035973,0)" y1="43.955" x1="0.27205">

   <stop stop-color="#000" offset="0"/>

  </linearGradient>


 <style type="text/css">

svg{
  

  text-align:center;
  overflow: hidden;

}

#asns-logo{

  -webkit-transform: perspective(130px) rotate3d(0, 0, 0, 50deg);
  -moz-transform: perspective(130px) rotate3d(0, 0, 0, 50deg);
  -o-transform: perspective(130px) rotate3d(0, 0, 0, 50deg);
  transform: perspective(130px) rotate3d(0, 0, 0, 50deg);

    transform-origin: 80% 50% 0;

  -webkit-transition:all 0.5s linear ;
  -moz-transition:all 0.5s linear ;
  -o-transition:all 0.5s linear ;
  transition:all 0.5s linear ;

filter:drop-shadow(0px 4px 1px black);

}


#asns-logo:hover{
  
    -webkit-transform: perspective(1000px) rotate3d(1, 0, 0, 0deg);
  -moz-transform: perspective(1000px) rotate3d(1, 0, 0, 0deg);
  -o-transform: perspective(1000px) rotate3d(1, 0, 0, 0deg);
  transform: perspective(1000px) rotate3d(1, 0, 0, 0deg);



}





.asns-logo{




stroke-dasharray: 1000;
  stroke-dashoffset: 100;
  -webkit-animation: asns-logo  7s ease-in-out alternate infinite  ;
  -moz-animation: asns-logo  7s ease-in-out alternate  infinite  ;
  -o-animation: asns-logo  7s ease-in-out alternate  infinite  ;
  animation: asns-logo  7s ease-in-out alternate  infinite  ;

  -webkit-transition:all 5s linear 2s;
  -moz-transition:all 5s linear 2s;
  -o-transition:all 5s linear 2s;
  transition:all 5s linear 2s;
}

@keyframes asns-logo  {
  from {
    stroke-dashoffset: 1000;
    
  }
  to {
    stroke-dashoffset: 0;
    fill:#fff;
  }

}

@-webkit-keyframes asns-logo  {
  from {
    stroke-dashoffset: 1000;

    
  }
  to {
    stroke-dashoffset: 0;
    fill:#fff;
  }

}



.asns-a{

stroke-dasharray: 1000;
  stroke-dashoffset: 100;
  -webkit-animation: asns-a  7s ease-in-out alternate infinite  ;
  -moz-animation: asns-a  7s ease-in-out alternate  infinite  ;
  -o-animation: asns-a  7s ease-in-out alternate  infinite  ;
  animation: asns-a  7s ease-in-out alternate  infinite  ;

  -webkit-transition:all 5s linear 2s;
  -moz-transition:all 5s linear 2s;
  -o-transition:all 5s linear 2s;
  transition:all 5s linear 2s;
}

@keyframes asns-a  {
  from {
    stroke-dashoffset: 1000;
    
  }
  to {
    stroke-dashoffset: 0;
    fill:#000;
  }

}

@-webkit-keyframes asns-a  {
  from {
    stroke-dashoffset: 1000;

    
  }
  to {
    stroke-dashoffset: 0;
    fill:#000;
  }

}




.asns-logo:hover{
  
  cursor:pointer;
  fill:maroon;

}



#asns-logo.clickit .asns-logo{
  
fill:#000;
stroke:maroon;

}



/*************************/

<!--
@media screen and (max-height: 34.9375em) { 

  svg {
    font-size: 70%;
  }

}
-->

</style>


</defs>

<script type="text/javascript">

var clicker = document.querySelector('#asns-logo');

clicker.addEventListener('click', function(){
  
this.classList.toggle('clickit');


});

</script>






 <g font-family="Sans" stroke-miterlimit="4" stroke-dasharray="none" font-weight="normal" transform="translate(0,-655.09448)" font-style="normal">

  <g stroke-linejoin="round" style="letter-spacing:0px;word-spacing:0px;" fill-opacity="1" transform="matrix(0.20759433,0,0,0.16467856,1.412514,605.74479)" stroke-dashoffset="0" stroke="url(#linearGradient3809)" stroke-linecap="round" line-height="125%" font-size="253.0690918px" stroke-width="3">

   <path class="asns-logo" stroke-linejoin="round" d="m405.01,670.27,0-216.43,24.039,0,76.723,97.125,16.291-97.125,22.468,0,0,216.43-24.039,0-70.458-74.283-22.556,74.283z" stroke-dashoffset="0" stroke="url(#linearGradient5603)" stroke-linecap="round" stroke-miterlimit="4" stroke-dasharray="none" stroke-width="5.34746504" fill="transparent"/>

  </g>

  <g style="letter-spacing:0px;word-spacing:0px;" transform="matrix(0.45506618,0,0,0.27565267,589.93477,50.934672)" stroke="url(#linearGradient4603)" font-size="405.19238281px" stroke-width="5.7993865" line-height="125%" fill="#FFF">

   <path d="m487.28,322.06,0-35.81,60.774,0,0,35.81z"/>

   <path d="m441.65,399.82c-40.636-68.364-40.636-221.68,0-290.04,9.28-15.612,39.372,0,39.372,0l152.34,227.72v-227.72s28.126-14.592,36.8,0c40.636,68.364,40.636,221.68,0,290.04-9.28,15.612-39.372,0-39.372,0l-152.34-227.92v227.92s-28.126,14.592-36.8,0z"/>

  </g>

  <g stroke-linejoin="round" style="letter-spacing:0px;word-spacing:0px;" fill-opacity="1" stroke-dashoffset="0" font-size="253.0690918px" transform="matrix(0.17959496,0,0,0.1699962,-20.497928,604.17285)" stroke="url(#linearGradient3809)" stroke-linecap="round" line-height="125%" stroke-width="3">

   <path class="asns-a" stroke-linejoin="round" d="M224.47,670.27c-22.95-198.74,0.73-256.07,68.01-181.15h25.247c105.84-112.82,78.283,57.229,72.478,181.15h-26.696l-20.656-54.865h-74.049l-19.448,54.865zm51.097-74.388,60.036,0-18.482-50.169c-5.6373-15.24-9.8249-27.762-12.563-37.565-2.255,11.616-5.436,23.149-9.543,34.599z" stroke-dashoffset="0" stroke="url(#linearGradient5916)" stroke-linecap="round" stroke-miterlimit="4" stroke-dasharray="none" stroke-width="5.65858173" fill="transparent"/>

  </g>

 </g>

 <path class="asns-logo" stroke-linejoin="round" d="m50.894,71.333c0.10161,0.1754-0.11903,0.5511-0.68282,1.0886-0.56379,0.53755-1.4728,1.2369-2.7681,1.9836-1.2953,0.74673-2.98,1.5409-5.0756,2.1924-2.0956,0.65144-4.6056,1.1602-7.482,1.2591-2.5335,0.08554-5.3383-0.15224-8.2886-0.88427-2.949-0.732-6.046-1.96-9.063-3.841-2.399-1.499-4.727-3.403-6.836-5.721-2.1079-2.318-3.997-5.051-5.4817-8.167-2.5803-5.427-3.8859-11.956-3.1352-18.756,0.688-6.173,3.0784-12.44,7.2477-17.748,3.8862-4.937,9.2412-8.924,15.522-11.128,5.947-2.0792,12.592-2.5015,19.042-0.939,6.1765,1.504,12.027,4.8032,16.659,9.6341,5.3217,5.7429,8.6379,12.672,11.31,19.379,0.39538,0.99265,0.77557,1.9755,1.1459,2.9438,1.5402,3.7353,2.996,7.3607,4.6557,10.599,1.6597,3.2387,3.5237,6.0902,5.8446,8.3215,3.193,3.2267,7.2862,5.4847,11.509,6.4929,4.4129,1.0614,9.0835,0.79345,13.211-0.59939,4.3685-1.4665,8.243-4.2193,11.067-7.6164,3.0428-3.6493,4.9531-8.1212,5.6423-12.539,0.76636-4.8695,0.0843-9.7734-1.5658-13.921-0.94583-2.3858-2.2207-4.5566-3.6858-6.4538s-3.1205-3.5212-4.8585-4.8542c-2.1844-1.6788-4.5142-2.9124-6.7911-3.7795-2.2769-0.86713-4.5023-1.3686-6.5638-1.6102v-0.000001c-2.3444-0.2764-4.4876-0.22218-6.347-0.03468s-3.4383,0.50816-4.7199,0.80676-2.2687,0.57474-2.963,0.71926c-0.69432,0.14453-1.0979,0.1566-1.1924-0.0173-0.09452-0.17389,0.12291-0.52976,0.67158-1.0313,0.54868-0.50152,1.4305-1.1486,2.6823-1.8328,1.2517-0.68419,2.8762-1.4055,4.8905-1.9839,2.0144-0.57842,4.422-1.014,7.1736-1.0548,2.4195-0.03447,5.0928,0.24093,7.8998,0.98638s5.7491,1.962,8.6105,3.7974c2.2739,1.4612,4.4775,3.3043,6.4721,5.5388s3.7804,4.8607,5.1832,7.8485c2.4354,5.1994,3.6674,11.438,2.9553,17.945-0.65183,5.9006-2.9094,11.899-6.8611,17.012-3.6791,4.7492-8.7547,8.6209-14.739,10.822-5.6585,2.074-12.005,2.5978-18.216,1.2382-5.941-1.308-11.616-4.318-16.185-8.818-3.147-3.212-5.637-6.849-7.694-10.646-2.057-3.796-3.682-7.753-5.143-11.57-0.395-0.959-0.786-1.916-1.176-2.866-2.634-6.417-5.202-12.28-9.172-16.311-3.2754-3.4861-7.5369-5.9662-11.966-7.1153-4.622-1.2076-9.5462-1.005-13.909,0.40672-4.6119,1.4842-8.716,4.3447-11.706,7.9021-3.218,3.8169-5.2371,8.5176-5.9553,13.163-0.79781,5.115-0.05568,10.268,1.7134,14.611,1.013,2.4955,2.3744,4.7606,3.9356,6.7337s3.3223,3.6544,5.1681,5.0254c2.3172,1.7248,4.7839,2.9754,7.1895,3.8385,2.4056,0.86306,4.7518,1.3393,6.9203,1.5428,2.462,0.23277,4.7064,0.11962,6.6499-0.12842,1.9434-0.24804,3.5893-0.63092,4.9236-0.9837,1.3342-0.35278,2.36-0.67509,3.0822-0.85119,0.72212-0.1761,1.1428-0.2051,1.2444-0.0297z" stroke="url(#linearGradient6074)" stroke-linecap="round" stroke-width="0.98872209" fill="none"/>

</svg>

