<?xml version="1.0" encoding="UTF-8" standalone="no"?>
<!-- Created with Inkscape (http://www.inkscape.org/) -->
<svg xmlns:rdf="http://www.w3.org/1999/02/22-rdf-syntax-ns#" style="enable-background:new;" xmlns="http://www.w3.org/2000/svg" xmlns:osb="http://www.openswatchbook.org/uri/2009/osb" height="70" width="135" version="1.1" xmlns:cc="http://creativecommons.org/ns#" xmlns:xlink="http://www.w3.org/1999/xlink" xmlns:dc="http://purl.org/dc/elements/1.1/">
 <defs>
  <linearGradient id="linearGradient4603" y2="254.79" gradientUnits="userSpaceOnUse" x2="701.14" y1="254.79" x1="410.67">
   <stop stop-color="#000" offset="0"/>
  </linearGradient>
  <linearGradient id="linearGradient7837" y2="254.79" gradientUnits="userSpaceOnUse" x2="707.6" y1="254.79" x1="404.21">
   <stop stop-color="#000" offset="0"/>
  </linearGradient>
  <linearGradient id="linearGradient7841" y2="304.15" gradientUnits="userSpaceOnUse" x2="545.46" y1="304.15" x1="483.5">
   <stop stop-color="#000" offset="0"/>
  </linearGradient>
 </defs>
 <metadata>
  <rdf:RDF>
   <cc:Work rdf:about="">
    <dc:format>image/svg+xml</dc:format>
    <dc:type rdf:resource="http://purl.org/dc/dcmitype/StillImage"/>
    <dc:title/>
   </cc:Work>
  </rdf:RDF>
 </metadata>
 <g transform="translate(0,-674.09448)">
  <g stroke-linejoin="round" style="letter-spacing:0px;word-spacing:0px;" line-height="125%" font-family="Sans" font-weight="normal" transform="matrix(0.42542321,0,0,0.19491902,-168.15979,659.74558)" stroke-dashoffset="0" stroke="url(#linearGradient4603)" stroke-linecap="round" stroke-miterlimit="4" font-size="405.19238281px" font-style="normal" stroke-dasharray="none" stroke-width="3.4726603">
   <path style="baseline-shift:baseline;block-progression:tb;color:#000000;direction:ltr;text-indent:0;text-align:start;enable-background:accumulate;text-transform:none;" fill="url(#linearGradient7841)" d="m488.22,281.03,0,0.0312c-0.13221-0.005-0.24289-0.008-0.375,0a1.7365,1.7365,0,0,0,-0.125,0c-2.5856,0.30147-4.2271,2.6376-4.2188,5.1875v35.812c0.003,2.7236,1.9334,5.2148,4.7188,5.2188h52.5c2.7853-0.004,4.7471-2.4952,4.75-5.2188v-35.812c-0.003-2.7236-1.9647-5.2148-4.75-5.2188h-52.5zm-0.1,3.44a1.7365,1.7365,0,0,0,0.0937,0.0312h52.5c0.35108,0.0005,1.2803,0.8111,1.2812,1.7188v35.812c-0.00096,0.90765-0.93017,1.7182-1.2812,1.7188h-52.5c-0.35108-0.0005-1.249-0.8111-1.25-1.7188v-35.812c-0.003-0.86342,0.8085-1.7094,1.1562-1.75zm3.0938,3.4688a1.7365,1.7365,0,0,0,-1.7188,1.75v28.875a1.7365,1.7365,0,0,0,1.7188,1.75h46.5a1.7365,1.7365,0,0,0,1.75,-1.75v-28.875a1.7365,1.7365,0,0,0,-1.75,-1.75h-46.5zm1.75,3.5,43.031,0,0,25.375-43.031,0,0-25.375z"/>
   <path style="baseline-shift:baseline;block-progression:tb;color:#000000;direction:ltr;text-indent:0;text-align:start;enable-background:accumulate;text-transform:none;" fill="url(#linearGradient7837)" d="m454.69,97.625c-1.2998,0.04822-2.6102,0.17637-3.9062,0.40625-5.2218,0.92617-10.463,3.7741-13.625,9.0938-21.187,35.645-31.219,91.603-31.219,147.66,0,56.053,10.031,112.04,31.219,147.69,3.0118,5.067,8.0157,7.7778,12.969,8.6562,4.8957,0.86833,9.854,0.25208,14.312-0.75,8.9347-2.0081,16.438-5.9375,16.438-5.9375,1.7207-0.91396,2.7962-2.6767,2.7812-4.625v-210.75l142.81,213.66c0.48522,0.73172,1.1287,1.3109,1.9062,1.7188,0,0,7.9989,4.1771,17.5,6.3125,4.7444,1.0663,9.9646,1.6965,15.125,0.78125,5.2134-0.92468,10.49-3.7353,13.656-9.0625,21.188-35.645,31.219-91.634,31.219-147.69,0-56.053-10.031-112.01-31.219-147.66-3.0118-5.067-8.0157-7.7777-12.969-8.6562-4.8957-0.86833-9.854-0.25208-14.312,0.75-8.9347,2.0081-16.438,5.9375-16.438,5.9375-1.7389,0.90116-2.8183,2.6665-2.8125,4.625v210.53l-142.79-213.43c-0.48522-0.73172-1.1287-1.3109-1.9062-1.7188,0,0-7.9989-4.1771-17.5-6.3125-2.3674-0.53209-4.8241-0.94899-7.375-1.125-1.2712-0.08771-2.5752-0.14197-3.875-0.09375zm3.625,3.5312c2.3219,0.16021,4.627,0.55725,6.875,1.0625,8.9604,2.0139,16.625,6,16.625,6,0.25217,0.13227,0.49888,0.35643,0.65625,0.59375l145.96,218.19a1.7365,1.7365,0,0,0,3.1875,-0.96875v-216.25c-0.002-0.57815,0.42418-1.2965,0.9375-1.5625,0,0,7.1701-3.7388,15.562-5.625,4.205-0.9451,8.7175-1.436,12.938-0.6875,4.1627,0.73832,8.1666,2.8853,10.594,6.9688,20.614,34.68,30.719,90.27,30.719,145.91,0,55.636-10.105,111.26-30.719,145.94-2.5756,4.3332-6.8398,6.5872-11.281,7.375-4.4944,0.79716-9.2636,0.2896-13.75-0.71875-8.9604-2.0139-16.625-6-16.625-6-0.25217-0.13227-0.49888-0.35643-0.65625-0.59375l-146-218.44a1.7365,1.7365,0,0,0,-3.1875,0.96875v216.5c0.004,0.57576-0.39775,1.2924-0.90625,1.5625,0,0-7.1701,3.7388-15.562,5.625-4.205,0.9451-8.7175,1.436-12.938,0.6875-4.1627-0.73832-8.1666-2.8853-10.594-6.9688-20.613-34.679-30.719-90.302-30.719-145.94,0-55.636,10.105-111.23,30.719-145.91,2.5802-4.3408,6.817-6.62,11.25-7.4062,2.2352-0.39646,4.5758-0.4733,6.9062-0.3125zm-0.25,3.5c-2.1017-0.14405-4.1642-0.11794-6.0625,0.21875-3.719,0.65962-6.858,2.388-8.875,5.7812-20.031,33.7-30.219,88.914-30.219,144.12,0,55.211,10.187,110.42,30.219,144.12,1.8608,3.1305,4.7658,4.7626,8.2188,5.375,3.5277,0.62569,7.631,0.19612,11.562-0.6875,6.1135-1.374,10.707-3.4682,12.812-4.4688a1.7365,1.7365,0,0,0,1,-1.5625v-225.66c-0.006-0.65733,0.5898-1.4964,1.2188-1.6875,0.62895-0.19115,1.6077,0.16945,1.9688,0.71875l151.81,227.09a1.7365,1.7365,0,0,0,0.65625,0.59375c1.0893,0.54493,7.3077,3.6149,15,5.3438,4.2198,0.94844,8.6462,1.3912,12.438,0.71875,3.719-0.65962,6.858-2.388,8.875-5.7812,20.031-33.7,30.219-88.914,30.219-144.12,0-55.211-10.187-110.42-30.219-144.12-1.8637-3.1355-4.7768-4.7333-8.2188-5.3438-3.5277-0.62569-7.631-0.19612-11.562,0.6875-6.1034,1.3718-10.69,3.4294-12.812,4.4375a1.7365,1.7365,0,0,0,-1,1.5625v225.5c0.006,0.65733-0.5898,1.4964-1.2188,1.6875-0.62895,0.19115-1.6077-0.16945-1.9688-0.71875l-151.8-226.94a1.7365,1.7365,0,0,0,-0.65625,-0.59375c-1.067-0.53475-7.3018-3.5753-15.031-5.3125-2.1011-0.47222-4.2636-0.82404-6.375-0.96875zm-0.25,3.4375c1.8811,0.12893,3.9085,0.46427,5.875,0.90625,6.9802,1.5688,12.554,4.2682,13.844,4.9062l151.5,226.5c1.2723,1.9355,3.6276,2.7673,5.8438,2.0938,2.2162-0.67354,3.7386-2.6838,3.7188-5v-224.38c2.24-1.0297,5.9447-2.5997,11.062-3.75,3.6364-0.81732,7.4047-1.1186,10.188-0.625,2.8685,0.50877,4.4727,1.3497,5.8438,3.6562,19.439,32.704,29.719,87.595,29.719,142.38,0,54.78-10.279,109.67-29.719,142.38-1.5209,2.5587-3.3694,3.5385-6.5,4.0938-3.0583,0.54244-7.1472,0.22373-11.062-0.65625-6.9378-1.5593-12.448-4.2603-13.812-4.9375l-151.54-226.67c-1.2723-1.9355-3.6276-2.7673-5.8438-2.0938-2.2162,0.67354-3.7386,2.6838-3.7188,5v224.53c-2.2444,1.0375-5.9421,2.6304-11.062,3.7812-3.6364,0.81732-7.4047,1.1186-10.188,0.625-2.8576-0.50683-4.4698-1.3759-5.8438-3.6875-19.439-32.704-29.719-87.595-29.719-142.38,0-54.78,10.279-109.67,29.719-142.38,1.5209-2.5587,3.3694-3.5385,6.5-4.0938,1.5265-0.27075,3.2968-0.34834,5.1875-0.21875z"/>
  </g>
 </g>
</svg>
