<?xml version="1.0" encoding="UTF-8" standalone="no"?>

<!-- Created with Inkscape (http://www.inkscape.org/) -->

<svg xmlns:rdf="http://www.w3.org/1999/02/22-rdf-syntax-ns#" style="enable-background:new;" xmlns="http://www.w3.org/2000/svg" xmlns:osb="http://www.openswatchbook.org/uri/2009/osb" height="89" width="135" version="1.1" xmlns:cc="http://creativecommons.org/ns#" xmlns:xlink="http://www.w3.org/1999/xlink" xmlns:dc="http://purl.org/dc/elements/1.1/">

 <defs>

  <linearGradient id="linearGradient3805" osb:paint="solid">

   <stop stop-color="#000" offset="0"/>

  </linearGradient>

  <linearGradient id="linearGradient4603" y2="254.79" xlink:href="#linearGradient3805" gradientUnits="userSpaceOnUse" x2="701.14" y1="254.79" x1="410.67"/>

  <linearGradient id="linearGradient3809" y2="561.22" xlink:href="#linearGradient3805" gradientUnits="userSpaceOnUse" x2="549.28" y1="561.22" x1="209.16"/>

  <linearGradient id="linearGradient5916" y2="561.22" gradientUnits="userSpaceOnUse" x2="395.1" y1="561.22" x1="209.16">

   <stop stop-color="#000" offset="0"/>

  </linearGradient>

  <linearGradient id="linearGradient5925" y2="700.08" gradientUnits="userSpaceOnUse" x2="131.77" y1="700.08" x1="2.4062">

   <stop stop-color="#4e91d2" offset="0"/>
  </linearGradient>


  

 <style type="text/css">

svg{
  

  text-align:center;
  margin:13% auto;
  overflow: hidden;

}


.j-logo{




stroke-dasharray: 1000;
  stroke-dashoffset: 0;
  -webkit-animation: j-logo  5s ease-in-out alternate infinite  ;
  -moz-animation: j-logo  5s ease-in-out alternate  infinite  ;
  -o-animation: j-logo  5s ease-in-out alternate  infinite  ;
  animation: j-logo  5s ease-in-out alternate  infinite  ;

  -webkit-transition:fill 0.8s linear;
  -moz-transition:fill 0.8s linear;
  -o-transition:fill 0.8s linear;
  transition:fill 0.8s linear;
}

@keyframes j-logo  {
  from {
    stroke-dashoffset: 1000;
    
  }
  to {
    stroke-dashoffset: 0;
    fill:skyblue;
  }

}

@-webkit-keyframes j-logo  {
  from {
    stroke-dashoffset: 1000;

    
  }
  to {
    stroke-dashoffset: 0;
    fill:skyblue;
  }

}

.j-logo:hover{
  
  cursor:pointer;
  fill:maroon;


}

#j-logo.clickit .j-logo{
  
fill:#000;
stroke:maroon;

}



/*************************/




</style>


</defs>

 <g  class="j-logo" transform="translate(0,-655.09448)">

  <g stroke-linejoin="round" style="letter-spacing:0px;word-spacing:0px;" font-family="Sans" fill-opacity="0" font-weight="normal" transform="matrix(0.20759433,0,0,0.16467856,3.412514,607.74479)" stroke-dashoffset="0" stroke="url(#linearGradient3809)" stroke-linecap="round" stroke-miterlimit="4" line-height="125%" font-size="253.0690918px" font-style="normal" stroke-dasharray="none" stroke-width="3">

   <path class="j-logo" stroke-linejoin="round" d="m406.56,670.27,0-216.43,24.59,0,78.484,97.125,16.664-97.125,22.984,0,0,216.43-24.59,0-72.074-74.283-23.074,74.283z" stroke-dashoffset="0" stroke="url(#linearGradient3809)" stroke-linecap="round" stroke-miterlimit="4" stroke-dasharray="none" stroke-width="5.40846129" fill="none"/>

  </g>

  <g style="letter-spacing:0px;word-spacing:0px;" font-family="Sans" font-weight="normal" transform="matrix(0.45506618,0,0,0.27565267,589.93477,50.934672)" stroke="url(#linearGradient4603)" stroke-miterlimit="4" font-size="405.19238281px" font-style="normal" stroke-dasharray="none" stroke-width="5.7993865" line-height="125%" fill="#FFF">

   <path d="m487.28,322.06,0-35.81,60.774,0,0,35.81z"/>

   <path class="j-logo" d="m441.65,399.82c-40.636-68.364-40.636-221.68,0-290.04,9.28-15.612,39.372,0,39.372,0l152.34,227.72v-227.72s28.126-14.592,36.8,0c40.636,68.364,40.636,221.68,0,290.04-9.28,15.612-39.372,0-39.372,0l-152.34-227.92v227.92s-28.126,14.592-36.8,0z"/>

  </g>

  <g stroke-linejoin="round" style="letter-spacing:0px;word-spacing:0px;" font-family="Sans" fill-opacity="0" font-weight="normal" stroke-dashoffset="0" font-size="253.0690918px" transform="matrix(0.17959496,0,0,0.1699962,-16.497928,604.17285)" stroke="url(#linearGradient3809)" stroke-linecap="round" stroke-miterlimit="4" line-height="125%" font-style="normal" stroke-dasharray="none" stroke-width="3">

   <path class="j-logo" stroke-linejoin="round" d="M217.87,670.27c-23.47-198.74,0.74-256.07,69.57-181.15h25.826c108.27-112.82,80.079,57.229,74.141,181.15h-27.309l-21.13-54.865h-75.748l-19.895,54.865zm52.27-74.388,61.414,0-18.906-50.169c-5.7666-15.24-10.05-27.762-12.851-37.565-2.3067,11.616-5.5607,23.149-9.762,34.599z" stroke-dashoffset="0" stroke="url(#linearGradient5916)" stroke-linecap="round" stroke-miterlimit="4" stroke-dasharray="none" stroke-width="5.72312618" fill="none"/>

  </g>

  <path  class="j-logo" style="baseline-shift:baseline;block-progression:tb;color:#000000;direction:ltr;text-indent:0;text-align:start;enable-background:accumulate;text-transform:none;" fill="red" d="m39.625,665.44c-0.03461,0.003-0.0592,0.0282-0.09375,0.0312-4.9487,0.42926-9.2248,1.9213-12.625,3.7812-3.438,1.8806-6.0151,4.112-7.8438,6.1562-1.8259,2.0411-2.9399,3.903-3.5312,5.3125-0.29666,0.70704-0.44739,1.2838-0.5,1.8125-0.02665,0.26784-0.01822,0.5738,0.0625,0.875s0.25594,0.60557,0.5625,0.8125c0.12954,0.093,0.28212,0.13272,0.4375,0.15625,0.04298,0.007,0.08091,0.0303,0.125,0.0312,0.01425,0.008,0.07106-0.0103,0.09375,0,0.08572,0.0387,0.11718,0.0888,0.34375,0.0625,0.2862-0.033,0.53265-0.11968,0.75-0.21875,0.47153-0.21495,0.89936-0.55479,1.4375-0.9375,1.0913-0.77609,2.5245-1.8946,4.4062-3.0938,1.8772-1.1963,4.2259-2.454,7.0625-3.4375,2.8372-0.98368,6.1297-1.681,9.6562-1.5625a0.50005,0.50005,0,0,0,0.03125,0c3.3517,0.091,6.979,0.92763,10.469,2.625,3.4888,1.6969,6.8249,4.2557,9.25,7.5625a0.50005,0.50005,0,0,0,0,0.0312c1.4522,1.8675,2.6693,4.0609,3.7188,6.5625,1.0492,2.501,1.9519,5.3298,2.875,8.3125,0.5108,1.6505,1.0266,3.3175,1.5625,5,0.0027,0.009-0.0027,0.0219,0,0.0312,1.1808,4.1321,2.6459,8.3863,4.6562,12.375,2.0151,3.9982,4.5758,7.7057,7.7812,10.844a0.50005,0.50005,0,0,0,0.03125,0.0312,0.50005,0.50005,0,0,0,0.09375,0.0625c0.01106,0.0103,0.02018,0.021,0.03125,0.0312,3.8119,3.5246,8.2211,5.7901,12.594,6.9688,4.3492,1.1723,8.6244,1.2634,12.438,0.625,0.0416,0.003,0.0834,0.003,0.125,0a0.50005,0.50005,0,0,0,0.0625,0c4.1287-0.73758,7.5799-2.3224,10.281-4.0938,2.6992-1.77,4.6855-3.7236,6.0625-5.5,1.3744-1.773,2.159-3.3609,2.5625-4.5625,0.20222-0.60221,0.30765-1.1208,0.3125-1.5938,0.002-0.23396-0.002-0.48151-0.0937-0.75-0.0918-0.26849-0.30323-0.56943-0.59375-0.75-0.56849-0.35329-1.1609-0.17702-1.5625,0-0.38737,0.17079-0.7922,0.41832-1.25,0.75-0.8956,0.64888-2.0202,1.5777-3.5,2.5938-1.4797,1.016-3.327,2.1209-5.5625,3.0312-2.2377,0.91125-4.8735,1.6383-7.7188,1.75-2.6497,0.1199-5.5515-0.30504-8.4375-1.375-2.8838-1.0691-5.74-2.8117-7.9688-5.1875a0.50005,0.50005,0,0,0,-0.03125,0c-2.0285-2.0183-3.6373-4.6836-5.0312-7.875-1.3906-3.1839-2.5798-6.9012-3.8125-10.812-0.0026-0.009,0.0026-0.0219,0-0.0312-0.46516-1.6544-0.95984-3.3675-1.5-5.125-0.97719-3.1796-2.0969-6.4098-3.5312-9.5312-1.4342-3.1211-3.1662-6.1451-5.3125-8.9375a0.50005,0.50005,0,0,0,-0.03125,0c-3.928-4.9-8.943-8.38-14.088-10.46-5.1452-2.0761-10.406-2.7414-15.188-2.375a0.50005,0.50005,0,0,0,-0.0625,0zm0.21875,1.9688a0.50005,0.50005,0,0,0,0.0625,0c4.4632-0.33267,9.3916,0.33349,14.219,2.2812,4.8472,1.9558,9.6115,5.2216,13.312,9.8438h-0.03125c2.0389,2.6526,3.6791,5.5207,5.0625,8.5312,1.3828,3.0092,2.5075,6.1536,3.4688,9.2812,0.53576,1.7432,1.0342,3.4366,1.5,5.0938a0.50005,0.50005,0,0,0,0,0.0312c1.235,3.9184,2.3851,7.6916,3.8438,11.031,1.4557,3.3328,3.2378,6.212,5.5,8.4688a0.50005,0.50005,0,0,0,0.15625,0.125c2.4449,2.5502,5.4216,4.4212,8.5,5.5625,3.129,1.16,6.334,1.6278,9.25,1.5-0.036,0.002-0.0251,0.003,0.0312,0,3.1301-0.12285,5.9695-0.89538,8.375-1.875,2.4055-0.97963,4.3787-2.1797,5.9375-3.25s2.7337-2.0472,3.5312-2.625c0.0862-0.0625,0.10916-0.0723,0.1875-0.125-0.0231,0.0895,0.002,0.12049-0.0312,0.21875-0.31527,0.93882-1.029,2.322-2.2812,3.9375-1.2498,1.6122-3.0601,3.4528-5.5625,5.0938-2.4942,1.6356-5.6776,3.0624-9.5,3.75,0.16891-0.0322,0.16068-0.0369-0.0312,0-3.58,0.6232-7.6288,0.57962-11.75-0.53125-4.1136-1.1088-8.2956-3.2862-11.875-6.625-3.0138-2.9547-5.4772-6.4851-7.4062-10.312-1.9093-3.7883-3.346-7.8548-4.5-11.875,0.000649-0.0208,0.000649-0.0417,0-0.0625a0.50005,0.50005,0,0,0,-0.03125,-0.15625c-0.53412-1.6761-1.047-3.3345-1.5625-5-0.92723-2.996-1.8406-5.8542-2.9375-8.4688-1.0664-2.542-2.314-4.8376-3.8438-6.8438a0.50005,0.50005,0,0,0,-0.048,-0.01,0.50005,0.50005,0,0,0,-0.031,-0.1,0.50005,0.50005,0,0,0,-0.031,-0.03c-0.0088-0.012-0.0224-0.0192-0.03125-0.0312-2.6472-3.5954-6.233-6.3392-9.9688-8.1562-3.7375-1.8179-7.6441-2.7407-11.281-2.8438-0.0099-0.00028-0.02132,0.00027-0.03125,0-3.8175-0.12332-7.3669,0.64454-10.375,1.6875-3.0175,1.0462-5.5254,2.3979-7.5,3.6562-1.9717,1.2565-3.4217,2.4026-4.4375,3.125-0.19876,0.14135-0.29846,0.17132-0.46875,0.28125,0.06186-0.18501,0.0596-0.26965,0.15625-0.5,0.48847-1.1642,1.4657-2.8289,3.1562-4.7188,1.6892-1.8884,4.0909-3.9877,7.3125-5.75,3.2218-1.7624,7.2579-3.2097,11.969-3.5938zm14.656,1.34c3.7466,1.5118,7.4363,3.7879,10.656,6.8438,1.0733,1.0186,2.1082,2.1207,3.0625,3.3125h-0.03125c-0.95448-1.192-1.9579-2.2948-3.0312-3.3125-3.22-3.05-6.909-5.33-10.656-6.84zm-9.0938,6.2188c1.8324,0.45084,3.6903,1.0885,5.5,1.9688,1.8094,0.88007,3.5812,1.9956,5.2188,3.3125,1.5861,1.2755,3.0384,2.743,4.2812,4.4062a0.50005,0.50005,0,0,0,0.03125,0.0312c0.0045,0.006-0.0045,0.0252,0,0.0312-1.249-1.6786-2.7164-3.1852-4.3125-4.4688-1.6359-1.3156-3.4094-2.4012-5.2188-3.2812-1.8088-0.87979-3.6666-1.5474-5.5-2zm31.469,22.062c0.0039,0.0126,0.02737,0.0186,0.03125,0.0312,0.54,1.757,1.0338,3.4352,1.5,5.0938a0.50005,0.50005,0,0,0,0,0.0312c-0.0011-0.003-0.03015,0.003-0.03125,0-0.0026-0.009,0.0026-0.022,0-0.0312-0.46486-1.6533-0.96403-3.381-1.5-5.125zm-9.625,2.97c0.0041,0.0133,0.02712,0.0179,0.03125,0.0312,0.50277,1.6245,1.0097,3.236,1.5312,4.875,0.003,0.01-0.003,0.0217,0,0.0312a0.50005,0.50005,0,0,0,0,0.0625c-0.53313-1.6739-1.0506-3.346-1.5625-5zm1.5625,5.0312a0.50005,0.50005,0,0,0,0.03125,0c1.1722,4.1058,2.6202,8.3029,4.5938,12.219,1.9673,3.9034,4.4633,7.5205,7.5625,10.562a0.50005,0.50005,0,0,0,-0.0625,-0.0312c-0.0048-0.005-0.02644,0.005-0.03125,0a0.50005,0.50005,0,0,0,-0.032,-0.03c-3.0556-3.0226-5.5217-6.6056-7.4688-10.469-1.9738-3.9162-3.4216-8.1131-4.5938-12.219a0.50005,0.50005,0,0,0,0,-0.0312zm13.406,8.0938c1.4037,3.2081,3.0857,5.9408,5.1875,8.0625a0.50005,0.50005,0,0,0,-0.0625,-0.0312c-2.0885-2.1226-3.7301-4.8377-5.125-8.0312zm39.75,7.4688c-0.84974,0.61705-1.9909,1.5889-3.5,2.625-1.5188,1.0428-3.4291,2.1798-5.75,3.125,2.3218-0.94553,4.2321-2.114,5.75-3.1562,1.519-1.043,2.651-1.9786,3.5-2.5938zm-3.1562,8.0938c-0.95925,0.89545-2.0823,1.8053-3.375,2.6562,1.3005-0.85277,2.4122-1.7564,3.375-2.6562zm-31.844,3.4688c2.0799,1.1331,4.2435,1.9567,6.375,2.5312,2.125,0.57278,4.2116,0.88689,6.25,0.96875-2.0382-0.0825-4.1583-0.36527-6.2812-0.9375-2.1338-0.57518-4.2692-1.4272-6.3438-2.5625z"/>

 </g>

</svg>

