<svg xmlns="http://www.w3.org/2000/svg" width="100%" height="100%" viewBox="0 0 35 35">



<def>

 <style type="text/css">



svg{
  

  text-align:center;
  overflow: hidden;
  padding:5px;

  filter:drop-shadow(0px 1px 2px white);



<!--
  -webkit-transform: perspective(130px) rotate3d(0, 0, 0, 50deg);
  -moz-transform: perspective(130px) rotate3d(0, 0, 0, 50deg);
  -o-transform: perspective(130px) rotate3d(0, 0, 0, 50deg);
  transform: perspective(130px) rotate3d(0, 0, 0, 50deg);

    transform-origin: 80% 50% 0;

  -webkit-transition:all 0.5s linear ;
  -moz-transition:all 0.5s linear ;
  -o-transition:all 0.5s linear ;
  transition:all 0.5s linear ;
-->


}






.cr{

  

  fill:#626262;
  stroke:white;
  stroke-dasharray: 10;
  stroke-dashoffset: 0;
  -webkit-animation: cr  1.7s ease-in-out alternate infinite  ;
  -moz-animation: cr  1.7s ease-in-out alternate  infinite  ;
  -o-animation: cr  1.7s ease-in-out  alternate infinite  ;
  animation: cr  1.7s ease-in-out alternate  infinite  ;

  -webkit-transition:all 5s linear ;
  -moz-transition:all 5s linear ;
  -o-transition:all 5s linear ;
  transition:all 5s linear ;
}

@keyframes cr  {
  from {
    stroke-dashoffset: 100;
    
  }
  to {
    stroke-dashoffset: 0;
    fill:#fff;
    stroke:black;
  }

}

@-webkit-keyframes cr  {
  from {
    stroke-dashoffset: 100;

    
  }
  to {
    stroke-dashoffset: 0;
    fill:#fff;
    stroke:black;

  }

}

.cr:hover{
  
  cursor:pointer;


}

</style>

</def>


	<path class="cr" d="M12 0c-6.627 0-12 5.373-12 12s5.373 12 12 12 12-5.373 12-12-5.373-12-12-12zm0 15.781c1.179 0 2.31-.529 3.136-1.669l1.857 1.218c-1.27 1.811-3.112 2.67-4.993 2.67-3.308 0-6-2.692-6-6s2.691-6 6-6c1.861 0 3.713.844 4.994 2.67l-1.857 1.218c-.832-1.146-1.966-1.669-3.137-1.669-2.084 0-3.781 1.696-3.781 3.781s1.696 3.781 3.781 3.781z"/>

</svg>