<svg id="j-logo" xmlns:rdf="http://www.w3.org/1999/02/22-rdf-syntax-ns#" xmlns="http://www.w3.org/2000/svg" version="1.1" width="100%" height="100%" viewBox="0 0 351 381" preserveAspectRatio="xMidYMid meet" xmlns:cc="http://creativecommons.org/ns#" xmlns:dc="http://purl.org/dc/elements/1.1/">



 <defs>

 <style type="text/css">

svg{
  

  text-align:center;
  overflow: hidden;

}


.j-logo{




stroke-dasharray: 1000;
  stroke-dashoffset: 0;
  -webkit-animation: j-logo  5s ease-in-out alternate infinite  ;
  -moz-animation: j-logo  5s ease-in-out alternate  infinite  ;
  -o-animation: j-logo  5s ease-in-out alternate  infinite  ;
  animation: j-logo  5s ease-in-out alternate  infinite  ;

  -webkit-transition:fill 0.8s linear;
  -moz-transition:fill 0.8s linear;
  -o-transition:fill 0.8s linear;
  transition:fill 0.8s linear;
}

@keyframes j-logo  {
  from {
    stroke-dashoffset: 1000;
    
  }
  to {
    stroke-dashoffset: 0;
    fill:skyblue;
  }

}

@-webkit-keyframes j-logo  {
  from {
    stroke-dashoffset: 1000;

    
  }
  to {
    stroke-dashoffset: 0;
    fill:skyblue;
  }

}

.j-logo:hover{
  
  cursor:pointer;
  fill:maroon;


}

#j-logo.clickit .j-logo{
  
fill:#000;
stroke:maroon;

}



/*************************/

.l-logo{




stroke-dasharray: 50;
  stroke-dashoffset: 0;
  -webkit-animation: l-logo  .5s ease-in-out alternate-reverse infinite  ;
  -moz-animation: l-logo  .5s ease-in-out alternate-reverse infinite  ;
  -o-animation: l-logo  .5s ease-in-out alternate-reverse  infinite  ;
  animation: l-logo  .5s ease-in-out alternate-reverse  infinite  ;


  -webkit-transition:fill 0.8s linear;
  -moz-transition:fill 0.8s linear;
  -o-transition:fill 0.8s linear;
  transition:fill 0.8s linear;
}

@keyframes l-logo  {
  from {
    stroke-dashoffset: 5000;
    opacity:;
  }
  to {
    stroke-dashoffset: 0;
    fill:skyblue;
     opacity:;
  }

}

@-webkit-keyframes l-logo  {
  from {
    stroke-dashoffset: 5000;
     opacity:;
    
  }
  to {
    stroke-dashoffset: 0;
    fill:skyblue;
     opacity:;
  }

}

.l-logo:hover{
  
  cursor:pointer;
  stroke:maroon;


}





</style>






 </defs>


<script type="text/javascript">

var clicker = document.querySelector('#j-logo');

clicker.addEventListener('click', function(){
  
this.classList.toggle('clickit');


});

</script>


 <g stroke-linecap="round" stroke-miterlimit="4" transform="translate(-364.75001,-547.35244)" stroke-dashoffset="0">

  <g class="j-logo" stroke-linejoin="round" style="letter-spacing:0px;word-spacing:0px;" stroke-width="3" font-family="Sans" fill-rule="nonzero" transform="matrix(0.53372914,0,0,0.62030543,354.27382,458.91195)" line-height="125%" stroke="#501945" font-size="40px" font-style="normal" stroke-dasharray="1000" font-weight="normal"  fill="#fff">

   <path style="text-align:center;" d="m160.6,416.84c6.3418-3.2489,11.982-6.9028,16.92-10.962,4.9378-4.0589,9.1378-7.6048,12.6-10.638,0.97487-0.88191,1.9769-1.7099,3.006-2.484,1.0289-0.7739,2.2828-1.3859,3.762-1.836,1.5928-0.37191,3.0508-0.8159,4.3739-1.332,1.3228-0.5159,2.0248-1.4639,2.106-2.844-0.16546-1.3679-1.5788-3.5439-4.24-6.5279-2.6614-2.9839-5.5787-5.7678-8.7519-8.3519-3.1734-2.5838-5.6107-3.9598-7.3119-4.1279-0.7411,0.0361-1.5991,0.39611-2.574,1.08-0.9751,0.68411-1.9411,1.4761-2.898,2.376-1.1071,1.1101-2.0971,1.8421-2.97,2.196-0.87309,0.3541-2.3311,0.5821-4.3739,0.68399-6.0996,0.53432-13.964,1.0179-23.594,1.4506-9.6302,0.43299-18.7,0.77787-27.21,1.0347-8.5102,0.25699-14.135,0.38854-16.874,0.39466-3.669,0.0511-6.6269-0.59089-8.8739-1.926-2.247-1.3349-3.801-3.6688-4.6619-7.0019l-0.86399-0.144c-1.56,0.8491-2.652,2.1751-3.276,3.978-0.62401,1.8031-0.924,3.741-0.89999,5.8139,0.31498,4.347,2.385,8.397,6.2099,12.15s7.5149,5.751,11.07,5.9939c1.9589-0.0929,3.6569-0.6629,5.0939-1.71,1.4369-1.0469,2.9549-2.0129,4.5539-2.898,3.2489-1.3716,8.1538-2.6061,14.715-3.7035,6.5609-1.0971,13.428-2.0346,20.601-2.8125,7.1728-0.77764,13.302-1.3731,18.387-1.7865,5.0848-0.41314,7.7758-0.62164,8.0729-0.62549,0.37489-0.009,0.70488,0.0451,0.98998,0.162,0.2849,0.1171,0.43489,0.3511,0.45,0.70199-0.0361,0.66309-1.3321,4.269-3.888,10.818-2.5561,6.549-6.156,13.791-10.8,21.726zm-39.599-12.528c0.83994-0.16792,1.7519-0.26392,2.736-0.288,3.5189,0.16808,5.6609,1.0921,6.4259,2.772,0.76493,1.68,1.0709,3.108,0.91799,4.2839,0.15372,1.7156-0.60183,6.7804-2.2666,15.194-1.6649,8.4142-5.1618,18.236-10.491,29.466-5.3289,11.23-13.412,21.927-24.25,32.09l1.584,1.872c17.829-9.4079,30.735-20.112,38.718-32.112,7.9828-12,13.365-25.008,16.146-39.023,0.18592-0.82193,0.60591-1.9139,1.26-3.276,0.65391-1.3619,1.2899-2.3819,1.908-3.06,0.43791-0.44393,0.78591-0.95992,1.044-1.548,0.25791-0.58792,0.38991-1.1759,0.39599-1.764-0.40208-2.7539-3.054-5.3458-7.9559-7.7759-4.902-2.4299-9.6419-3.7259-14.22-3.888-3.195,0.0361-5.841,0.64808-7.9379,1.836-2.097,1.1881-3.483,2.736-4.158,4.6439z"/>

   <path style="text-align:center;" d="m236.33,394.81c3.0449,0.0361,5.6309,0.82808,7.7579,2.376,2.1269,1.5481,3.2369,3.636,3.33,6.2639,0.0373,2.0303-1.0934,6.7058-3.392,14.026-2.2987,7.3208-5.9893,15.762-11.072,25.322-5.0826,9.5608-11.781,18.716-20.096,27.466l1.296,1.728c12.486-6.4379,23.226-14.91,32.22-25.416,8.9938-10.506,16.062-21.57,21.204-33.192,1.0799-2.0579,2.1239-3.4859,3.132-4.2839,1.0079-0.79792,1.5479-2.0099,1.62-3.636-0.35406-3.0089-3.282-6.3868-8.7839-10.134-5.502-3.7469-11.454-5.7928-17.856-6.1379-2.25,0.0211-4.194,0.51909-5.8319,1.494-1.638,0.97508-2.862,2.3011-3.672,3.978zm56.159,0.57599c6.2114,5.5805,11.324,12.051,15.338,19.413,4.0141,7.3618,7.1002,14.675,9.2585,21.941,2.1581,7.2657,3.559,13.545,4.2026,18.837,0.39589,3.42,1.4759,6.3359,3.24,8.7479,1.7639,2.412,4.4278,3.672,7.9919,3.78,3.6958-0.09,6.7798-1.602,9.2519-4.536,2.4718-2.9339,3.7558-6.7499,3.852-11.448-0.0631-10.557-4.5091-21.015-13.338-31.374-8.829-10.359-21.663-19.485-38.502-27.378z"/>

   <path style="text-align:center;" d="m392.14,427.21c7.9288,4.953,14.787,10.563,20.574,16.83,5.7869,6.267,10.449,12.849,13.986,19.746,1.8059,3.912,3.4139,6.9239,4.8239,9.0359,1.4099,2.112,3.8819,3.18,7.4159,3.204,3.5039-0.099,6.2878-1.305,8.3519-3.618,2.0639-2.313,3.1199-5.1389,3.168-8.4779-0.0901-5.4839-1.9621-10.32-5.6159-14.508-3.654-4.1879-8.55-8.0879-14.688-11.7,8.7448-3.8669,17.607-8.9488,26.586-15.246,8.9788-6.2968,16.149-12.207,21.51-17.73,0.83086-0.77991,1.7608-1.3799,2.79-1.8,1.0289-0.41992,1.9228-0.73191,2.682-0.93599,1.2058-0.29692,2.2858-0.71091,3.24-1.242,0.95386-0.53091,1.4578-1.1249,1.512-1.782-0.1548-1.4568-1.5254-3.663-4.112-6.6186-2.5868-2.9554-5.4614-5.6949-8.6239-8.2186-3.1628-2.5234-5.6854-3.8656-7.5679-4.0266-1.2751,0.2461-2.8291,1.3021-4.662,3.168-1.8331,1.8661-4.071,3.0661-6.7139,3.6-12.417,1.1791-24.843,2.1691-37.278,2.97-12.435,0.80108-23.385,1.2511-32.85,1.35-4.74,0.0631-8.7599-0.7469-12.06-2.43-3.3-1.6829-5.9519-4.6168-7.9559-8.8019-1.932,0.94509-3.108,2.2591-3.528,3.942-0.42001,1.6831-0.58801,3.249-0.50399,4.6979,0.36598,4.29,2.586,8.814,6.6599,13.572s7.8059,7.338,11.196,7.7399c1.434-0.10193,2.8859-0.61792,4.3559-1.548,1.47-0.92992,2.5619-1.6619,3.276-2.196,1.9904-1.0994,6.2624-2.2394,12.816-3.42,6.5534-1.1804,13.813-2.2844,21.78-3.312,7.9663-1.0274,15.064-1.8614,21.294-2.502,6.2293-0.6404,10.015-0.9704,11.358-0.98998,0.2819,0.00009,0.47389,0.0361,0.576,0.108,0.10189,0.0721,0.14989,0.18008,0.14399,0.32399-0.0451,1.0861-2.6551,5.502-7.8299,13.248-5.175,7.746-12.645,16.194-22.41,25.344-4.332-2.3279-9.4919-4.2959-15.48-5.9039-5.988-1.6079-11.868-2.7119-17.64-3.312z"/>

   <path style="text-align:center;" d="m533.84,370.9c1.3709,0.003,2.9489,0.21311,4.7339,0.62999,1.7849,0.41711,3.3269,1.0231,4.6259,1.818,1.023,0.48988,1.9688,1.6543,2.8373,3.4933,0.86839,1.8392,1.5688,5.4463,2.1013,10.821,0.53238,5.3751,0.80616,13.611,0.82132,24.709-0.0301,11.901-0.29405,22.083-0.79199,30.546-0.49804,8.4629-1.05,14.217-1.656,17.262-0.32404,1.479-0.82804,2.913-1.512,4.302-0.68404,1.389-1.332,2.499-1.944,3.33,1.4639,6.5189,3.2159,11.769,5.2559,15.75,2.0399,3.9809,4.6559,6.0269,7.8479,6.1379,3.4679-0.087,6.1079-1.353,7.9199-3.798,1.8119-2.445,2.7239-5.5469,2.736-9.3059-0.0271-3.8219-0.15307-7.3739-0.37799-10.656-0.22507-3.2819-0.38707-6.6899-0.486-10.224-0.0841-4.6469-0.16806-10.185-0.25199-16.614-0.0841-6.4289-0.0961-13.083-0.036-19.962,4.9739,2.031,10.038,5.385,15.192,10.062,5.1538,4.677,9.0658,8.8589,11.736,12.546,1.6319,2.25,3.4079,3.762,5.3279,4.5359,1.9199,0.77402,4.1278,1.134,6.6239,1.08,2.6248-0.045,4.9348-0.92696,6.9299-2.646,1.9948-1.7189,3.0448-4.0049,3.15-6.8579-0.38145-6.6941-3.7147-11.85-9.9999-15.466-6.2854-3.6168-13.235-6.1376-20.848-7.5626-7.6133-1.4248-13.603-2.1964-17.968-2.3146,0.0869-3.0329,0.27293-7.3708,0.558-13.014,0.28492-5.6428,0.57892-9.9448,0.88199-12.906,0.0809-0.8399,0.24292-1.6799,0.48599-2.52,0.24292-0.83989,0.51292-1.3919,0.80999-1.656,1.2719-1.0079,1.8959-2.1599,1.872-3.456-0.25807-3.8368-2.73-7.2508-7.4159-10.242-4.686-2.9908-10.038-4.5688-16.056-4.7339-3.261,0.10211-6.243,0.8701-8.9459,2.304-2.703,1.4341-4.137,2.9221-4.3019,4.4639zm70.415-2.88c3.5848,2.1271,6.2068,4.461,7.8659,7.0019,1.6589,2.5411,2.8768,5.055,3.654,7.5419,0.66287,1.6291,1.4609,2.7631,2.394,3.402,0.93287,0.63909,1.9109,0.94509,2.934,0.91799,1.6199,0.003,2.9518-0.47089,3.996-1.422,1.0439-0.95089,1.5838-2.3969,1.62-4.3379-0.0661-3.5818-1.9861-6.6778-5.7599-9.2879-3.7741-2.6099-9.006-4.4098-15.696-5.3999zm-16.992,9.5039c3.5849,2.1271,6.2068,4.461,7.8659,7.0019,1.6589,2.5411,2.8769,5.055,3.654,7.5419,0.66289,1.6291,1.4609,2.763,2.394,3.402,0.93288,0.63908,1.9109,0.94507,2.934,0.91799,1.6199,0.003,2.9518-0.47091,3.996-1.422,1.0439-0.9509,1.5839-2.3969,1.62-4.3379-0.10211-3.5999-2.0941-6.7318-5.9759-9.3959-3.882-2.6639-9.042-4.4278-15.48-5.2919z"/>

  </g>

  <path class="l-logo" stroke-linejoin="bevel" style="marker-start:none;" d="m465.05,187.07c53.293-33.434,148.97-38.224,213.71-10.699,6.2848,2.6723,12.143,5.6014,17.519,8.7589" transform="matrix(1.1290647,0,0,1.545764,-117.97489,335.10037)"  stroke="skyblue" stroke-width="15.14133358" fill="none"/>

  <path class="l-logo" stroke-linejoin="bevel" style="marker-start:none;" d="m465.05,187.07c53.293-33.434,148.97-38.224,213.71-10.699,6.2848,2.6723,12.143,5.6014,17.519,8.7589" transform="matrix(1.1290647,0,0,-1.545764,-116.72286,1102.5536)"  stroke="skyblue" stroke-width="15.14133358" fill="none"/>

 </g>

</svg>

