<svg xmlns="http://www.w3.org/2000/svg" xmlns:xlink="http://www.w3.org/1999/xlink" width="50" height="200"><defs><radialGradient r="2.218" fy="1132.935" fx="89.731" cy="1132.935" cx="89.731" gradientTransform="translate(0 .005)" gradientUnits="userSpaceOnUse" id="b" xlink:href="#a"/><linearGradient id="a"><stop offset="0" stop-color="red"/><stop offset="1" stop-color="red" stop-opacity="0"/></linearGradient><radialGradient r="2.218" fy="1132.935" fx="89.731" cy="1132.935" cx="89.731" gradientTransform="translate(0 .005)" gradientUnits="userSpaceOnUse" id="c" xlink:href="#a"/></defs><path d="M28.473 100.26c-.347 1.425-.572 2.88-3.24 3.72l.903-2.94c-1.342.804-2.685-.454-4.027-2.337l2.78.17c-.74-1.566-.432-3.3.687-5.166l.716 3.045c.724-.165.743-2.415 4.553-.855L28.51 97.61c1.468.646 2.5 1.788 2.124 4.525z" stroke="red" stroke-width=".047" stroke-linecap="round" stroke-linejoin="round"/><path d="M89.778 1131.217c.448 0 .844.167 1.187.5.323.344.485.745.485 1.203 0 .458-.162.864-.485 1.218-.343.344-.74.516-1.187.516-.48 0-.896-.172-1.25-.516-.343-.354-.515-.76-.515-1.218 0-.458.172-.86.515-1.203.354-.333.77-.5 1.25-.5zm0 3.015c.333 0 .625-.135.875-.406.25-.26.375-.562.375-.906s-.125-.646-.375-.906c-.25-.24-.542-.36-.875-.36-.365 0-.682.12-.953.36-.24.26-.36.562-.36.906s.12.646.36.906c.27.27.588.406.953.406z" style="text-align:center" text-anchor="middle" stroke="url(#c)" transform="matrix(.81188 0 0 .76717 -45.944 -770.11)" font-size="15.997" letter-spacing="0" word-spacing="0" fill="#bc3d3d" font-family="Sans"/><g font-weight="bold" letter-spacing="0" word-spacing="0" font-family="Kozuka Gothic Pr6N B"><text style="line-height:125%;-inkscape-font-specification:Kozuka Gothic Pr6N B Bold" x="60.39" y="1198.504" transform="matrix(1.33644 .02723 -.0487 .74727 0 -852.362)" font-size="42.483"/><g style="text-align:center;line-height:120.00000477%;-inkscape-font-specification:Kozuka Gothic Pr6N B Bold" font-size="14.399" writing-mode="tb-rl" text-anchor="middle" fill="#ff2a2a"><path d="M29.253 5.397l-.174.115h-8.967v1.516h8.057c-.17.41-.42.843-.75 1.303-.33.46-.693.863-1.093 1.208.218.11.46.245.73.41.27.164.49.316.665.456.52-.534 1.016-1.172 1.486-1.914s.85-1.475 1.14-2.2c.128-.04.21-.103.25-.192zm-5.44 2.956c-.076 1.446-.387 2.753-.935 3.92-.548 1.17-1.408 2.088-2.578 2.756.22.13.458.295.71.495.255.2.47.374.647.524 1.236-.802 2.15-1.848 2.746-3.14.595-1.29.962-2.648 1.102-4.073.1-.02.18-.053.238-.1.06-.047.09-.103.098-.167zM25.973 30.192c.413.8.82 1.702 1.22 2.707.403 1.005.766 2.004 1.092 2.998.326.994.58 1.874.764 2.64l1.68-.688c-.172-.77-.423-1.632-.753-2.59-.33-.957-.706-1.93-1.125-2.92-.42-.99-.847-1.918-1.285-2.785zm-4.296-.47c-.193 1.59-.504 3.088-.932 4.495-.428 1.407-1.01 2.622-1.745 3.645.244.092.506.208.788.346.28.138.537.282.77.432.734-1.108 1.33-2.38 1.79-3.82.457-1.438.81-2.896 1.06-4.373.104-.012.183-.038.235-.078.053-.04.09-.095.114-.165zM29 52.898l-.212.127h-9.29v1.516h8.044c-.385.53-.872 1.094-1.463 1.69-.59.6-1.216 1.152-1.875 1.662-.377-.277-.763-.547-1.158-.81-.395-.263-.78-.5-1.158-.706l-1.097 1.147c.964.575 1.938 1.275 2.92 2.102.983.827 1.832 1.655 2.547 2.485l1.382-1.236c-.28-.316-.623-.662-1.027-1.037-.405-.375-.797-.718-1.177-1.027.868-.675 1.716-1.438 2.545-2.29.83-.853 1.512-1.687 2.05-2.5.137-.037.224-.105.26-.205zM28.402 75.03c.26.232.538.514.83.846.29.332.52.623.69.874l.72-.61c-.184-.277-.42-.57-.712-.877-.29-.308-.572-.58-.843-.82zm.86 5.39c-.64-.343-1.37-.697-2.185-1.063-.816-.366-1.578-.678-2.287-.938l-.31.432v-3.63c.128-.02.222-.06.28-.117.057-.057.088-.125.093-.202L22.81 74.8V86h1.67v-5.924c.636.264 1.31.57 2.023.917.712.347 1.336.678 1.874.994zm-2.566-4.243c.255.232.53.52.82.86.29.34.524.64.7.898l.72-.624c-.208-.297-.46-.606-.75-.928-.29-.32-.558-.59-.805-.804z" style="line-height:120.00000477%;-inkscape-font-specification:Kozuka Gothic Pr6N B Bold"/></g><g style="line-height:125%;-inkscape-font-specification:Kozuka Gothic Pr6N B Bold" font-size="17.125" writing-mode="tb-rl" fill="#241c1c"><path d="M34.27 112.442h-3.115v-2.413c.16-.022.282-.06.366-.114.085-.055.132-.12.14-.194l-2.643-.12v2.84h-4.344v-2.2c.16-.023.282-.067.367-.13.084-.066.13-.133.14-.203l-2.628-.134v2.666H19.64v1.6h2.912v3.012h2.12v-3.013h4.345v.6c.045 1.105-.256 2.137-.903 3.1-.647.96-1.912 1.79-3.794 2.487.27.16.544.35.825.565.28.216.522.414.724.595 2.016-.784 3.41-1.756 4.182-2.915.772-1.16 1.14-2.44 1.103-3.844v-.587h3.115zM31.643 134.48h-9.63v1.532h9.63zm.068 3.252l-.235.133h-11.11v1.573h10.2c-.415 1.184-1.292 2.206-2.632 3.066-1.34.86-3.07 1.496-5.196 1.906.223.183.46.4.71.652.25.25.44.478.57.68 2.512-.538 4.487-1.365 5.926-2.478 1.44-1.113 2.522-2.673 3.25-4.68.076-.02.14-.048.197-.084.055-.036.096-.074.122-.115zM26.045 173.14h1.8v-15.21h-1.8zM28.428 184.912c.557.837 1.107 1.78 1.65 2.833.543 1.052 1.035 2.097 1.475 3.137.44 1.04.784 1.96 1.033 2.762l2.273-.72c-.234-.805-.573-1.708-1.02-2.71-.447-1-.954-2.02-1.52-3.055-.567-1.036-1.146-2.008-1.737-2.914zm-5.808-.493c-.262 1.663-.682 3.23-1.26 4.703-.58 1.472-1.366 2.744-2.36 3.814.33.097.685.217 1.065.362.38.144.727.294 1.04.45.993-1.158 1.8-2.49 2.42-3.995.62-1.506 1.097-3.03 1.435-4.576.14-.014.246-.042.317-.083.072-.04.123-.098.154-.17z"/></g></g></svg>