<svg xmlns:osb="http://www.openswatchbook.org/uri/2009/osb" xmlns="http://www.w3.org/2000/svg" xmlns:xlink="http://www.w3.org/1999/xlink" width="200" height="50"><defs><linearGradient id="b"><stop offset="0" stop-color="red"/><stop offset="1" stop-color="red" stop-opacity="0"/></linearGradient><linearGradient id="a" osb:paint="solid"><stop offset="0" stop-color="#f30606"/></linearGradient><linearGradient id="c"><stop offset="0" stop-color="red"/><stop offset="1" stop-color="red" stop-opacity="0"/></linearGradient><radialGradient r="2.218" fy="1132.935" fx="89.731" cy="1132.935" cx="89.731" gradientTransform="translate(0 .005)" gradientUnits="userSpaceOnUse" id="e" xlink:href="#c"/><radialGradient r="2.218" fy="1132.935" fx="89.731" cy="1132.935" cx="89.731" gradientTransform="translate(0 .005)" gradientUnits="userSpaceOnUse" id="d" xlink:href="#c"/></defs><g transform="translate(0 -1002.362)"><a><g style="line-height:125%;-inkscape-font-specification:Kozuka Gothic Pr6N B Bold" font-size="21.858" font-weight="bold" letter-spacing="0" word-spacing="0" fill="#ff2a2a" font-family="Kozuka Gothic Pr6N B"><path d="M24.794 1018.045l-.282.214H10v2.82h13.04c-.273.76-.677 1.568-1.21 2.423-.535.856-1.125 1.604-1.772 2.246.352.2.746.455 1.18.76.437.306.795.59 1.077.85.844-.994 1.646-2.18 2.406-3.56.762-1.38 1.377-2.745 1.848-4.095.205-.072.34-.19.403-.356zm-8.808 5.5c-.12 2.69-.625 5.12-1.51 7.295-.888 2.174-2.28 3.882-4.174 5.126.358.243.74.55 1.152.92.41.372.76.697 1.045.976 2-1.49 3.48-3.435 4.444-5.837.962-2.402 1.557-4.93 1.783-7.58.163-.037.29-.1.386-.186.094-.09.147-.192.16-.312zM39.13 1020.795c.667 1.487 1.326 3.166 1.976 5.037.65 1.87 1.238 3.73 1.765 5.58.528 1.848.94 3.485 1.238 4.91l2.72-1.28c-.277-1.43-.684-3.037-1.22-4.818-.534-1.78-1.14-3.592-1.82-5.434-.677-1.84-1.37-3.568-2.078-5.18zm-6.954-.877c-.313 2.96-.816 5.747-1.51 8.365-.692 2.617-1.634 4.878-2.824 6.782.395.17.82.386 1.275.643.455.257.87.525 1.245.803 1.19-2.06 2.156-4.428 2.897-7.104.74-2.677 1.314-5.39 1.718-8.137.168-.024.295-.073.38-.146.085-.074.147-.175.184-.305zM64.183 1019.657l-.342.237H48.806v2.82h13.02c-.623.985-1.412 2.033-2.368 3.145-.956 1.11-1.967 2.14-3.033 3.09-.61-.517-1.235-1.02-1.875-1.51-.64-.488-1.266-.926-1.875-1.312l-1.774 2.134c1.56 1.07 3.137 2.373 4.727 3.91 1.59 1.54 2.965 3.08 4.122 4.623l2.236-2.3c-.453-.587-1.007-1.23-1.662-1.928s-1.29-1.335-1.905-1.91c1.404-1.255 2.777-2.676 4.118-4.262 1.342-1.586 2.448-3.137 3.318-4.652.222-.067.363-.193.424-.38zM83.372 1017.453c.424.43.87.955 1.343 1.573.47.618.843 1.16 1.116 1.627l1.17-1.138c-.3-.514-.684-1.057-1.154-1.63-.47-.573-.925-1.08-1.365-1.523zm1.39 10.027c-1.035-.637-2.213-1.296-3.534-1.977-1.32-.68-2.554-1.263-3.7-1.745l-.505.806v-6.756c.21-.038.36-.11.453-.216.094-.106.144-.232.152-.376l-3.306-.19v20.836h2.7v-11.022c1.032.49 2.124 1.06 3.276 1.706 1.152.646 2.164 1.263 3.034 1.85zm-4.15-7.894c.412.433.855.966 1.326 1.6.472.634.85 1.19 1.132 1.67l1.17-1.16c-.34-.554-.745-1.13-1.216-1.728-.47-.598-.905-1.097-1.305-1.496z"/></g></a><g style="line-height:125%;-inkscape-font-specification:Kozuka Gothic Pr6N B Bold" font-size="21.902" font-weight="bold" letter-spacing="0" word-spacing="0" fill="#241c1c" font-family="Kozuka Gothic Pr6N B"><path d="M129.148 1021.51h-3.65v-4.402c.188-.04.33-.107.43-.207.1-.098.153-.216.163-.35l-3.096-.22v5.18h-5.088v-4.013c.187-.042.33-.122.43-.24.097-.118.15-.24.16-.368l-3.076-.244v4.864h-3.412v2.92h3.412v5.495h2.486v-5.496h5.088v1.093c.053 2.013-.3 3.897-1.057 5.652-.76 1.754-2.24 3.267-4.446 4.54.316.292.638.636.968 1.03.33.393.612.755.848 1.085 2.363-1.43 3.997-3.203 4.9-5.318.905-2.114 1.336-4.452 1.293-7.013v-1.07h3.648zM145.794 1017.205h-11.28v2.797h11.28zm.08 5.935l-.277.243H132.58v2.87h11.952c-.487 2.16-1.515 4.024-3.084 5.594-1.57 1.57-3.598 2.73-6.087 3.478.262.333.54.73.832 1.188.293.46.515.873.668 1.244 2.943-.985 5.257-2.493 6.942-4.524 1.686-2.03 2.955-4.876 3.807-8.537.09-.038.166-.09.23-.155.066-.064.113-.134.144-.21zM151.81 1028.685c.142-.025.273-.078.395-.158.12-.08.213-.182.276-.304h15.64v-3.065h-16.468zM181.474 1020.197c.653 1.526 1.298 3.25 1.934 5.168.636 1.92 1.212 3.827 1.727 5.724.516 1.896.92 3.576 1.21 5.037l2.663-1.313c-.272-1.468-.67-3.116-1.193-4.943-.524-1.826-1.117-3.684-1.78-5.574-.665-1.89-1.343-3.66-2.036-5.315zm-6.804-.9c-.306 3.035-.8 5.896-1.477 8.582-.68 2.685-1.6 5.005-2.764 6.958.385.176.8.396 1.247.66.445.264.85.538 1.218.824 1.164-2.114 2.11-4.544 2.835-7.29.725-2.747 1.286-5.53 1.68-8.35.166-.023.29-.072.373-.148.084-.075.144-.18.18-.313z"/></g><path d="M101.677 1029.416c-.47 1.687-.776 3.41-4.393 4.406l1.224-3.482c-1.82.952-3.642-.537-5.463-2.767l3.77.2c-1-1.852-.584-3.905.935-6.114l.97 3.604c.982-.196 1.008-2.86 6.176-1.012l-3.17 2.027c1.992.765 3.393 2.116 2.882 5.356z" stroke="red" stroke-width=".06" stroke-linecap="round" stroke-linejoin="round"/><path d="M89.778 1131.217c.448 0 .844.167 1.187.5.323.344.485.745.485 1.203 0 .458-.162.864-.485 1.218-.343.344-.74.516-1.187.516-.48 0-.896-.172-1.25-.516-.343-.354-.515-.76-.515-1.218 0-.458.172-.86.515-1.203.354-.333.77-.5 1.25-.5zm0 3.015c.333 0 .625-.135.875-.406.25-.26.375-.562.375-.906s-.125-.646-.375-.906c-.25-.24-.542-.36-.875-.36-.365 0-.682.12-.953.36-.24.26-.36.562-.36.906s.12.646.36.906c.27.27.588.406.953.406z" style="text-align:center" text-anchor="middle" stroke="url(#e)" transform="matrix(1.10115 0 0 .90814 .745 -.886)" font-size="15.997" letter-spacing="0" word-spacing="0" fill="#bc3d3d" font-family="Sans"/></g></svg>