<svg xmlns="http://www.w3.org/2000/svg" xmlns:xlink="http://www.w3.org/1999/xlink" width="50" height="230"><defs><radialGradient r="2.218" fy="1132.935" fx="89.731" cy="1132.935" cx="89.731" gradientTransform="translate(0 .005)" gradientUnits="userSpaceOnUse" id="b" xlink:href="#a"/><linearGradient id="a"><stop offset="0" stop-color="red"/><stop offset="1" stop-color="red" stop-opacity="0"/></linearGradient><radialGradient r="2.218" fy="1132.935" fx="89.731" cy="1132.935" cx="89.731" gradientTransform="translate(0 .005)" gradientUnits="userSpaceOnUse" id="c" xlink:href="#a"/></defs><path d="M27.39 114.377c-.426 1.572-.703 3.178-3.988 4.106l1.11-3.245c-1.652.887-3.306-.5-4.96-2.58l3.425.188c-.91-1.727-.53-3.642.848-5.7l.882 3.36c.89-.182.915-2.665 5.607-.943l-2.88 1.89c1.81.713 3.083 1.972 2.62 4.993z" stroke="red" stroke-width=".055" stroke-linecap="round" stroke-linejoin="round"/><path d="M89.778 1131.217c.448 0 .844.167 1.187.5.323.344.485.745.485 1.203 0 .458-.162.864-.485 1.218-.343.344-.74.516-1.187.516-.48 0-.896-.172-1.25-.516-.343-.354-.515-.76-.515-1.218 0-.458.172-.86.515-1.203.354-.333.77-.5 1.25-.5zm0 3.015c.333 0 .625-.135.875-.406.25-.26.375-.562.375-.906s-.125-.646-.375-.906c-.25-.24-.542-.36-.875-.36-.365 0-.682.12-.953.36-.24.26-.36.562-.36.906s.12.646.36.906c.27.27.588.406.953.406z" style="text-align:center" text-anchor="middle" stroke="url(#c)" transform="matrix(.99994 0 0 .84655 -64.263 -846.05)" font-size="15.997" letter-spacing="0" word-spacing="0" fill="#bc3d3d" font-family="Sans"/><g font-weight="bold" letter-spacing="0" word-spacing="0" font-family="Kozuka Gothic Pr6N B"><text style="line-height:125%;-inkscape-font-specification:Kozuka Gothic Pr6N B Bold" x="60.39" y="1198.504" transform="matrix(1.33644 .02723 -.0487 .74727 0 -822.362)" font-size="42.483"/><g style="text-align:center;line-height:120.00000477%;-inkscape-font-specification:Kozuka Gothic Pr6N B Bold" font-size="14.399" writing-mode="tb-rl" text-anchor="middle" fill="#ff2a2a"><path d="M32.112 2.58l-.26.136H18.476v1.81h12.02c-.253.488-.626 1.006-1.117 1.555-.493.55-1.038 1.03-1.634 1.442.325.13.688.292 1.09.49.4.195.73.377.99.544.778-.638 1.517-1.4 2.218-2.285.7-.884 1.27-1.76 1.703-2.626.188-.046.312-.122.37-.228zm-8.12 3.528c-.11 1.725-.575 3.285-1.392 4.68-.817 1.395-2.1 2.49-3.845 3.288.33.157.683.354 1.06.592.38.238.7.446.964.625 1.843-.955 3.21-2.204 4.096-3.745.887-1.54 1.435-3.162 1.644-4.862.15-.024.268-.064.355-.12.087-.056.136-.123.147-.2zM27.22 32.175c.614.954 1.22 2.032 1.82 3.23.6 1.2 1.14 2.394 1.627 3.58.486 1.187.866 2.237 1.14 3.15l2.508-.82c-.256-.918-.63-1.948-1.124-3.09-.492-1.143-1.05-2.305-1.677-3.487-.625-1.18-1.264-2.29-1.916-3.323zm-6.41-.563c-.29 1.9-.753 3.687-1.392 5.367-.64 1.678-1.506 3.13-2.603 4.35.364.11.756.247 1.175.413.42.165.802.336 1.147.515 1.097-1.322 1.987-2.842 2.67-4.56.684-1.716 1.212-3.456 1.585-5.22.155-.014.272-.045.35-.092.08-.047.135-.112.17-.196zM31.733 59.277l-.316.152h-13.86v1.808H29.56c-.575.632-1.303 1.304-2.183 2.017-.88.713-1.813 1.374-2.796 1.983-.56-.33-1.137-.654-1.727-.968-.59-.314-1.166-.594-1.728-.842l-1.635 1.37c1.44.685 2.89 1.522 4.357 2.508 1.466.987 2.732 1.975 3.8 2.966l2.06-1.475c-.417-.378-.928-.79-1.532-1.238-.603-.45-1.19-.857-1.755-1.227 1.294-.805 2.56-1.716 3.797-2.734 1.236-1.018 2.256-2.013 3.058-2.985.204-.043.334-.124.39-.243zM30.84 85.694c.392.276.804.613 1.24 1.01.434.396.776.743 1.028 1.043l1.077-.73c-.275-.33-.63-.678-1.063-1.046-.434-.366-.853-.692-1.26-.976zm1.283 6.433c-.955-.41-2.04-.83-3.258-1.268-1.217-.438-2.354-.81-3.41-1.12l-.466.516v-4.334c.192-.024.33-.07.417-.14.086-.066.133-.147.14-.24L22.5 85.42v13.368h2.49v-7.072c.95.316 1.956.68 3.018 1.095 1.062.415 1.994.81 2.796 1.187zm-3.827-5.065c.38.278.79.62 1.224 1.027.435.406.782.763 1.043 1.07l1.077-.744c-.313-.355-.686-.725-1.12-1.108-.433-.384-.834-.704-1.202-.96z" style="line-height:120.00000477%;-inkscape-font-specification:Kozuka Gothic Pr6N B Bold"/></g><g style="line-height:125%;-inkscape-font-specification:Kozuka Gothic Pr6N B Bold" font-size="17.125" writing-mode="tb-rl" fill="#241c1c"><path d="M35.09 131.055H31.65v-2.668c.176-.023.31-.066.404-.126.093-.06.144-.13.153-.212l-2.917-.133v3.14H24.5v-2.432c.176-.026.31-.074.404-.146.093-.07.144-.146.153-.223l-2.898-.147v2.948h-3.215v1.77h3.214v3.33h2.34v-3.33h4.793v.662c.05 1.22-.283 2.362-.997 3.426-.714 1.063-2.11 1.98-4.187 2.75.296.18.6.387.91.625.31.24.576.458.8.658 2.225-.867 3.764-1.94 4.615-3.223.852-1.28 1.257-2.698 1.217-4.25v-.65h3.437zM32.19 155.424H21.565v1.695H32.19zm.075 3.596l-.26.148h-12.26v1.74H31c-.46 1.308-1.427 2.438-2.905 3.39-1.478.95-3.39 1.654-5.734 2.108.246.202.507.442.783.72.276.278.485.53.63.754 2.77-.597 4.95-1.51 6.538-2.742 1.588-1.23 2.783-2.956 3.586-5.174.084-.023.157-.054.218-.094.06-.04.106-.082.135-.127zM26.013 198.174H28v-16.82h-1.987zM28.642 211.192c.615.925 1.222 1.97 1.822 3.132.6 1.164 1.14 2.32 1.627 3.47.487 1.15.867 2.168 1.14 3.054l2.51-.796c-.257-.89-.632-1.89-1.125-2.996-.493-1.108-1.053-2.234-1.678-3.38-.625-1.144-1.264-2.218-1.917-3.22zm-6.41-.545c-.287 1.84-.75 3.574-1.39 5.202-.64 1.627-1.507 3.032-2.603 4.216.363.107.754.24 1.174.4.42.16.802.327 1.147.5 1.098-1.282 1.988-2.755 2.672-4.42.683-1.664 1.21-3.35 1.583-5.06.156-.014.272-.044.35-.09.08-.045.136-.108.17-.19z"/></g></g></svg>