<svg id="onna" xmlns="http://www.w3.org/2000/svg" xmlns:xlink="http://www.w3.org/1999/xlink" width="100%" height="100%" viewBox="0 0 350 500" >

 <defs>

     <style type="text/css">

svg{
  

    text-align:center;
    margin:0 auto;
}



.onna{


  filter:drop-shadow(0 0px 2px #000);

  stroke-dasharray: 1900;
  stroke-dashoffset: 0;

  -webkit-animation: onna  5s ease-in-out alternate infinite   ;
  -moz-animation: onna  5s ease-in-out alternate  infinite  ;
  -o-animation: onna  5s ease-in-out  alternate infinite  ;
  animation: onna  5s ease-in-out alternate infinite   ;

  -webkit-transition:fill 1s linear;
  -moz-transition:fill 1s linear;
  -o-transition:fill 1s linear;
  transition:fill 1s linear;
}

@keyframes onna  {
  from {
    stroke-dashoffset: 1900;
    
  }
  to {
    stroke-dashoffset: 0;
    fill:#fff;
  }

}

@-webkit-keyframes onna  {
  from {
    stroke-dashoffset: 1900;
    
    
  }
  to {
    stroke-dashoffset: 0;
    fill:#fff;
  }

}



.onna:hover{
  
  cursor:pointer;

}


#onna.clickit .onna{
  
  fill:#dc143c;
  stroke:#000;

}


/**************************/

.backcard{



  stroke-dasharray: 1700;
  stroke-dashoffset: 0;

  -webkit-animation: backcard  5s ease-in-out alternate infinite   ;
  -moz-animation: backcard  5s ease-in-out alternate  infinite  ;
  -o-animation: backcard  5s ease-in-out  alternate infinite  ;
  animation: backcard  5s ease-in-out alternate infinite   ;

  -webkit-transition:fill 0.5s linear;
  -moz-transition:fill 0.5s linear;
  -o-transition:fill 0.5s linear;
  transition:fill 0.5s linear;
}

@keyframes backcard  {
  from {
    stroke-dashoffset: 1700;
    fill:#fff;
   
  }
  to {
    stroke-dashoffset: 0;
    fill:oldlace;
  }

}

@-webkit-keyframes backcard  {
  from {
    stroke-dashoffset: 1700;
    fill:#fff;
    
    
  }
  to {
    stroke-dashoffset: 0;
    fill:oldlace;
  }

}



.backcard:hover{
  
  cursor:pointer;

}




/**************************/




/*************************/

</style>

</defs>


<script type="text/javascript">

var clicker = document.querySelector('#onna');

clicker.addEventListener('click', function(){
  
this.classList.toggle('clickit');


});

</script>



 <g  transform="translate(0,-552.36218)" stroke="#c21f1f">

  <path class="backcard" d="m26.085,569.7,299.61,0c5.3372,0,9.6339,4.2967,9.6339,9.6339v447.01c0,5.3372-4.2967,9.634-9.6339,9.634h-299.61c-5.3372,0-9.6339-4.2968-9.6339-9.634v-447.01c0-5.3372,4.2967-9.6339,9.6339-9.6339z" fill-rule="nonzero" fill="transparent" stroke-width="3"/>

  <path class="onna" d="m40.969,804.1,0-208.92,134.67,0,134.67,0,0,208.92,0,208.92-134.67,0-134.67,0,0-208.92zm19.477,190.28c0.50819-15.716-2.2781-30.848-7.965-43.256-1.8093-3.9477-2.983-7.4735-2.6082-7.8353,0.37479-0.36174,5.6966-1.6704,11.826-2.9082,6.1296-1.2378,11.495-2.5884,11.923-3.0014,0.61854-0.59697-22.08-30.43-27.937-36.718-0.78309-0.8407-1.4112,23.156-1.4112,53.913v55.428l7.8491-0.4861,7.8491-0.4861,0.47372-14.65zm43.646,11.939c-1.0906-1.0525-2.0301-3.7438-2.0877-5.9805l-0.10475-4.0668-1.5386,3.7036c-1.0686,2.5722-2.6772,3.5774-5.2657,3.2908-2.0499-0.227-5.3721,0.1198-7.3826,0.7705-7.7318,2.5026-13.83-5.4162-7.8565-10.201,1.3935-1.1162,2.2376-2.8189,1.8757-3.7837-1.1753-3.1335,2.2249-7.3348,5.9765-7.3845,3.3635-0.0445,3.4171-0.18474,0.66262-1.731-1.6485-0.92539-3.6462-3.236-4.4395-5.1347-1.1428-2.7353-1.464-2.8726-1.547-0.66121-0.0576,1.535-1.0342,2.903-2.1703,3.0401-1.136,0.13699-3.9245,0.47907-6.1966,0.76009-2.2721,0.28101-5.2465,0.6456-6.6098,0.81022-2.0386,0.24616-2.3845,2.801-1.9483,14.391l0.53039,14.091h20.042c15.589,0,19.602-0.4253,18.06-1.9138zm16.194-0.4784c-1.1314-1.3157-2.3145-2.3922-2.6291-2.3922-0.31461,0-0.14401,1.0765,0.37913,2.3922,0.52313,1.3157,1.7062,2.3922,2.6291,2.3922,0.96718,0,0.80659-1.0133-0.37913-2.3922zm33.701,0.1367c-0.44692-1.1241-2.8213-3.4548-5.2764-5.1795-8.2044-5.7634-9.4674-5.8498-4.0217-0.275,2.9697,3.0402,5.0465,5.8682,4.6151,6.2846-0.43141,0.4163,0.62862,0.8597,2.3556,0.9853,1.9321,0.1405,2.8274-0.5579,2.3274-1.8154zm4.9184-1.8218c-2.6194-3.8582-11.892-10.751-19.992-14.861-3.0389-1.542-3.5225-1.4696-2.773,0.4154,0.49927,1.2557,2.9796,3.1114,5.5119,4.1237,2.5323,1.0124,7.4632,4.6664,10.957,8.1201,7.2267,7.1428,10.404,8.2543,6.2956,2.2022zm4.3691-2.2717c-7.4417-9.0683-25.581-20.27-30.305-18.715-1.0682,0.35161,2.2357,2.554,7.3419,4.8942,5.4894,2.5158,12.243,7.4411,16.524,12.05,8.7383,9.4081,13.863,10.817,6.4389,1.7707zm16.223,0.063c5.4295-6.5206,6.7392-10.144,3.1683-8.7647-2.0512,0.7922-11.154,12.307-11.154,14.109,0,2.5148,3.256,0.3356,7.9856-5.3445zm3.7374,1.22c1.3084-2.3596,1.3135-2.9875,0.0178-2.2146-0.99463,0.5933-2.6302,2.5607-3.6346,4.372-1.3085,2.3596-1.3135,2.9875-0.0178,2.2146,0.99462-0.5933,2.6302-2.5607,3.6346-4.372zm122.12-91.719,0-96.785-4.9614,4.5876c-3.2508,3.0059-4.3167,4.9721-3.0915,5.7029,1.2588,0.75085,1.4977,3.9899,0.73122,9.911-0.69254,5.3496-0.49362,9.1804,0.50771,9.7777,3.7625,2.2443-0.29691,19.977-5.9135,25.832-3.171,3.3056-3.2714,3.7936-0.78079,3.7936,4.4193,0,10.203,4.6126,10.203,8.1368,0,2.7861-0.73348,3.0387-6.0368,2.0784-5.7929-1.0489-5.9866-0.93905-4.7939,2.7187,0.6836,2.0964,1.2812,7.6896,1.328,12.429,0.0929,9.3996-2.5778,12.913-9.8163,12.913-2.0984,0-3.8153,0.69973-3.8153,1.555,0,1.4121-3.786,1.1794-14.434-0.88688-2.3544-0.45692-4.084-2.2974-4.7721-5.0781-0.59357-2.3988-1.7843-5.2271-2.6461-6.2851-0.86176-1.058-0.99329-2.8193-0.29231-3.914,0.701-1.0947,1.3227-4.1567,1.3816-6.8046,0.0806-3.626,1.4169-5.6122,5.4138-8.0472,10.619-6.4691,5.308-7.6964-6.6714-1.5416l-7.9481,4.0836,0.52526-5.2288c0.37843-3.7671,1.9743-6.1677,5.7089-8.5876,4.9722-3.2218,5.0728-3.5006,2.4677-6.8339-2.7053-3.4615-2.7788-3.4185-18.816,11.013l-16.1,14.488v12.374c0,23.335-9.8253,49.976-26.041,70.61-8.1478,10.368-8.4084,11.03-8.9393,22.73l-0.54677,12.051h59.075,59.075v-96.785zm-46.099,89.131c-3.9865-7.5417-21.189-29.813-27.221-35.241l-4.247-3.822,6.3615-7.3417c5.3392-6.1619,19.72-26.22,25.763-35.934,1.3754-2.2108,3.1221-0.50393,10.418,10.18,4.821,7.06,12.88,17.125,17.908,22.367l9.1427,9.5308-9.9184,11.597c-5.4551,6.3786-13.277,16.868-17.383,23.309l-7.4642,11.712-3.3607-6.3579zm-74.604-13.79c0.1262-2.5385-11.61,9.1725-14.298,14.268-1.8712,3.5464-0.35752,2.5147,5.8495-3.987,4.6056-4.8244,8.4077-9.4506,8.4489-10.281zm-74.416,9.3253c-2.2-2.2727-5.992-5.1327-8.4268-6.3554s-4.7502-3.8457-5.1454-5.829c-0.66358-3.3303-0.73571-3.2932-0.94354,0.48444-0.17514,3.1834,1.0236,4.6651,5.4065,6.6823,3.0974,1.4255,7.0012,4.3588,8.6753,6.5184,1.6741,2.1597,3.3565,3.6352,3.7388,3.2792,0.38226-0.3562-1.1049-2.507-3.3049-4.7798zm76.072-17.684c0.0476-1.2625-1.7696-1.6049-5.455-1.0277-4.6244,0.72426-6.1078,0.15215-9.0884-3.505-4.1996-5.1527-4.312-6.8342-1.2251-18.32,2.4504-9.117,2.0152-12.367-1.3002-9.7116-1.2321,0.98689-2.8845,1.0252-4.3971,0.10191-1.3328-0.81355-3.8732-1.4902-5.6455-1.5036-2.5062-0.019-2.7816,0.40087-1.2393,1.8894,2.8668,2.7668,2.4424,5.2241-0.49573,2.8707-1.3633-1.092-2.4787-2.9488-2.4787-4.1262,0-3.0475,5.4511-5.5247,8.3508-3.795,1.6229,0.96804,2.6628,0.67244,3.2422-0.9216,0.74214-2.0419,1.3334-2.022,4.5519,0.15374,3.1043,2.0985,3.5853,3.6213,2.9916,9.4717-0.68453,6.7465-0.55931,6.9671,3.8856,6.8452,2.5261-0.0694,5.4437,0.38143,6.4836,1.0017,4.3134,2.5729,0.18655-25.381-5.0829-34.43-3.446-5.9175-11.328-10.888-17.237-10.871-11.072,0.0322-30.732,11.764-38.939,23.236l-4.4877,6.2728,3.1066,16.693c2.4216,13.012,3.9069,17.318,6.7363,19.53,1.9963,1.5602,4.6874,2.8367,5.9802,2.8367,4.3153,0,17.861,7.6232,24.549,13.815l6.6098,6.12,10.256-10.366c5.641-5.7015,10.288-11.218,10.328-12.26zm-52.58-3.7805c-5.8315-3.4312-6.2414-6.2044-0.47691-3.2269,1.8358,0.94822,5.4316,1.6624,7.9906,1.587l4.6528-0.13716-4.9573-1.4097c-2.7265-0.77532-6.5833-3.3597-8.5706-5.743l-3.6133-4.3333,8.1061-2.7551c4.4584-1.5153,9.8023-2.345,11.876-1.8437l3.7694,0.91145-3.3049-3.6721-3.3049-3.6721,3.484,1.7621c3.8323,1.9383,9.3588,9.2142,10.034,13.21,0.38838,2.2995-2.2801,4.2656-9.3865,6.916-1.3633,0.50845,0.86753,0.61245,4.9573,0.23114l7.436-0.69332-3.901,3.0751c-5.3268,4.199-17.475,4.0979-24.79-0.20642zm16.711-5.8181c-2.0449-0.38014-5.3911-0.38014-7.436,0-2.0449,0.38012-0.3718,0.69115,3.718,0.69115s5.7629-0.31103,3.718-0.69115zm-1.8605-8.8687c-1.632-1.5633-1.8218-1.3802-0.92503,0.89279,0.62055,1.5728,1.5445,2.458,2.0533,1.9669,0.50876-0.49103,0.001-1.7779-1.1283-2.8597zm27.06-7.5488c0.56169-0.87715,1.7649-1.5948,2.6737-1.5948,0.90884,0,1.1929,0.71767,0.63117,1.5948-0.56169,0.87715-1.7649,1.5948-2.6737,1.5948-0.90884,0-1.1929-0.71767-0.63117-1.5948zm-19.416-17.019c-1.5905-0.41668-2.8918-1.364-2.8918-2.105,0-0.7411-0.49816-2.6004-1.107-4.1317-0.8076-2.0312-0.52363-2.4363,1.0498-1.4978,2.9043,1.7324,18.236,2.1181,19.282,0.48508,1.563-2.4409,3.4677,0.2617,2.7474,3.8983-0.61674,3.1138-1.8149,3.6621-8.4537,3.8684-4.2543,0.13221-9.0364-0.10047-10.627-0.5172zm6.6637-10.468c2.7889-1.2968,4.2746-1.2686,5.7009,0.10797,1.4704,1.4191,0.57363,1.8361-3.7719,1.7538-5.3539-0.10143-5.4713-0.2147-1.929-1.8618zm-70.696,68.952c0-0.8771-0.7436-1.5948-1.6524-1.5948-0.90884,0-1.6524,0.7177-1.6524,1.5948,0,0.87724,0.7436,1.5949,1.6524,1.5949,0.90884,0,1.6524-0.7177,1.6524-1.5949zm11.321-9.5493c-4.099-5.351-5.0113-5.4595-3.6497-0.4341,0.51165,1.8883,2.1552,3.7473,3.6524,4.1311s2.9304,0.78106,3.1848,0.88286c0.25442,0.1017-1.18-1.9592-3.1875-4.5799zm-9.4633-8.419c-1.632-1.5633-1.8218-1.3802-0.92503,0.89279,0.62054,1.5728,1.5445,2.458,2.0533,1.9669,0.50876-0.49103,0.001-1.7779-1.1283-2.8597zm-1.8575-3.3665c0-0.33116-1.3013-1.5871-2.8918-2.7909-2.6209-1.9838-2.6793-1.9274-0.62389,0.60214,2.1587,2.6566,3.5157,3.5014,3.5157,2.1888zm93.107-0.59397c0.42127-0.65787-2.0664-1.1961-5.5282-1.1961s-5.9495,0.53825-5.5282,1.1961c0.42128,0.65786,2.909,1.1961,5.5282,1.1961s5.107-0.53825,5.5282-1.1961zm-112.92-1.91c0-0.87715-0.78748-1.5948-1.75-1.5948-0.96248,0-1.2904,0.71767-0.7287,1.5948,0.5617,0.87715,1.3492,1.5948,1.75,1.5948,0.40079,0,0.7287-0.71767,0.7287-1.5948zm112.37-1.6677c1.8102-1.1822,1.1417-1.3302-2.4787-0.54863-6.0759,1.3117-7.3948,2.2245-3.1672,2.1919,1.7419-0.0134,4.2826-0.75289,5.6458-1.6433zm-99.973-1.522c-0.56169-0.87715-1.9069-1.5838-2.9893-1.5704-1.1825,0.0143-0.97869,0.64148,0.51064,1.5704,3.1745,1.98,3.7466,1.98,2.4786,0zm-16.796-7.9945c3.5251-1.3912,3.5283-1.4257,0.21858-2.3857-1.847-0.53573-4.3261-3.0842-5.5089-5.6633-1.2801-2.791-3.4086-4.6892-5.2583-4.6892-3.0218,0-3.0179,0.202,0.13851,7.3089,1.7854,4.0199,3.2688,8.5053,3.2964,9.9676,0.0442,2.341,0.25858,2.313,1.7936-0.23401,0.95882-1.591,3.3529-3.5279,5.3202-4.3043zm10.359,2.0471c-0.5491-0.52994-0.93965,0.41201-0.8679,2.0932,0.0793,1.8579,0.47085,2.2358,0.99835,0.96355,0.47734-1.1513,0.41864-2.5268-0.13046-3.0568zm6.3256-1.2293c-2.4262-3.07-4.6252-5.5819-4.8867-5.5819-1.4678,0,1.6957,7.4901,3.8731,9.1702,4.9021,3.7826,5.4121,1.9772,1.0136-3.5884zm33.102-5.8785c-0.93688-6.4857-1.5312-7.7263-2.5321-5.2853-0.71935,1.7543-1.3488,4.625-1.3988,6.3793-0.0759,2.6664,0.18817,2.7972,1.61,0.79741,1.3599-1.9126,1.6494-1.5928,1.4442,1.5948-0.35415,5.5015-0.0618,7.0758,1.105,5.9498,0.54771-0.52861,0.44494-4.7748-0.22838-9.436zm-4.4018-11.665c0-4.6521-0.0366-4.6742-1.323-0.79741-0.72765,2.1929-1.323,6.1401-1.323,8.7715,0,4.6521,0.0366,4.6742,1.323,0.79741,0.72766-2.1929,1.323-6.1401,1.323-8.7715zm-39.329,8.2213c0-0.30263-1.6731-1.9174-3.718-3.5884l-3.718-3.0381,3.1479,3.5884c2.9582,3.3722,4.2881,4.3144,4.2881,3.0381zm34.241-17.427c-0.36505-2.8312-0.65772-0.12392-0.65039,6.0161,0.007,6.1401,0.306,8.4565,0.66371,5.1476,0.35772-3.3089,0.35172-8.3326-0.0134-11.164zm-3.0151,1.3226c-0.18957-5.6515-0.89314-11.132-1.5635-12.179-0.67035-1.0468-1.1324,3.5771-1.0267,10.275,0.10564,6.6983,0.80922,12.179,1.5635,12.179,0.75426,0,1.2163-4.6239,1.0267-10.275zm-5.5842-11.581c-0.59772-4.6172-1.858-8.8549-2.8006-9.4172-1.0491-0.62574-1.3639,0.13779-0.81163,1.9684,0.49621,1.6449,1.4847,8.0143,2.1967,14.154,0.81119,6.9956,1.52,9.395,1.8984,6.4265,0.33213-2.6055,0.11483-8.5149-0.4829-13.132zm15.402,8.9805c-2.0808-3.5731-4.0325-5.7748-4.3372-4.8926-0.78458,2.2717,4.3426,11.389,6.4046,11.389,0.94365,0,0.0132-2.9235-2.0675-6.4966zm2.8249-2.9241c-3.6298-6.7746-4.8073-6.2488-1.409,0.62917,1.5114,3.059,3.0414,5.2787,3.4,4.9327,0.35855-0.34604-0.53741-2.8489-1.991-5.5618zm-22.854-6.1069c-0.37982-2.4242-0.70073-0.81933-0.71314,3.5664-0.0124,4.3858,0.29836,6.3692,0.69058,4.4077,0.39223-1.9615,0.40238-5.5499,0.0226-7.9741zm26.736,2.463c-1.1544-2.0819-2.3208-2.8492-2.693-1.7717-0.36108,1.0455,0.2599,3.5535,1.38,5.5734,1.1544,2.0819,2.3208,2.8492,2.693,1.7717,0.36108-1.0455-0.2599-3.5535-1.38-5.5734zm4.466-0.65085c-0.58809-1.4791-1.441-2.3304-1.8955-1.8919-0.45442,0.43857-0.34505,2.0076,0.24304,3.4867s1.441,2.3304,1.8955,1.8919c0.45442-0.43857,0.34505-2.0076-0.24304-3.4867zm-37.288-12.971c-1.0639-4.5901-2.7539-8.8344-3.7555-9.4318-1.2294-0.7333-1.4075-0.0944-0.54814,1.9663,0.7001,1.6789,2.1278,7.7174,3.1726,13.419,1.1842,6.4621,2.1192,8.8647,2.4826,6.3793,0.32059-2.1929-0.2876-7.7426-1.3515-12.333zm42.009,10.628c-1.5539-2.4266-4.0366-1.6854-3.0093,0.89846,0.52113,1.3107,1.6253,1.9788,2.4538,1.4846,0.82843-0.49416,1.0784-1.5665,0.55555-2.3831zm-16.243-0.87682c3.5191-1.42,13.414-3.9445,21.988-5.61,18.513-3.596,21.715-5.3875,6.7183-3.7592-12.482,1.3554-29.178,6.0125-33.899,9.456-4.283,3.1243-2.7001,3.0978,5.1921-0.0868zm-31.509-14.05c-1.4449-4.7971-3.4574-9.2172-4.4722-9.8226-1.1389-0.67934-1.4795-0.25263-0.8898,1.1149,0.52541,1.2185,2.295,6.3362,3.9324,11.372,3.7359,11.491,4.9897,9.1541,1.4297-2.6649zm104.82,10.448c0-1.4981-13.454-5.284-14.656-4.1241-0.8542,0.82442,9.6295,5.373,12.59,5.4625,1.136,0.0343,2.0656-0.56795,2.0656-1.3384zm-95.945-8.7508c-1.5713-1.3969-1.7916-1.1433-0.96612,1.1118,0.58818,1.6068,1.1707,4.1186,1.2944,5.5819,0.12377,1.4633,0.55852,0.96297,0.96612-1.1118,0.40761-2.0748-0.1749-4.5866-1.2944-5.5819zm25.014,2.7767c17.231-5.8776,46.394-6.9953,64.321-2.4651,11.51,2.9085,15.134,3.1816,12.84,0.96759-2.321-2.2401-19.964-5.685-33.553-6.5516-17.268-1.1011-36.983,2.0716-50.831,8.1801-11.536,5.0886-7.8847,5.0223,7.2233-0.1311zm-37.35-2.3365c-2.1518-6.5434-7.6787-17.653-8.4243-16.933-0.67676,0.65318,1.2822,5.6787,6.5007,16.677,2.1424,4.5152,3.3783,4.6799,1.9236,0.2563zm193.08,1.38c1.9851-1.0685,6.1217-1.9656,9.1924-1.9935,6.9279-0.063,10.257-4.0879,7.2392-8.752-1.1575-1.7888-1.5953-5.2069-1.0216-7.9756,0.60124-2.9013,0.17739-5.8066-1.0564-7.2414-2.305-2.6806-9.1895-3.2292-10.711-0.85359-0.54329,0.84841-3.1879,1.1179-5.877,0.59884-7.9056-1.526-9.9556,1.4178-9.2108,13.227,0.86878,13.775,3.802,17.104,11.445,12.99zm-7.1315-3.1658c0-1.3612,1.0114-3.2851,2.2475-4.2752,2.6441-2.1179,1.7053-8.8445-1.6043-11.495-3.9478-3.1621-2.5035-5.1361,1.7773-2.4291,5.1076,3.2299,10.609,3.315,11.854,0.18342,0.52315-1.3157,2.0292-2.3922,3.3467-2.3922,2.076,0,2.0691,0.44988-0.0522,3.3727-2.6166,3.6054-2.0541,6.8898,1.9505,11.389,2.8333,3.1833,1.2945,5.9643-1.7007,3.0735-3.0789-2.9716-9.8126-2.2111-13.994,1.5804-3.0144,2.7332-3.8244,2.9435-3.8244,0.9927zm-154.05-0.46105c1.426-1.114-2.0674-5.5902-4.3468-5.5697-5.2973,0.0477-7.3586,2.4506-5.2949,6.1723,1.6156,2.9136,2.4261,3.1449,5.541,1.5816,2.0067-1.0071,3.852-1.99,4.1006-2.1842zm87.953-2.4045c0-0.87715-0.7436-1.5948-1.6524-1.5948-0.90884,0-1.6524,0.71767-1.6524,1.5948,0,0.87715,0.7436,1.5948,1.6524,1.5948,0.90884,0,1.6524-0.71767,1.6524-1.5948zm-103.72-4.86c-0.61725-5.107-1.3732-5.508-6.2992-3.3418l-4.2832,1.8835,3.8631,3.1034c4.7854,3.8443,7.3081,3.2267,6.7193-1.6452zm22.757,3.361c0-0.82538-0.7436-1.9442-1.6524-2.4864-0.90884-0.54211-1.6524,0.13316-1.6524,1.5007s0.74359,2.4864,1.6524,2.4864c0.90884,0,1.6524-0.67531,1.6524-1.5007zm74.811-1.586c0.81725-3.0162-1.5477-4.8875-6.1768-4.8875-2.2424,0-4.5135,5.5342-2.9073,7.0844,2.24,2.1619,8.3002,0.69631,9.0842-2.1969zm-62.51,0.041c0.51101-0.79799,0.46025-2.6301-0.11279-4.0714-1.5428-3.8802-7.9418-2.4388-8.5853,1.9339-0.42729,2.9037,0.26348,3.5884,3.6205,3.5884,2.2817,0,4.5666-0.6529,5.0776-1.4509zm40.957-4.0089c0.57693-2.9128-0.0735-4.0767-2.64-4.7245-3.3664-0.84964-5.928,1.2436-5.9771,4.8842-0.0215,1.5985,2.0786,2.6849,6.8049,3.5203,0.57568,0.10175,1.3912-1.5542,1.8122-3.68zm-33.429,0.67528c0-0.87716-0.7436-1.5948-1.6524-1.5948-0.90884,0-1.6524,0.71767-1.6524,1.5948,0,0.87715,0.7436,1.5948,1.6524,1.5948,0.90884,0,1.6524-0.71767,1.6524-1.5948zm13.22-2.3922c0-3.3239-0.78641-3.987-4.7282-3.987-4.1523,0-4.632,0.48558-3.9385,3.987,0.57924,2.9245,1.8394,3.9871,4.7282,3.9871,3.0994,0,3.9385-0.84942,3.9385-3.9871zm28.091,2.3922c0-0.87716-0.74359-1.5948-1.6524-1.5948-0.90885,0-1.6524,0.71767-1.6524,1.5948,0,0.87715,0.74359,1.5948,1.6524,1.5948,0.90884,0,1.6524-0.71767,1.6524-1.5948zm27.261-1.5806c1.2864-3.9118,0.20042-5.7636-4.0019-6.8242-2.4327-0.61399-3.6353,0.30104-4.863,3.7002-1.1748,3.2524-1.0868,4.7302,0.31439,5.2818,4.2798,1.6846,7.5592,0.85709,8.5506-2.1578zm-138.75-3.1028c-1.3801-2.5758-3.3324-5.1743-4.3384-5.7743-1.9098-1.1391,0.73529,4.6316,3.8796,8.4641,2.8405,3.4622,3.0613,2.1674,0.45882-2.6898zm34.819,0.3308c-1.6797-1.6212-3.0657,0.81956-1.6875,2.9718,1.0411,1.6258,1.4303,1.627,1.99,0.006,0.3827-1.1081,0.24656-2.4482-0.30253-2.9782zm56.011,2.7577c0.56169-0.87715-0.13802-1.5948-1.5549-1.5948s-2.5762,0.71767-2.5762,1.5948c0,0.87716,0.69971,1.5948,1.5549,1.5948,0.8552,0,2.0145-0.71767,2.5762-1.5948zm-42.454-1.3718c1.3804-0.84492,1.7758-2.8055,1.0944-5.4257-0.9818-3.7754-1.459-3.9709-5.9806-2.4496-3.2887,1.1065-4.607,2.4246-3.9862,3.9858,0.5101,1.2829,0.92745,2.9916,0.92745,3.797,0,1.8165,5.0327,1.8751,7.9449,0.0925zm-36.863-3.4126c-0.5617-0.87715-1.3492-1.5948-1.75-1.5948-0.40079,0-0.7287,0.71767-0.7287,1.5948,0,0.87715,0.78748,1.5948,1.75,1.5948,0.96248,0,1.2904-0.71767,0.7287-1.5948zm8.175-1.731c-0.53205-0.83086-1.6717-1.0905-2.5326-0.57701-0.86087,0.51348-1.1299,1.6134-0.59786,2.4442,0.53205,0.83086,1.6717,1.0905,2.5326,0.57701,0.86086-0.51348,1.1299-1.6134,0.59786-2.4442zm96.755,1.0641c0-1.244,0.41646-3.3092,0.92545-4.5894,0.65589-1.6496-0.52895-2.5336-4.0677-3.0349-3.298-0.46717-5.2952,0.0523-5.8828,1.5302-1.6116,4.0534-0.93204,6.5165,2.0022,7.2565,5.4186,1.3667,7.0229,1.1011,7.0229-1.1624zm8.2622,0.7611c0-0.82539-0.7436-1.9442-1.6524-2.4864-0.90884-0.54211-1.6524,0.13317-1.6524,1.5007s0.7436,2.4864,1.6524,2.4864c0.90884,0,1.6524-0.67531,1.6524-1.5007zm25.704-1.7863c2.6378-2.8131,2.7343-3.4994,0.66922-4.76-3.8098-2.3258-6.2361-1.7811-7.3656,1.6535-1.08,3.2841,0.0461,6.3936,2.3154,6.3936,0.71435,0,2.6858-1.4792,4.381-3.287zm-119.14-0.16c4.4516-1.9576,5.1148-3.8667,2.6494-7.6274-2.1494-3.2788-10.772,0.47148-9.3435,4.0639,0.54355,1.3671,0.98827,3.1446,0.98827,3.95,0,1.8892,0.62746,1.8467,5.7058-0.38644zm40.259-3.3323c0.4698-3.9407,0.009-4.3858-4.5442-4.3858-5.149,0-6.1568,1.7829-4.0305,7.1306,1.7264,4.3422,7.968,2.3442,8.5748-2.7448zm-22.129-14.139c11.431-2.675,19.907-3.4999,35.652-3.47,23.285,0.0442,38.213,2.6686,57.436,10.097,15.27,5.9011,19.8,5.4385,5.4713-0.55883-33.214-13.902-76.154-16.102-109.77-5.6224-12.615,3.9322-34.316,14.067-33.351,15.575,0.39462,0.61624,7.2085-1.9468,15.142-5.6956s21.173-8.3952,29.421-10.325zm9.213,16.133c0-0.87715-1.1593-1.5948-2.5762-1.5948s-2.1166,0.71767-1.5549,1.5948c0.56169,0.87715,1.721,1.5948,2.5762,1.5948s1.5549-0.71767,1.5549-1.5948zm36.354-3.1896c0-4.2529-0.55081-4.7845-4.9573-4.7845s-4.9573,0.53161-4.9573,4.7845,0.55081,4.7845,4.9573,4.7845,4.9573-0.5316,4.9573-4.7845zm7.3488-0.1362c-0.53204-0.83085-1.6717-1.0905-2.5326-0.57701-0.86087,0.51349-1.1299,1.6134-0.59786,2.4443,0.53204,0.83085,1.6717,1.0905,2.5326,0.577,0.86087-0.51348,1.1299-1.6134,0.59786-2.4442zm-22.221,0.1362c0-0.87715-0.74359-1.5948-1.6524-1.5948-0.90884,0-1.6524,0.71767-1.6524,1.5948,0,0.87715,0.7436,1.5948,1.6524,1.5948,0.90885,0,1.6524-0.71767,1.6524-1.5948zm51.226-1.4644c0-0.80542,0.42426-2.5314,0.94281-3.8356,1.3028-3.2767-8.9951-5.5585-11.039-2.4459-2.2399,3.4118-1.7177,5.855,1.4204,6.6465,5.11,1.2888,8.6753,1.1388,8.6753-0.36502zm8.2622-0.13044c0-0.87716-0.7436-1.5948-1.6524-1.5948-0.90884,0-1.6524,0.71766-1.6524,1.5948,0,0.87715,0.7436,1.5948,1.6524,1.5948,0.90884,0,1.6524-0.71767,1.6524-1.5948zm-81.268-6.088c0.43926-2.8957-0.27848-3.481-4.2688-3.481-5.9636,0-6.7172,0.70933-5.78,5.4408,0.63612,3.2116,1.3977,3.6042,5.1339,2.6461,2.7706-0.71047,4.5815-2.4075,4.915-4.6059zm-14.574,2.8983c0-0.87715-0.74359-1.5948-1.6524-1.5948-0.90885,0-1.6524,0.71767-1.6524,1.5948,0,0.87716,0.74359,1.5948,1.6524,1.5948,0.90884,0,1.6524-0.71767,1.6524-1.5948zm185.07-0.79741c-1.1314-1.3157-2.3145-2.3922-2.6291-2.3922-0.31461,0-0.1441,1.0765,0.37911,2.3922,0.52315,1.3157,1.7062,2.3922,2.6291,2.3922,0.96719,0,0.80659-1.0134-0.37912-2.3922zm-121.71-2.7213c1.1597-4.28,1.2522-4.1838-5.2326-5.4356-4.801-0.92671-5.2499-0.66537-5.2499,3.0561,0,3.7819,1.8148,5.1361,7.6564,5.7132,1.03,0.10175,2.3019-1.3984,2.8262-3.3337zm79.901,2.2561c1.1958-0.73365,1.4294-2.0709,0.59073-3.3807-1.0873-1.6979-1.7962-1.43-3.2758,1.2382-1.9256,3.4727-0.86386,4.3199,2.6851,2.1425zm19.008-3.8408c-1.5423-1.4885-1.9829-1.0632-1.9829,1.9138s0.44066,3.4023,1.9829,1.9138c1.5423-1.4885,1.5423-2.3391,0-3.8276zm14.851,4.014c-1.1929-0.4607-2.6181-0.40405-3.1672,0.12583-0.54909,0.52994,0.42689,0.90688,2.1688,0.83763,1.925-0.0765,2.3166-0.45443,0.99835-0.96353zm-137.46-4.4924c0-3.4621-0.73133-3.987-5.5544-3.987-5.0336,0-5.4804,0.37379-4.7647,3.987,0.62487,3.1548,1.7843,3.987,5.5544,3.987,3.9807,0,4.7647-0.65603,4.7647-3.987zm33.049,2.3922c0-0.87715-1.1593-1.5948-2.5762-1.5948s-2.1166,0.71767-1.5549,1.5948c0.5617,0.87715,1.721,1.5948,2.5762,1.5948,0.85521,0,1.5549-0.71767,1.5549-1.5948zm-48.747-1.5948c-0.5617-0.87715-1.721-1.5948-2.5762-1.5948-0.85521,0-1.5549,0.71767-1.5549,1.5948,0,0.87715,1.1593,1.5948,2.5762,1.5948s2.1166-0.71767,1.5549-1.5948zm23.96-1.5948c0-0.87715-0.7436-1.5948-1.6524-1.5948-0.90884,0-1.6524,0.71767-1.6524,1.5948,0,0.87715,0.7436,1.5948,1.6524,1.5948,0.90884,0,1.6524-0.71767,1.6524-1.5948zm107.41,0c1.3633-0.85029,1.7351-1.546,0.82622-1.546-0.90884,0-2.7678,0.69568-4.1311,1.546-1.3633,0.85029-1.7351,1.546-0.82622,1.546,0.90885,0,2.7678-0.69568,4.1311-1.546zm-149.6-15.151c15.372-14.397,23.617-36.071,21.841-57.414-0.94895-11.407-5.3339-26.315-7.7403-26.315-0.7361,0,0.0943,3.6389,1.8453,8.0865,11.969,30.402,0.40083,62.645-30.766,85.749l-4.9573,3.6749,5.632-2.9042c3.0976-1.5973,9.4632-6.4925,14.146-10.878zm164.89,12.49c-1.136-0.44242-2.995-0.44242-4.1311,0s-0.20656,0.80441,2.0655,0.80441,3.2016-0.36199,2.0656-0.80441zm-2.2558-2.1116c1.326-0.0128,0.52141-1.3632-1.9131-3.2114-2.3108-1.7543-5.0932-3.1896-6.1832-3.1896-1.1282,0-1.5497-1.0865-0.97869-2.5227,0.55166-1.3875,1.091-4.4376,1.1985-6.778l0.19552-4.2553,1.0438,4.3418c0.59673,2.4821,1.7516,3.8483,2.6963,3.1896,2.6348-1.837,9.2467-16.36,8.1956-18.002-1.9918-3.1105-5.3248-1.1548-16.416,9.6326l-11.437,11.123,4.0453,4.2018c4.9058,5.0956,9.5445,7.1572,13.96,6.2045,1.8177-0.39222,4.3347-0.72294,5.5933-0.73491zm11.029-0.17481c1.7826-2.7838-3.4973-6.8612-6.9927-5.4001-2.741,1.1458-2.7613,1.3224-0.21972,1.9128,1.637,0.38029,2.4216,1.6028,1.8888,2.9428-1.0754,2.7047,3.6321,3.1861,5.3237,0.54446zm-187.12-4.4722c3.7991-2.5439,8.8773-6.6705,11.285-9.1702,5.1886-5.3874,14.632-19.609,14.61-22.002-0.009-0.92471-2.1515,1.907-4.7622,6.2928-4.5307,7.6114-17.803,20.896-26.619,26.644-2.2721,1.4813-3.5215,2.731-2.7764,2.777,0.74509,0.0461,4.4631-1.9977,8.2622-4.5416zm20.253-4.0164c15.23-15.34,23.734-41.271,20.583-62.764-1.6398-11.187-6.1136-25.362-8.4428-26.752-2.1973-1.3107-1.9058,0.42229,2.0248,12.037,2.4071,7.1126,3.5364,14.621,3.5978,23.922,0.13796,20.883-6.6556,37.463-21.718,53.004-4.0505,4.1793-6.3917,7.5987-5.2027,7.5987s5.31-3.171,9.1577-7.0468zm-20.748-0.80485c9.7433-7.0657,17.592-16.943,23.236-29.239,3.0589-6.6646,3.8537-11.274,3.9164-22.715,0.0769-14.026-2.6742-26.315-5.8911-26.315-1.0039,0-1.0082,1.0356-0.0116,2.8327,0.86394,1.558,2.3724,7.12,3.3522,12.36,4.5686,24.434-8.3382,50.516-32.898,66.48-2.2721,1.4769-3.2763,2.723-2.2315,2.769,1.0448,0.0461,5.7821-2.7319,10.527-6.1731zm171.18-21.851,30.379-28.107,0-11.388,0-11.388-20.585-19.82c-13.611-13.105-20.844-19.04-21.348-17.519-0.41977,1.2654-1.2423,6.2478-1.8278,11.072-2.6981,22.231-15.924,47.508-35.149,67.177l-10.582,10.826,4.9226,6.8494c6.0714,8.4478,19.644,20.405,23.162,20.405,0.35714,0,14.32-12.648,31.029-28.107zm-41.196,17.082c-4.8306-4.4092-9.7691-9.7954-10.975-11.969-2.0793-3.7498-1.6376-4.53,8.6137-15.216,13.607-14.184,26.261-37.728,31.322-58.275,1.9444-7.8944,3.8014-14.676,4.1265-15.071,0.32515-0.39459,8.7461,7.1287,18.713,16.718l18.122,17.436-0.0132,9.5961-0.0132,9.5961-27.52,25.517c-15.136,14.034-28.887,26.455-30.557,27.601-2.6894,1.8452-4.0434,1.1656-11.82-5.9329zm12.088-10.978c0-1.8859,1.0399-1.5547,4.3691,1.3914l4.3691,3.8663-1.0229-5.1832c-0.96853-4.9074-0.76142-5.1832,3.8931-5.1832,5.658,0,6.5558-2.4724,1.4642-4.032-2.4566-0.75251-4.1511-0.0938-5.8772,2.2848-2.8445,3.9195-8.2741,4.3376-12.168,0.93696-2.4701-2.1575-3.0629-2.0754-5.7566,0.79741-2.9354,3.1305-2.9042,3.2026,1.3842,3.2026,3.6327,0,4.3872,0.71928,4.3872,4.1823,0,3.5368,0.38257,3.8759,2.4787,2.197,1.3633-1.092,2.4787-3.0991,2.4787-4.4603zm3.7418-7.6568c1.5512-1.4971-0.55995-5.426-2.9156-5.426-2.3557,0-4.4668,3.9288-2.9156,5.426,0.54327,0.52435,1.8553,0.95334,2.9156,0.95334s2.3724-0.42899,2.9156-0.95334zm-9.0826-5.426c2.4377-3.7672,9.0285-4.1956,11.967-0.77774,1.5775,1.8345,2.6149,1.9787,4.3334,0.60214,3.5286-2.8264,2.6558-5.0507-1.5794-4.0248-3.5042,0.84882-3.7842,0.48162-3.2123-4.2129l0.62644-5.1427-4.0154,4.5586c-2.554,2.8996-4.4274,3.9153-5.1474,2.7909-1.9689-3.0746-4.6669-1.914-3.7152,1.5982,0.65742,2.4264,0.0245,3.5899-2.2674,4.1684-1.7487,0.44133-2.772,1.4385-2.2742,2.2159,1.4235,2.223,3.05,1.6762,5.284-1.7761zm27.578,0.1102c1.2221-1.9084-1.8865-3.7992-4.0875-2.4864-1.848,1.1023-0.63481,3.971,1.6794,3.971,0.80157,0,1.8852-0.66808,2.4081-1.4846zm5.1484-10.9c0.97514-0.64443,2.2802-2.4958,2.9001-4.114,0.61993-1.6183,2.5368-3.2981,4.2597-3.733,1.7229-0.43483,3.4712-2.5001,3.885-4.5894,0.6937-3.5023,0.14525-3.3081-7.0274,2.4877-10.956,8.853-12.808,11.176-8.8844,11.145,1.7017-0.0128,3.8919-0.55168,4.8671-1.1961zm-4.9988-25.53c-1.2757-1.2875-5.6563,1.895-6.4034,4.652-0.47653,1.7587-2.4088,3.587-4.2939,4.0627-2.134,0.5386-3.4147,2.1491-3.3935,4.2674,0.0279,2.7922,1.3331,1.9724,7.2785-4.5718,3.9845-4.3858,7.05-8.1704,6.8123-8.4104zm3.1552,12.508c1.2221-1.9084-1.8864-3.7992-4.0875-2.4864-1.848,1.1023-0.63482,3.971,1.6794,3.971,0.80157,0,1.8852-0.66809,2.4081-1.4846zm25.305-7.7853c0.35975-1.0416-0.52327-1.8938-1.9623-1.8938s-2.6164,1.1363-2.6164,2.5251c0,2.8163,3.5573,2.3259,4.5786-0.63128zm-10.155-7.7073c2.0685-4.778,2.1271-6.0519,0.3288-7.1523-3.9292-2.4043-4.6666-1.4895-4.6666,5.789,0,3.9472,0.40974,7.1767,0.91055,7.1767,0.50079,0,2.0431-2.616,3.4273-5.8134zm9.7079-5.3503c-1.645-1.7543-3.7345-3.1896-4.6433-3.1896-0.90884,0-0.30654,1.4353,1.3384,3.1896,1.645,1.7543,3.7345,3.1896,4.6433,3.1896,0.90884,0,0.30654-1.4353-1.3384-3.1896zm-16.588-2.1503c4.9196-3.4719,1.618-6.2692-4.0567-3.4371-2.6173,1.3063-5.2216,3.0978-5.7873,3.9812-1.5294,2.3883,6.3022,1.9554,9.844-0.54413zm-7.3726-7.5128c0-0.82538-1.1154-1.5007-2.4787-1.5007-2.5554,0-3.2829,1.8818-1.422,3.6779,1.3202,1.2742,3.9006-0.16616,3.9006-2.1772zm15.698,1.689c-0.5617-0.87715-1.3492-1.5948-1.75-1.5948-0.40078,0-0.72869,0.71767-0.72869,1.5948,0,0.87715,0.78749,1.5948,1.75,1.5948,0.96248,0,1.2904-0.71767,0.72869-1.5948zm-8.2269-7.9364c-3.3838-3.6087-5.8189-4.1776-5.8189-1.3594,0,3.3018,5.383,7.9281,7.1926,6.1815,1.1016-1.0632,0.6437-2.6706-1.3738-4.8222zm-101.66,92.368c0-0.92892-0.7436-1.2454-1.6524-0.70329-0.90885,0.54211-1.6524,1.3021-1.6524,1.689,0,0.38681,0.74359,0.70328,1.6524,0.70328,0.90884,0,1.6524-0.76002,1.6524-1.6889zm28.505-0.63316c0.22721-0.83858-2.7472-2.4078-6.6098-3.4871-5.6873-1.5892-7.0229-1.5706-7.0229,0.0979,0,1.1331,2.4167,2.8045,5.3704,3.714,6.1302,1.8878,7.6792,1.8268,8.2622-0.32484zm-43.377-0.96166c0-0.92892-0.74359-1.2454-1.6524-0.70329-0.90884,0.54211-1.6524,1.3021-1.6524,1.689,0,0.38681,0.74359,0.70328,1.6524,0.70328,0.90885,0,1.6524-0.76003,1.6524-1.6889zm8.2304-2.3351c-1.7148-1.9942-2.4258-2.0836-3.4798-0.43762-0.84734,1.3232-0.30446,2.4276,1.5066,3.0649,3.84,1.3513,4.5647,0.38633,1.9733-2.6273zm123.96,2.5431c0-1.7819-4.6817-6.4932-6.4524-6.4932-3.3198,0-3.2288,2.5541,0.18129,5.0866,4.2472,3.1543,6.2711,3.6082,6.2711,1.4066zm-201.06-36.11c6.5481-17.482,16.985-33.495,31.207-47.877l9.6065-9.7147-4.7425-6.3185c-2.6084-3.4752-8.7085-9.6669-13.556-13.759l-8.8134-7.441-10.002,9.1304c-5.5009,5.0217-19.407,17.746-30.904,28.275l-20.902,19.145-0.55275,11.548-0.55275,11.548,20.582,19.912,20.582,19.912,2.8075-13.934c1.5441-7.6635,3.9019-16.855,5.2394-20.427zm-29.878,10.054-16.908-16.374,0-10.614,0-10.614,8.0956-6.9016c4.4526-3.7959,17.738-15.685,29.523-26.419l21.428-19.517,6.8244,4.7712c3.7534,2.6242,9.0431,7.7272,11.755,11.34l4.9305,6.569-10.715,11.17c-17.278,18.012-28.046,38.271-33.907,63.794-1.1582,5.0436-2.5584,9.1702-3.1116,9.1702-0.55325,0-8.6145-7.3684-17.914-16.374zm10.235-1.2989c-2.1211-2.2621-3.4337-2.649-4.7138-1.3893-1.2705,1.2502-0.61526,2.6592,2.3081,4.9637,4.9269,3.8839,6.7956,1.1073,2.4057-3.5744zm8.8316-4.3555c0.35975-1.0416-0.52327-1.8938-1.9623-1.8938s-2.6164,1.1363-2.6164,2.5251c0,2.8163,3.5573,2.3259,4.5786-0.63128zm-16.558-0.69773c-0.37826-1.0964-2.0896-2.2557-3.8031-2.5762-2.6953-0.50409-2.8167-0.2353-0.90007,1.9935,2.6211,3.0481,5.6846,3.4276,4.7032,0.58266zm9.9593-3.6788c4.2212-2.8535,4.9614-6.31,1.0404-4.8578-8.9591,3.318-9.9794,3.0166-9.2828-2.7422,0.90975-7.521-2.2529-8.7685-4.8251-1.9033-2.0515,5.4756-5.1725,7.2097-7.2203,4.0118-0.5617-0.87716-1.8362-1.5948-2.8323-1.5948-0.99606,0-0.58153,1.3112,0.92119,2.9138,1.8014,1.9211,4.3132,2.6898,7.373,2.2564,2.9062-0.41167,5.4533,0.28753,6.8146,1.8707,2.697,3.1364,3.4327,3.1406,8.0113,0.0455zm-19.462-15.858c0-1.3157-1.1154-2.3922-2.4787-2.3922-2.5804,0-3.2784,1.8862-1.377,3.7212,1.9014,1.8351,3.8557,1.1614,3.8557-1.329zm31.396-1.5044c0-1.266,1.5688-3.3623,3.4861-4.6584,1.9174-1.2961,3.2098-3.1568,2.872-4.1348-0.33777-0.97799-3.5446,1.1183-7.1263,4.6584-5.8635,5.7954-6.1496,6.4366-2.872,6.4366,2.0706,0,3.6402-0.99254,3.6402-2.3018zm-6.0928-9.0009c-1.2936-1.2485-2.1072-1.2485-2.9067,0-1.719,2.6844,0.71253,5.5852,2.9067,3.4676,1.2936-1.2485,1.2936-2.2191,0-3.4676zm-8.7792-5.4429c6.3041-6.1994,6.8166-7.1767,3.7639-7.1767-2.4068,0-3.7024,1.1445-4.062,3.5884-0.29042,1.9736-2.2011,4.2968-4.246,5.1626-2.0449,0.86586-3.718,2.4806-3.718,3.5884,0,2.8875,0.20879,2.7571,8.2622-5.1626zm29.692-11.07c-0.0285-0.92879-1.962-3.0323-4.2964-4.6745-4.1855-2.9443-4.2939-2.9366-7.7972,0.55454l-3.5526,3.5403,5.3704-1.08c5.201-1.0459,5.3721-0.91249,5.423,4.2299,0.0496,5.0143,0.18761,5.1376,2.4787,2.2141,1.3344-1.7027,2.4027-3.8557,2.3742-4.7845zm7.2389-1.7398c-0.99606-2.5052-2.658-2.991-4.4186-1.2918-1.4581,1.4073,2.1867,5.5195,3.9564,4.4639,0.76617-0.45699,0.97416-1.8844,0.46219-3.1721zm-24.47-0.85243c1.5208-2.3749-0.24245-3.6662-3.4063-2.4944-1.4601,0.54074-2.1918,1.7059-1.6262,2.5893,1.3394,2.0917,3.6603,2.0479,5.0325-0.0949zm20.296-6.804c0.36024-1.7927-0.58172-2.6588-2.8918-2.6588-1.8843,0-3.426,0.9569-3.426,2.1264,0,4.8845,5.3526,5.3356,6.3178,0.53235zm11.033,2.1257c-0.56169-0.87715-2.4646-1.5948-4.2286-1.5948s-3.2074,0.71767-3.2074,1.5948c0,0.87715,1.9029,1.5948,4.2286,1.5948,2.3983,0,3.7866-0.6903,3.2074-1.5948zm-20.658-3.99c0-1.4885-1.5606-2.3922-4.1311-2.3922-5.1419,0-5.4493,2.7228-0.41311,3.659,2.0449,0.38013,3.9039,0.78888,4.1311,0.90833,0.22721,0.11945,0.41311-0.85932,0.41311-2.175zm20.729-4.1017c1.8041-2.8174-0.64026-3.701-4.9705-1.7968-3.9265,1.7266-4.0468,1.613-3.1053-2.9306,1.1218-5.4134-2.4785-6.8281-3.9121-1.5372-1.0498,3.8745-1.8275,3.9493-5.7191,0.55023-2.8583-2.4965-3.0219-2.4008-3.0219,1.7677,0,3.8974,0.47491,4.2921,4.1059,3.4125,2.8485-0.69,4.9992-0.0874,7.0229,1.9676,2.9378,2.9833,7.1772,2.3503,9.6001-1.4334zm50.326,83.538c0-1.1481-0.82315-2.0874-1.8292-2.0874-1.0061,0-1.3904,1.1037-0.85408,2.4526,0.55397,1.3933-0.0793,2.8431-1.4662,3.3568-1.3427,0.49728-1.9603,1.6554-1.3724,2.5735,1.2232,1.9102,5.5218-2.9906,5.5218-6.2954zm12.393,5.8867c-0.56169-0.87715-1.3492-1.5948-1.75-1.5948-0.40078,0-0.72869,0.71767-0.72869,1.5948,0,0.87715,0.78748,1.5948,1.75,1.5948,0.96247,0,1.2904-0.71767,0.72869-1.5948zm-32.27-1.5325c1.3369-0.81602,1.929-1.968,1.3157-2.5599-1.5158-1.4629-15.824,0.71355-17.025,2.5898-1.2506,1.9529,12.504,1.9268,15.709-0.0298zm148.77-1.4865c0-3.1958-4.1575-5.6204-6.8665-4.0045-0.94053,0.56102-0.42803,2.2225,1.2314,3.9922,3.614,3.8542,5.6351,3.8586,5.6351,0.0128zm-120.63,0.16874c0-0.69047-1.4872-1.3636-3.3049-1.4957-1.8177-0.13221-3.3049,0.4328-3.3049,1.2554,0,0.82265,1.4872,1.4957,3.3049,1.4957s3.3049-0.56495,3.3049-1.2554zm7.3123-3.7222c-1.0709-1.6723-4.0074-0.32984-4.0074,1.832,0,0.79786,1.1111,1.0391,2.4692,0.53618,1.358-0.50296,2.0503-1.5686,1.5383-2.3682zm-4.0456-5.1711c0.92986-2.5744,1.6906-4.7787,1.6906-4.8984,0-0.11977-1.4872-0.21768-3.3049-0.21768s-3.3049,0.56388-3.3049,1.2531c0,0.68919,0.74359,1.2531,1.6524,1.2531,0.90884,0,1.6524,1.0765,1.6524,2.3922,0,2.8711-2.7512,3.1978-3.7038,0.43984-0.37099-1.0742-1.065-0.51051-1.5428,1.2531-1.4583,5.3821,4.876,4.0201,6.8608-1.4752zm107.45,3.6752c0-0.92892-0.7436-1.2454-1.6524-0.70329-0.90884,0.54211-1.6524,1.3021-1.6524,1.689,0,0.38681,0.7436,0.70328,1.6524,0.70328,0.90884,0,1.6524-0.76002,1.6524-1.6889zm-115.67-4.7845c0-0.82538-0.7436-1.5007-1.6524-1.5007-0.90884,0-1.6524,1.1189-1.6524,2.4864s0.7436,2.0428,1.6524,1.5007c0.90884-0.54211,1.6524-1.661,1.6524-2.4864zm13.975,1.7992c0.52289-0.81654,0.27289-1.8889-0.55554-2.3831-0.82844-0.49414-1.9326,0.17393-2.4538,1.4846-1.0273,2.5838,1.4554,3.325,3.0093,0.89845zm110.78-0.1102c-0.5617-0.87715-1.7649-1.5948-2.6737-1.5948-0.90884,0-1.1929,0.71767-0.63118,1.5948,0.56169,0.87715,1.7648,1.5948,2.6737,1.5948,0.90884,0,1.1929-0.71767,0.63119-1.5948zm-5.7835-1.5948c0-0.87715-0.7436-1.5948-1.6524-1.5948-0.90884,0-1.6524,0.71767-1.6524,1.5948,0,0.87715,0.7436,1.5948,1.6524,1.5948,0.90884,0,1.6524-0.71767,1.6524-1.5948zm-117.98-7.5422c-1.6797-1.6212-3.0657,0.81956-1.6875,2.9718,1.0411,1.6258,1.4303,1.627,1.99,0.006,0.3827-1.1081,0.24656-2.4483-0.30253-2.9782zm15.526,2.7577c0-0.87715-0.7436-1.5948-1.6524-1.5948-0.90884,0-1.6524,0.71767-1.6524,1.5948,0,0.87715,0.7436,1.5948,1.6524,1.5948,0.90884,0,1.6524-0.71767,1.6524-1.5948zm106.62-1.715c1.2383-3.7654,0.18767-5.4809-2.4082-3.9324-2.1673,1.2928-2.3491,7.2423-0.22129,7.2423,0.8476,0,2.0309-1.4894,2.6295-3.3098zm-111.58-1.4746c0-0.87716-1.6731-1.5444-3.718-1.4827-3.5476,0.10702-3.5666,0.17489-0.41311,1.4827,1.8177,0.75385,3.4908,1.4211,3.718,1.4827,0.22721,0.0616,0.41311-0.60557,0.41311-1.4827zm106.17-2.4491c0.76064-3.8403,0.64748-3.9099-2.247-1.3817-1.6764,1.4642-2.6499,3.284-2.1633,4.0439,1.6506,2.5777,3.6063,1.3972,4.4103-2.6622zm-99.562-0.0372c0-0.38681-0.7436-0.70329-1.6524-0.70329-0.90884,0-1.6524,0.76003-1.6524,1.689,0,0.92892,0.7436,1.2454,1.6524,0.70328,0.90884-0.54211,1.6524-1.3021,1.6524-1.6889zm26.438,2.0876c-0.00047-0.21929-1.5746-4.3459-3.4982-9.1702-4.9559-12.43-6.0316-33.248-2.3496-45.472,4.0926-13.587,9.9981-23.996,18.794-33.127,4.3512-4.5166,6.1539-7.2118,4.1379-6.1867-13.891,7.0635-28.69,37.258-28.626,58.407,0.0393,12.966,6.5317,35.947,10.155,35.947,0.76295,0,1.3868-0.17942,1.3864-0.39871zm0.9942-9.3355c-7.5332-17.401-6.6344-38.73,2.4096-57.187,4.9539-10.11,20.966-27.919,26.674-29.667,1.7716-0.54267,2.8623-1.3329,2.4238-1.756-1.6933-1.6342-10.643,4.3291-18.201,12.128-15.57,16.066-23.261,40.086-19.54,61.03,1.9842,11.167,6.2667,23.134,7.7624,21.69,0.45442-0.43858-0.23348-3.2452-1.5287-6.2369zm2.1068-7.8773c-8.6918-26.512,2.4475-57.406,26.561-73.666,4.8999-3.3038,8.1499-6.007,7.2222-6.007-2.7671,0-14.14,8.5788-20.701,15.615-15.651,16.785-21.777,42.702-15.183,64.235,2.8164,9.1972,3.9224,11.62,4.882,10.693,0.32669-0.3153-0.92523-5.2073-2.782-10.871zm-86.376,3.69c-0.54909-0.52994-0.93964,0.41201-0.86789,2.0932,0.0793,1.8579,0.47085,2.2358,0.99835,0.96355,0.47734-1.1513,0.41863-2.5268-0.13046-3.0568zm90.461-6.0817c-3.5139-12.864-2.1698-29.774,3.2796-41.262,4.8255-10.173,15.553-21.989,25.562-28.158,3.9098-2.4094,6.4523-4.7724,5.6499-5.251-2.2009-1.3128-17.46,9.1673-23.367,16.048-12.353,14.391-18.235,35.08-15.027,52.859,1.7741,9.8327,4.4984,17.194,5.8725,15.868,0.34373-0.33176-0.54294-4.8786-1.9704-10.104zm-90.64-27.38c-1.4585-4.842-2.9523-8.5136-3.3196-8.1591-0.36731,0.35449,0.4203,4.134,1.7502,8.399s2.5658,13.202,2.7464,19.861l0.32833,12.106,0.57319-11.702c0.37024-7.5584-0.36574-14.819-2.0786-20.505zm-78.367-6.5782c-3.7908-0.5672-4.4991-5.2797-1.8168-12.089,1.0814-2.7452,1.015-4.377-0.20808-5.1065-2.6226-1.5644-0.69611-20.294,2.5471-24.762,3.1747-4.3744,3.3922-6.1747,0.74601-6.1747-2.8252,0-7.9792-4.9035-7.9792-7.5914,0-1.7325,1.6422-2.1614,6.547-1.71,6.2747,0.57752,6.5046,0.43524,5.5279-3.4208-0.56052-2.2129-1.572-4.2383-2.2477-4.5009-1.5074-0.58586-0.022-12.828,2.0224-16.667,0.81741-1.535,2.3895-2.7954,3.4936-2.8008,1.1041-0.005,3.9997-1.013,6.4348-2.2392,2.4351-1.2261,4.903-1.7703,5.4843-1.2093,0.58129,0.56102,3.2416,1.1261,5.9118,1.2557,6.2119,0.30152,9.3064,2.8294,10.641,8.6921,0.58505,2.5708,1.8393,4.6743,2.7872,4.6743,1.0546,0,0.93192,0.92051-0.31617,2.3719-1.1218,1.3046-1.6055,3.4638-1.0749,4.7983,1.7948,4.5141-1.9006,10.386-7.1775,11.404-2.7415,0.52918-4.9846,1.5901-4.9846,2.3576,0,1.7292-0.70431,1.809,8.9379-1.014,4.4614-1.3062,9.1089-2.375,10.328-2.375,3.7119,0,2.4859,4.2787-2.645,9.2306-3.4302,3.3106-4.5895,5.6938-3.9384,8.0968,0.50746,1.8729,1.3936,3.4033,1.9693,3.4008,0.57564-0.002,7.8097-6.0581,16.076-13.457l15.029-13.453,1.0371-14.851c0.57038-8.1681,2.192-19.157,3.6036-24.42,3.7122-13.84,13.998-33.742,22.876-44.262l7.6964-9.1196v-14.396-14.396l-58.248,0.41911-58.248,0.4191-0.42595,98.019-0.42594,98.019,6.7238-6.3163c5.9868-5.624,6.3504-6.3722,3.3177-6.826zm28.029-97.776c-3.1595-5.3232-10.803-15.714-16.986-23.09l-11.242-13.412,10.376-12.347c5.707-6.7908,13.351-16.826,16.986-22.301,6.1764-9.3011,9.0884-12.022,9.0884-8.4913,0,2.3375,18.82,28.898,26.04,36.751l6.5087,7.0787-8.4626,9.6353c-4.6544,5.2994-12.446,15.556-17.315,22.793-4.8686,7.2365-8.9417,13.136-9.0512,13.11-0.10954-0.0261-2.7842-4.4028-5.9438-9.726zm-24.826,94.205c0-0.92892-0.7436-1.2454-1.6524-0.70328-0.90884,0.54211-1.6524,1.3021-1.6524,1.689,0,0.3868,0.7436,0.70328,1.6524,0.70328,0.90884,0,1.6524-0.76003,1.6524-1.689zm7.9318-6.4823c-2.2071-1.3165-4.56,1.1533-4.6016,4.83-0.0191,1.6957,0.78807,1.5303,3.3186-0.68,2.4992-2.1829,2.8233-3.2312,1.2829-4.15zm-7.1055-0.3345c0-4.157-3.2403-3.8961-3.857,0.31053-0.37854,2.5819,0.14101,3.543,1.6524,3.0568,1.2125-0.39008,2.2046-1.9054,2.2046-3.3673zm116.42-4.31c1.0851-3.3408,0.77517-4.044-1.782-4.044-1.7025,0-3.0955,0.56388-3.0955,1.2531,0,0.68919,0.7436,1.2531,1.6524,1.2531,0.90884,0,1.6524,0.79444,1.6524,1.7654,0,0.97099-1.0421,1.3795-2.3158,0.90777-1.3589-0.50329-2.6472,0.36538-3.1178,2.1023-0.55554,2.0503-0.0977,2.6991,1.4896,2.1112,1.2604-0.46679,2.3503,0.12519,2.4221,1.3154,0.13658,2.2657,0.3282,1.853,3.0946-6.6643zm5.7397,1.4586c-1.0709-1.6723-4.0074-0.32984-4.0074,1.832,0,0.79786,1.1111,1.0391,2.4692,0.53618,1.358-0.50296,2.0503-1.5686,1.5383-2.3682zm-98.802-8.1054c8.4314-7.814,10.572-10.747,10.185-13.955-0.68672-5.6868-10.57-10.313-18.04-8.4448l-5.3975,1.3499,5.7421,3.4251c5.4085,3.2261,5.6935,3.8239,4.905,10.288-0.74601,6.1161-0.89655,6.3178-1.3828,1.8525-0.44314-4.0694-1.1494-4.8584-3.7592-4.1998-1.7674,0.44607-3.2387,1.6244-3.2696,2.6186-0.0308,0.99413-1.4557,4.6647-3.1663,8.1567-6.0846,12.421,0.11828,11.943,14.184-1.0918zm84.88,6.5155c0-0.87715-0.7436-1.1513-1.6524-0.60917-0.90884,0.54211-1.6524,1.7033-1.6524,2.5805,0,0.87715,0.7436,1.1513,1.6524,0.60917,0.90884-0.54211,1.6524-1.7033,1.6524-2.5805zm-107.41-3.63c0-2.4048-4.7982-4.8428-6.4306-3.2674-0.55012,0.53095,0.44203,1.9832,2.2048,3.2272,3.9632,2.797,4.2258,2.7994,4.2258,0.0402zm123.04,0.73698c0.52288-0.81655,0.27288-1.8889-0.55555-2.3831-0.82844-0.49414-1.9326,0.17394-2.4538,1.4846-1.0273,2.5838,1.4554,3.325,3.0093,0.89846zm-13.975-1.705c0-0.87715-0.78748-1.5948-1.75-1.5948-0.96248,0-1.2904,0.71767-0.7287,1.5948,0.5617,0.87715,1.3492,1.5948,1.75,1.5948,0.40079,0,0.7287-0.71767,0.7287-1.5948zm-100.81-4.09c0-0.38681-0.74359-0.70328-1.6524-0.70328-0.90884,0-1.6524,0.76002-1.6524,1.6889,0,0.92892,0.74359,1.2454,1.6524,0.70329,0.90885-0.54211,1.6524-1.3021,1.6524-1.689zm110.71,0.79242c0-0.82264-0.7436-1.4957-1.6524-1.4957-0.90885,0-1.6524-0.79445-1.6524-1.7655,0-0.97099,1.0584-1.3735,2.352-0.89436,1.5357,0.56875,2.9397-0.75583,4.0451-3.8164,1.5438-4.2741,1.3728-4.6764-1.9389-4.5616-1.9976,0.0693-2.7025,0.48789-1.5665,0.93032,1.136,0.44242,2.0655,1.8211,2.0655,3.0637,0,2.7821-3.2795,3.0408-3.3696,0.26581-0.0479-1.4751-4.8926,7.4507-4.8926,9.0139,0,0.15119,1.4872,0.38304,3.3049,0.51519,1.8177,0.13221,3.3049-0.4328,3.3049-1.2554zm-116.61-1.32c1.0492-1.6385-7.1314-7.2714-8.5591-5.8935-1.0784,1.0408,4.3686,7.3139,6.3508,7.3139,0.71434,0,1.7081-0.63918,2.2084-1.4204zm122.32-1.88c-1.4165-2.2121-2.4081-1.7996-2.4081,1.0017,0,1.3675,0.75573,2.0356,1.6794,1.4846,0.92366-0.55095,1.2516-1.6698,0.72869-2.4864zm33.834-2.8777c1.5325-2.7637,1.072-2.9338-6.1385-2.2665-9.803,0.90723-11.926,1.5499-11.926,3.6095,0,0.90908,3.6699,1.6449,8.2041,1.6449,6.3282,0,8.5829-0.68317,9.8609-2.9879zm-148.6-0.2c0-0.87715-0.69971-1.5948-1.5549-1.5948-0.85521,0-2.0145,0.71767-2.5762,1.5948-0.5617,0.87715,0.13801,1.5948,1.5549,1.5948s2.5762-0.71767,2.5762-1.5948zm-5.932-1.363c0.48004-0.74964-0.96327-3.0278-3.2074-5.0625-3.8698-3.5087-4.0802-3.5371-4.0802-0.55079,0,4.9299,5.1734,8.9147,7.2875,5.6132zm110.04-2.0149c0-0.87715-0.7436-1.1513-1.6524-0.60917-0.90884,0.54211-1.6524,1.7033-1.6524,2.5805,0,0.87716,0.7436,1.1513,1.6524,0.60917,0.90884-0.54211,1.6524-1.7033,1.6524-2.5805zm14.001,1.7132c-0.5863-0.91558-0.16733-2.7098,0.93103-3.987,1.0984-1.2773,1.2817-2.3224,0.4075-2.3224-0.87424,0-2.4365,1.7942-3.4718,3.987-1.5635,3.3118-1.452,3.987,0.6585,3.987,1.3974,0,2.061-0.7491,1.4748-1.6647zm-28.873-2.1664c0-2.1656-7.9551-5.7379-12.778-5.7379-4.2115,0-1.2336,3.7098,4.6151,5.7494,7.5102,2.619,8.1624,2.6181,8.1624-0.0115zm-87.579-2.6557c0-0.97474-1.408-1.271-3.2945-0.69313-2.4537,0.75162-3.0575,0.41321-2.366-1.326,0.51066-1.2844,0.12205-2.8162-0.86358-3.4041-0.98562-0.58791-1.3642-1.737-0.84135-2.5536,0.52289-0.81654-0.20858-1.4846-1.6255-1.4846-3.381,0-3.2932,4.566,0.15859,8.2472,2.9662,3.1633,8.8323,3.9697,8.8323,1.2142zm170.67-10.06c16.023-4.6322,39.602-15.417,36.184-16.55-1.1948-0.396-6.4,1.4362-11.567,4.0716-37.633,19.194-93.259,20.296-129.51,2.5648-8.6428-4.2269-9.5981-4.4713-9.5981-2.4552,0,1.6005,15.297,8.3018,27.265,11.945,15.32,4.6627,24.691,5.6499,48.747,5.1351,20.087-0.42992,26.308-1.1915,38.483-4.711zm-168.61-0.4485c-1.136-0.44242-2.995-0.44242-4.1311,0-1.136,0.44243-0.20655,0.80441,2.0656,0.80441,2.2721,0,3.2016-0.36198,2.0656-0.80441zm20.147-0.38987c0.50931-0.79535-0.5622-1.0705-2.3811-0.6114-3.8584,0.97382-4.3462,2.0575-0.92602,2.0575,1.3096,0,2.7978-0.65074,3.3072-1.4461zm115.35-0.12695c0.68163-0.012,1.2393-1.6917,1.2393-3.7326,0-3.216-0.66108-3.6172-4.9573-3.0086-3.994,0.56576-4.9573,1.4779-4.9573,4.6943,0,3.3616,0.58715,3.8402,3.718,3.0304,2.0449-0.5289,4.2757-0.97143,4.9573-0.98341zm-22.178-4.5179c0.48633-3.3126-0.0312-3.6456-4.9573-3.1896-4.3022,0.3982-5.6186,1.3148-6.0434,4.2078-0.48634,3.3126,0.0312,3.6456,4.9573,3.1896,4.3022-0.3982,5.6186-1.3148,6.0434-4.2078zm8.5454,2.0098c0-0.38681-0.7436-0.70329-1.6524-0.70329-0.90885,0-1.6524,0.76002-1.6524,1.6889,0,0.92892,0.74359,1.2454,1.6524,0.70329,0.90884-0.54211,1.6524-1.3021,1.6524-1.6889zm-115.68-3.19c0-1.264-0.7436-2.2981-1.6524-2.2981-0.90884,0-1.6524,1.4777-1.6524,3.2838s0.7436,2.8402,1.6524,2.2981c0.90884-0.54211,1.6524-2.0198,1.6524-3.2838zm139.56,0.78133c-1.4165-2.2121-2.4081-1.7996-2.4081,1.0017,0,1.3675,0.75573,2.0356,1.6794,1.4846,0.92367-0.55095,1.2516-1.6698,0.7287-2.4864zm13.45,2.3586c2.6667-0.69095,3.2812-1.8238,2.6682-4.9189-0.69943-3.5312-1.409-3.903-5.8228-3.051-6.2368,1.2039-6.1649,1.1265-5.0091,5.3924,0.99143,3.659,2.3428,4.0857,8.1637,2.5774zm-172.67-2.11c-1.8524-1.132-1.69-1.561,0.82622-2.1828,1.7224-0.42566,0.15723-0.83436-3.4781-0.90821-6.1558-0.12507-6.3894,0.0265-3.4022,2.2072,1.7642,1.2878,4.3668,2.3305,5.7835,2.3171,2.1299-0.0202,2.1768-0.26836,0.27054-1.4333zm39.485-1.0286c0-0.38681-1.1593-0.70329-2.5762-0.70329s-2.1091,0.72937-1.5382,1.6208c0.94322,1.473,4.1144,0.76575,4.1144-0.91754zm61.243-5.7744c-4.7784-2.0062-7.9744-1.3286-8.8424,1.875-0.68359,2.5229,0.21897,3.458,4.3515,4.508,4.4941,1.1419,5.3423,0.86756,6.1434-1.9871,0.59752-2.1292,0.007-3.699-1.6524-4.3959zm9.8114,6.6659c0-0.87715-0.7436-1.5948-1.6524-1.5948-0.90884,0-1.6524,0.71767-1.6524,1.5948,0,0.87715,0.7436,1.5948,1.6524,1.5948,0.90884,0,1.6524-0.71767,1.6524-1.5948zm-95.841-1.5948c0-0.87715-0.78748-1.5948-1.75-1.5948-0.96248,0-1.2904,0.71767-0.7287,1.5948,0.5617,0.87715,1.3492,1.5948,1.75,1.5948,0.40079,0,0.7287-0.71767,0.7287-1.5948zm168.55-1.5948c0-0.87716-0.7436-1.5948-1.6524-1.5948-0.90884,0-1.6524,0.71767-1.6524,1.5948,0,0.87715,0.7436,1.5948,1.6524,1.5948,0.90884,0,1.6524-0.71767,1.6524-1.5948zm-44.616-4.7845c0-4.2528-0.55081-4.7845-4.9573-4.7845s-4.9573,0.53161-4.9573,4.7845,0.55081,4.7845,4.9573,4.7845,4.9573-0.53161,4.9573-4.7845zm57.222,2.7344c2.7547-1.517,3.219-2.7026,2.1409-5.4678-1.2301-3.155-1.9121-3.3506-6.4092-1.8375-5.6479,1.9002-5.6956,1.9902-3.3221,6.2705,1.9759,3.5633,2.7959,3.675,7.5904,1.0348zm-181.98-1.16c0.57532-0.89842,3.7281-1.1809,7.2001-0.64503,8.3548,1.2894,11.562-2.1323,8.8331-9.4241-1.0452-2.793-1.491-6.586-0.99053-8.4288,1.7767-6.5424-8.0667-11.451-12.537-6.2518-1.506,1.7513-2.8347,1.9422-5.1596,0.74129-6.1321-3.1674-13.046,3.6993-9.7352,9.6692,0.90559,1.6331,1.6465,5.0259,1.6465,7.5396s0.89231,5.4316,1.9829,6.4841c2.4107,2.3266,7.3582,2.5048,8.7601,0.31551zm-7.4382-3.0921c0-0.82538,0.7436-1.9442,1.6524-2.4864,2.9375-1.7522,1.8345-9.4894-1.6524-11.591-1.8177-1.0956-3.3049-2.7861-3.3049-3.7567,0-1.1026,1.4314-0.85953,3.8154,0.64802,4.2728,2.702,11.582,1.9844,14.513-1.4251,3.2764-3.8101,5.3217-2.4162,2.5168,1.7153-3.6182,5.3295-3.356,9.9552,0.68246,12.041,1.8431,0.95202,2.8847,2.4594,2.3146,3.3496-0.64818,1.0122-2.1073,0.68343-3.8944-0.87743-3.9559-3.4552-9.5702-3.122-11.686,0.69352-1.8209,3.2837-4.9573,4.3523-4.9573,1.6889zm80.073,1.3905c-1.4165-2.2121-2.4081-1.7996-2.4081,1.0017,0,1.3675,0.75572,2.0356,1.6794,1.4846,0.92366-0.55096,1.2516-1.6698,0.7287-2.4864zm74.439,1.6908c2.0535-3.2068-0.97856-7.9598-5.0778-7.9598-3.3648,0-4.0197,0.77959-4.0197,4.7845,0,4.0094,0.65345,4.7845,4.0336,4.7845,2.2185,0,4.4973-0.72409,5.064-1.6091zm-81.96-3.5741c1.8158-4.6838-1.2919-6.6546-5.1625-3.2739-2.7673,2.4171-2.7692,2.6515-0.0377,4.6531,3.742,2.7421,3.5865,2.7833,5.2003-1.3791zm36.897-0.31881c1.2225-6.1723-7.5595-8.2669-9.2046-2.1954-1.2362,4.5624-0.0779,6.1025,4.5898,6.1025,2.7638,0,4.058-1.0957,4.6148-3.9072zm31.008,2.3123c0-0.87715-0.7436-1.5948-1.6524-1.5948-0.90884,0-1.6524,0.71767-1.6524,1.5948,0,0.87715,0.7436,1.5948,1.6524,1.5948,0.90884,0,1.6524-0.71767,1.6524-1.5948zm-23.134-1.6889c0-0.92892-0.7436-1.2454-1.6524-0.70329-0.90884,0.54211-1.6524,1.3021-1.6524,1.6889,0,0.38681,0.7436,0.70329,1.6524,0.70329,0.90884,0,1.6524-0.76002,1.6524-1.6889zm100.88-6.9705c-5.3567-7.5142-8.1976-9.7984-4.9882-4.0107,0.99976,1.8029,1.5204,4.1354,1.1571,5.1832-0.36337,1.0478-1.9902-2.0421-3.6152-6.8664-2.8185-8.3677-7.3291-15.817-5.311-8.7715,0.50249,1.7543,1.7301,6.2397,2.7281,9.9676,0.99797,3.7279,2.5294,6.8677,3.4032,6.9773,0.87381,0.10965,2.1996,0.28906,2.9461,0.39871,0.74654,0.10964,2.6941,1.4894,4.3278,3.0662,5.1273,4.9486,4.7681,1.6531-0.64797-5.9444zm-41.064,5.4916c0.63435-0.012,0.35983-2.2188-0.61005-4.9039-1.1864-3.2846-2.5542-4.5893-4.1803-3.9871-1.3293,0.49231-3.0996,0.89511-3.9342,0.89511-1.7935,0-2.0513,6.9271-0.31998,8.5981,0.65853,0.63555,2.7034,0.76497,4.5442,0.28758s3.8659-0.87778,4.5003-0.88976zm-88.895-5.7359c0.79085-2.5366,0.0351-3.7619-3.1969-5.1832-5.5164-2.4258-5.1495-2.572-7.1003,2.8289-1.5519,4.2967-1.3229,4.8152,2.7301,6.1799,4.8946,1.6482,6.0412,1.0684,7.5671-3.8257zm74.505,4.0933c-0.57085-0.89146-1.7301-1.2079-2.5762-0.70329-2.292,1.3671-1.8646,2.3241,1.0379,2.3241,1.4169,0,2.1091-0.72937,1.5383-1.6208zm37.197,0.026c0-0.87715-0.74359-1.5948-1.6524-1.5948-0.90884,0-1.6524,0.71767-1.6524,1.5948,0,0.87715,0.74359,1.5948,1.6524,1.5948,0.90885,0,1.6524-0.71767,1.6524-1.5948zm-104.1-1.6889c0-0.92892-0.74359-1.2454-1.6524-0.70329-0.90885,0.54211-1.6524,1.3021-1.6524,1.6889,0,0.38681,0.74359,0.70329,1.6524,0.70329,0.90884,0,1.6524-0.76002,1.6524-1.6889zm26.439-4.6903c0-3.9832-0.66226-4.7845-3.9543-4.7845-3.5399,0-5.9603,2.6005-5.9603,6.4038,0,0.74715,2.0449,1.6574,4.5442,2.0228,2.4993,0.36541,4.7301,0.77192,4.9573,0.90334,0.22721,0.13143,0.41311-1.914,0.41311-4.5455zm19.526,0.3987c-0.37606-3.1543-1.4508-4.3858-3.8277-4.3858s-3.4517,1.2314-3.8278,4.3858c-0.45324,3.8017,0.0565,4.3858,3.8278,4.3858s4.281-0.58404,3.8277-4.3858zm-11.264-1.2902c0-0.38681-1.1593-0.70329-2.5762-0.70329s-2.1091,0.72938-1.5383,1.6208c0.94323,1.473,4.1144,0.76575,4.1144-0.91755zm31.711,1.6515c0.47577-0.45919,0.50895-2.6328,0.0737-4.8302-0.63827-3.2225-1.4715-3.7939-4.3076-2.954-4.5549,1.3488-4.3581,1.0406-3.258,5.1004,0.86236,3.1826,5.3204,4.7796,7.492,2.6838zm21.977-0.78594c-0.57086-0.89146-1.7301-1.2079-2.5762-0.70329-2.292,1.3672-1.8646,2.3241,1.0379,2.3241,1.4169,0,2.1091-0.72938,1.5383-1.6208zm11.52,0.62638c2.4589-0.91067,2.4487-1.2466-0.12096-3.987-1.5433-1.6459-4.178-2.9926-5.8549-2.9926-3.5137,0-3.6907,0.64682-1.3382,4.8893,1.8302,3.3004,3.0812,3.658,7.314,2.0903zm9.4099-5.6767c-0.9483-2.9095-2.5585-8.4126-3.5782-12.229s-2.2186-6.5871-2.6642-6.157c-0.70004,0.67563,2.95,16.815,5.2675,23.292,1.6879,4.7172,2.6058,0.0981,0.97487-4.9059zm-103.96,1.0893c0.43434-2.1929,0.21004-3.987-0.49844-3.987s-2.4596-0.43384-3.8913-0.9641c-3.7809-1.4003-6.5721,6.1204-2.8317,7.63,4.8385,1.9528,6.4203,1.366,7.2214-2.6788zm6.961,0.68721c-1.4165-2.2121-2.4081-1.7996-2.4081,1.0017,0,1.3675,0.75573,2.0356,1.6794,1.4846,0.92367-0.55096,1.2516-1.6698,0.7287-2.4864zm42.208,1.705c0-0.87715-0.74359-1.5948-1.6524-1.5948-0.90884,0-1.6524,0.71767-1.6524,1.5948,0,0.87716,0.7436,1.5948,1.6524,1.5948,0.90885,0,1.6524-0.71767,1.6524-1.5948zm32.748-8.7708c-1.3926-2.9498-2.5048-3.4734-5.2763-2.4839-1.9315,0.68959-3.4374,2.0687-3.3465,3.0646,0.59587,6.5298,0.53063,6.4732,5.5242,4.7932,4.3568-1.4658,4.6795-2.0254,3.0987-5.3739zm-12.919,3.9864c0-0.87715-0.7436-1.5948-1.6524-1.5948-0.90884,0-1.6524,0.71767-1.6524,1.5948,0,0.87715,0.7436,1.5948,1.6524,1.5948,0.90884,0,1.6524-0.71767,1.6524-1.5948zm28.221-5.831c-0.97001-3.3716-1.7678-8.4202-1.7729-11.219-0.005-2.799-0.86352-5.5986-1.9076-6.2214-2.2244-1.3268-0.82316,11.862,2.1286,20.034,2.5001,6.9218,3.7086,4.9028,1.552-2.593zm41.181-45.84,0-53.266-7.3679-0.56556-7.3679-0.56556-1.0847,8.3791c-1.7911,13.836,2.1475,36.333,9.1022,51.992l3.147,7.0858-8.7868,1.0596c-4.8327,0.58276-10.781,1.5743-13.218,2.2034l-4.4315,1.1438,14.39,17.9c7.9144,9.8448,14.666,17.9,15.004,17.9,0.33773,0,0.61405-23.97,0.61405-53.266zm-89.379,49.988c11.967-1.874,27.994-6.9429,30.621-9.6845,2.0494-2.1387,0.0357-1.6676-14.776,3.4569-7.0765,2.4484-15.354,3.6621-28.918,4.2399-18.068,0.76966-25.995-0.1908-42.55-5.1553-2.1241-0.63697-3.718-0.44037-3.718,0.45862,0,3.0072,23.546,7.8566,39.659,8.1677,4.9986,0.0965,13.855-0.57097,19.682-1.4834zm-61.819-1.5066c-0.5617-0.87715-1.3492-1.5948-1.75-1.5948-0.40079,0-0.7287,0.71767-0.7287,1.5948,0,0.87715,0.78748,1.5948,1.75,1.5948,0.96248,0,1.2904-0.71767,0.7287-1.5948zm104.9-4.8796c-0.89331-3.0062-1.6356-8.3411-1.6495-11.856-0.0139-3.5144-0.81827-7.4663-1.7874-8.782-2.3032-3.1268-0.79889,16.495,1.7632,22.999,2.4384,6.1898,3.69,4.4236,1.6737-2.3617zm-6.1152-13.062c-0.48048-7.2365-1.6188-13.875-2.5295-14.752-1.1061-1.0653-1.3575,2.3765-0.75695,10.366,0.80092,10.656,2.2404,17.543,3.6669,17.543,0.27125,0,0.1-5.9208-0.38044-13.157zm-43.836,4.801c5.2219-3.0984,12.595-9.2604,16.386-13.693l6.8911-8.0597-2.1392-6.8742c-1.1765-3.7808-2.6461-10.821-3.2657-15.646-1.3722-10.685-3.8832-15.948-7.6084-15.948-4.6907,0-25.314-10.711-30.306-15.74l-4.6911-4.7257-9.738,9.605c-10.501,10.358-12.432,14.764-5.7609,13.148,5.4052-1.3093,10.015,1.3814,12.571,7.3379,2.0706,4.8246,1.5651,9.2107-2.4952,21.65-0.94323,2.8898-0.43708,3.3566,3.578,3.2998,2.5722-0.0364,6.0975,0.54359,7.834,1.2888,2.7173,1.1661,3.0181,0.84088,2.158-2.3334-0.69054-2.5486-0.4694-3.1769,0.71558-2.0332,0.94322,0.91033,1.4305,2.9873,1.0828,4.6155-0.48492,2.2708-1.894,2.8627-6.0492,2.5411-3.5896-0.27783-5.0396,0.1701-4.2982,1.3278,0.61533,0.96091-1.1939,0.59289-4.0204-0.81781-5.8415-2.9154-5.6686-2.5264-3.5331-7.9472,2.3918-6.0714,0.79886-8.1147-6.1674-7.9114l-6.1795,0.18036,0.5362,9.3886c0.2949,5.1637,1.244,12.047,2.109,15.297,1.7658,6.6328,8.545,15.192,13.744,17.353,6.758,2.8089,18.701,0.598,28.646-5.303zm-28.276-5.6289c-0.43202-0.67464,2.1114-1.2999,5.6521-1.3895s6.0372,0.46237,5.5478,1.2266c-1.0987,1.7157-10.121,1.847-11.2,0.16291zm-6.0193-5.7548c0-4.4846-0.35054-4.3684,14.345-4.7547,7.5492-0.19843,8.6422,0.18174,9.243,3.2147,0.64286,3.2457,0.11328,3.4214-9.3879,3.1149-5.538-0.17866-10.999,0.33491-12.135,1.1413-1.5135,1.0743-2.0656,0.34837-2.0656-2.7162zm23.327-22.731c-3.3804-2.2852-9.5064-12.931-8.139-14.145,0.28045-0.24885,3.8561-1.6285,7.9459-3.0658l7.436-2.6134-8.2514,1.0019-8.2514,1.002,3.1371-3.3456c5.946-6.3412,22.018-3.827,29.894,4.6763l3.301,3.564-6.957-3.4007c-3.8264-1.8704-8.288-3.3503-9.9146-3.2886-2.5942,0.0983-2.5515,0.2727,0.34728,1.4191,2.6599,1.052,2.0149,1.4244-3.3049,1.9084l-6.6098,0.60131,6.8839,0.79985c3.7861,0.43992,6.5307,0.24839,6.0991-0.42561-0.43162-0.67401-0.12689-1.2255,0.67717-1.2255,1.776,0,9.4953,7.7301,8.5166,8.5285-2.077,1.6942-12.701,4.2301-17.722,4.2301-5.6884,0-5.739,0.0576-2.8022,3.1896,3.6268,3.8678,2.8579,4.066-2.2855,0.58898zm1.9512-7.4999c0.46501-1.1695-0.19903-2.1264-1.4756-2.1264-2.4753,0-3.0276,1.4446-1.2195,3.1896,1.51,1.4574,1.727,1.3718,2.6951-1.0632zm9.1036-1.9028c-0.50877-0.49102-1.4328,0.3941-2.0533,1.967-0.89674,2.2729-0.70694,2.4561,0.92504,0.89277,1.1293-1.0818,1.637-2.3687,1.1282-2.8597zm14.894,47.856c10.283-2.3397,21.418-6.957,17.078-7.0818-1.2222-0.0351-7.171,1.3076-13.22,2.9837-6.0486,1.6762-14.344,3.743-18.433,4.5929-7.2544,1.5076-7.2947,1.5495-1.6524,1.7133,3.1809,0.0924,10.483-0.90133,16.227-2.2082zm-50.928-0.62191c-1.3633-0.74438-4.3376-1.7919-6.6098-2.3279-3.4434-0.81229-3.3059-0.5909,0.82622,1.33,5.2956,2.4618,9.9284,3.2611,5.7835,0.99795zm48.224-6.8692c-1.1857-1.1444-1.9554-1.2385-1.9554-0.23922,0,2.1287,1.9542,4.0148,3.057,2.9504,0.46958-0.45319-0.0261-1.6732-1.1016-2.7112zm5.1332-1.2493c-0.47534-1.7543-1.5211-3.1896-2.324-3.1896-1.7276,0-1.7878,0.50874-0.4567,3.8566,1.456,3.6618,3.8011,3.0993,2.7807-0.66697zm20.978-9.1702c-0.0175-8.569-0.51661-11.626-1.6271-9.9676-2.35,3.5095-1.4796,22.327,1.0328,22.327,0.34081,0,0.60828-5.5619,0.59437-12.36zm-16.524,8.7715c-0.0368-2.9072-2.9248-6.8546-4.1498-5.6723-0.57746,0.55733-0.21994,2.5101,0.79451,4.3396,2.0852,3.7604,3.3927,4.2798,3.3553,1.3327zm4.3035-0.96634c-0.48076-0.75077-1.6608-3.3622-2.6224-5.8031-0.96155-2.4409-2.1026-4.096-2.5357-3.678-1.2564,1.2126,2.6908,10.846,4.444,10.846,0.87358,0,1.195-0.61427,0.71418-1.365zm1.5053-6.6091c-1.6477-3.5265-3.3676-6.053-3.822-5.6144-0.45442,0.43858,0.52187,3.6827,2.1696,7.2092s3.3676,6.053,3.822,5.6144c0.45442-0.43858-0.52187-3.6827-2.1696-7.2092zm6.3169-6.778c0.60041-6.4979,0.36434-10.765-0.59557-10.765-0.87464,0-1.5903,5.1433-1.5903,11.43,0,13.969,0.85781,13.708,2.1858-0.66451zm-3.2038-8.7715c0.65194-4.1804,0.41627-6.778-0.61494-6.778-0.91958,0-1.6802,0.89709-1.6902,1.9935s-0.47865,4.8642-1.0414,8.3728c-0.6836,4.2618-0.47344,5.8499,0.63312,4.7845,0.911-0.87715,2.132-4.6449,2.7134-8.3728zm43.981,3.7836c0-0.33117-1.3013-1.5871-2.8918-2.7909-2.6209-1.9838-2.6793-1.9274-0.62389,0.60213,2.1587,2.6566,3.5157,3.5014,3.5157,2.1888zm7.6435-12.066c-2.6456-8.3408-3.7404-10.21-4.436-7.5754-0.6593,2.4974-2.1544,3.4835-5.2255,3.4464-4.1456-0.0501-4.0219,0.22382,3.4022,7.5344,4.2373,4.1726,8.1694,7.6049,8.7379,7.6274,0.56857,0.0225-0.54683-4.9422-2.4787-11.033zm-54.844,0.70745c0.81367-3.3384,0.64071-4.2874-0.57226-3.1398-0.9561,0.90457-2.1736,4.1341-2.7056,7.1767-1.1561,6.6124,1.4707,3.3773,3.2778-4.0369zm34.178-2.6897c-0.85138-2.1612-3.5853-5.2179-6.0754-6.7926-4.5045-2.8486-4.4997-2.8259,0.95368,4.5031,5.8522,7.8649,7.6314,8.6602,5.1217,2.2894zm-36.667-4.1824c0.0639-1.1482-0.62745-1.6441-1.5363-1.102-0.90884,0.54211-1.6002,2.9169-1.5363,5.2773,0.10361,3.8321,0.26821,3.9501,1.5363,1.102,0.78109-1.7543,1.4724-4.1291,1.5363-5.2773zm-3.8428-6.2519c-0.54911-0.52994-0.93964,0.412-0.8679,2.0932,0.0793,1.8579,0.47085,2.2358,0.99834,0.96354,0.47734-1.1513,0.41865-2.5268-0.13038-3.0567zm-52.795-0.77246c-1.0493-0.62588-1.536-1.7024-1.0815-2.3922,0.45442-0.68985-2.1482-1.3588-5.7835-1.4865l-6.6098-0.23224,6.6098,1.202c5.8994,1.0729,6.077,1.229,1.6524,1.4528-8.5046,0.43015-9.1938,2.5941-0.82622,2.5941,4.3706,0,7.0881-0.51207,6.0388-1.1379zm103.02-1.2543c0-0.87715-0.74359-1.5948-1.6524-1.5948-0.90885,0-1.6524,0.71767-1.6524,1.5948,0,0.87715,0.74359,1.5948,1.6524,1.5948,0.90884,0,1.6524-0.71767,1.6524-1.5948zm-9.0172-10.172c1.5545-0.57572,3.7003-0.34675,4.7685,0.50882,1.0682,0.85558,3.5765,1.1431,5.5741,0.63892,3.3972-0.85741,3.632-1.8326,3.632-15.084v-14.167h-20.54-20.54l1.5371,5.1726c0.84539,2.845,1.5607,5.5362,1.5896,5.9806,0.0289,0.44437,1.1059-0.53442,2.3933-2.1751,1.6514-2.1045,5.0094-3.1619,11.402-3.5905,7.9866-0.5354,9.1897-0.21852,10.14,2.6709,1.6876,5.1318-4.9828,17.43-9.5377,17.585-2.0402,0.0692-2.732,0.50335-1.5372,0.96466,1.1948,0.46132,2.9445,2.7371,3.8882,5.0573,1.6594,4.0797,1.76,4.1078,3.0598,0.85199,0.73921-1.8516,2.6159-3.8376,4.1704-4.4133zm-15.199,2.9265c-0.53818-1.3536-1.3329-2.119-1.766-1.7009-0.43316,0.41804-0.29741,1.5255,0.30165,2.461,1.6294,2.5445,2.5817,2.0502,1.4644-0.76009zm-6.4651-5.9118c-1.1528-3.5651-3.5974-5.9094-6.211-5.9562-1.1986-0.0214,5.4996,9.2296,6.8468,9.4563,0.28845,0.0485,0.002-1.5265-0.63583-3.5001zm-32.111-0.35199c0-0.41288-4.2613-2.6963-9.4695-5.0743-5.2593-2.4013-12.977-7.8546-17.359-12.265-9.7532-9.8177-12.033-9.0305-2.8872,0.99698,7.2498,7.9491,29.716,20.305,29.716,16.343zm-45.965-6.8247c5.5116-5.7194,10.288-13.036,9.1976-14.088-0.47386-0.45734-2.4867,1.7063-4.473,4.8081s-5.4173,7.0106-7.6245,8.6862-4.0131,3.4816-4.0131,4.0132c0,2.1645,2.9276,0.71648,6.9129-3.4192zm34.986-3.539c-4.675-2.5878-10.81-7.4095-13.633-10.715-2.8229-3.3053-5.1289-5.3078-5.1244-4.4501,0.0234,4.4379,19.181,19.916,24.613,19.885,1.4541-0.008-1.1812-2.1323-5.8562-4.7201zm-34.539-4.2658c3.2226-4.0733,5.8564-8.5588,5.853-9.9676-0.004-1.5492-1.204-0.67078-3.0371,2.2229-3.1382,4.9539-8.5238,10.023-8.5238,8.0222,0-0.62691,1.4872-2.9646,3.3049-5.1948s3.2924-4.8553,3.277-5.8334c-0.0581-3.7098-7.398,9.5285-7.6174,13.739-0.12662,2.4299,0.0205,4.4181,0.32694,4.4181s3.1938-3.3327,6.4164-7.406zm73.609,6.8558c0-0.30263-1.6731-1.9174-3.718-3.5883l-3.718-3.0381,3.1479,3.5884c2.9582,3.3722,4.2881,4.3144,4.2881,3.0381zm16.524-2.6394c0-0.87715-1.1593-1.5948-2.5762-1.5948s-2.1166,0.71767-1.5549,1.5948c0.56169,0.87715,1.721,1.5948,2.5762,1.5948,0.85521,0,1.5549-0.71767,1.5549-1.5948zm-56.514-4.9104c-2.4543-1.768-4.0935-4.1421-3.6428-5.2758,0.45075-1.1337-0.32968-2.9818-1.7343-4.1069-3.0544-2.4465-3.4198-0.0628-0.48831,3.1853,1.136,1.2587,0.0207,0.55949-2.4787-1.5539-2.4993-2.1134-4.5442-3.0556-4.5442-2.0939,0,2.1393,13.123,13.181,15.582,13.11,0.97246-0.0278-0.23995-1.4971-2.6942-3.2651zm26.77-7.0507c0-1.3157-1.2064-2.3922-2.681-2.3922-2.1958,0-2.3087,0.43299-0.6239,2.3922,1.1314,1.3157,2.3379,2.3922,2.681,2.3922,0.34314,0,0.62389-1.0765,0.62389-2.3922zm-64.445-2.4864c0-0.82538-0.7436-1.5007-1.6524-1.5007-0.90884,0-1.6524,1.1189-1.6524,2.4864s0.7436,2.0428,1.6524,1.5007c0.90884-0.54211,1.6524-1.661,1.6524-2.4864z" fill="transparent" background="#fff"/>

 </g>

</svg>

