<svg id="nehal" xmlns="http://www.w3.org/2000/svg"  xmlns:xlink="http://www.w3.org/1999/xlink" width="100%" height="100%" viewBox="0 0 300 150">

 <defs>  

  <style type="text/css">

svg{
  

    text-align:center;
    margin:0 auto;
}



.nehal{


filter:drop-shadow(0 0px 2px black);

  stroke-dasharray: 1000;
  stroke-dashoffset: 10;

  -webkit-animation: nehal  5s ease-in-out alternate  infinite  ;
  -moz-animation: nehal  5s ease-in-out alternate  infinite  ;
  -o-animation: nehal  5s ease-in-out alternate  infinite  ;
  animation: nehal  5s ease-in-out alternate  infinite  ;

  -webkit-transition:fill 0.8s linear;
  -moz-transition:fill 0.8s linear;
  -o-transition:fill 0.8s linear;
  transition:fill 0.8s linear;
}

@keyframes nehal  {
  from {
    stroke-dashoffset: 10;
    fill:white;
  }
  to {
    stroke-dashoffset: 1000;
    
  }

}

@-webkit-keyframes nehal  {
  from {
    stroke-dashoffset: 10;
fill:white;
    
  }
  to {
    stroke-dashoffset: 1000;
    
  }

}



.nehal:hover{
  
  cursor:pointer;

}


#nehal.clickit .nehal{
  
fill:indigo;
stroke:maroon;

}


/**************************/






/*************************/

</style>

</defs>


<script type="text/javascript">

var clicker = document.querySelector('#nehal');

clicker.addEventListener('click', function(){
  
this.classList.toggle('clickit');


});

</script>



 <g transform="translate(0,-902.36218)" fill="transparent">

  <g class="nehal" style="writing-mode:lr-tb;letter-spacing:0px;word-spacing:0px;" font-weight="bold" fill-rule="nonzero" transform="scale(0.92768328,1.0779541)" font-style="normal" font-stretch="normal" line-height="125%" font-size="26.71706009000000000px" font-variant="normal" font-family="Kozuka Gothic Pr6N B" fill="transparent" stroke="indigo">

   <path d="m22.948,871.28-1.3662-5.5502c0.34154-1.1384,0.68309-2.2912,1.0247-3.4582,0.34154-1.1669,0.65463-2.3196,0.93927-3.4582,0.34154-0.79685,0.92502-1.4088,1.7505-1.8358,0.8254-0.42683,1.9212-0.6403,3.2875-0.64041,0.51231,0.00011,1.295-0.11375,2.3482-0.34156,1.0531-0.22759,1.8074-0.34144,2.2628-0.34155,0.5123,0.00011,1.1954,0.39859,2.0493,1.1954,0.85385,0.79706,1.4516,1.2525,1.7932,1.3662,0.39845-0.28452,0.89654-0.76839,1.4943-1.4516,0.59768-0.683,1.3235-1.5938,2.1774-2.7324,0.74-0.9107,1.4516-1.6507,2.1347-2.2201,0.68307-0.56914,1.4231-0.96762,2.2201-1.1954,0.91077,0.45552,1.7077,0.82553,2.3909,1.11,0.39844,0.22781,0.66883,0.48398,0.81119,0.76849,0.14227,0.28474,0.21343,0.68322,0.21347,1.1954-0.000042,0.28474-0.14236,0.89669-0.42694,1.8358-0.28467,0.93938-0.71161,2.206-1.2808,3.7998-0.62622,1.7079-1.1101,3.131-1.4516,4.2694-0.34159,1.1386-0.56929,2.021-0.68311,2.647-0.85392,1.3094-1.5228,2.4906-2.0066,3.5436-0.4839,1.0532-0.72584,2.0352-0.7258,2.9459-0.000036,1.1386,0.34152,2.8321,1.0247,5.0806,0.68307,2.2486,1.6793,5.0522,2.9886,8.4108,1.8216,4.5541,3.6717,9.3074,5.5502,14.26,1.7077,5.4649,3.5009,10.745,5.3795,15.84,1.8785,5.0949,3.8424,9.9762,5.8918,14.644,2.1062,4.8956,3.8424,8.5389,5.2087,10.93,1.3662,2.3909,2.3908,3.5863,3.074,3.5863,0.56919,0.00002,0.9819-0.32731,1.2381-0.98197,0.2561-0.65462,0.38418-1.6935,0.38425-3.1167-0.000067-0.56924,0.07109-1.3093,0.21347-2.2201,0.14225-0.91078,0.38418-1.907,0.7258-2.9886,0.51226-1.537,0.99613-3.2732,1.4516-5.2087,0.56919-2.9601,1.0957-5.5502,1.5797-7.7703,0.4838-2.22,0.89651-4.1271,1.2381-5.721,0.22763-1.0246,0.4838-3.1878,0.7685-6.4895,0.28456-3.3016,0.56918-7.7703,0.85388-13.406-0.000073-0.56919,0.09955-1.3661,0.29886-2.3909,0.19917-1.0246,0.38417-2.1916,0.55502-3.5009,0.22763-1.3092,0.3984-2.4335,0.51233-3.3728,0.11378-0.9392,0.1707-1.7788,0.17078-2.519-0.000075-1.3092-0.14239-3.2589-0.42694-5.8491-0.2847-2.59-0.42702-4.5397-0.42694-5.8491,0.85381-3.5862,1.6508-7.0871,2.3909-10.503,0.6261-2.96,1.2238-5.422,1.7932-7.3861,0.56918-1.9638,1.053-3.4581,1.4516-4.4829,0.91073-2.0492,2.0208-3.8281,3.3301-5.3368,1.3092-1.5084,2.7608-2.7465,4.3548-3.7144h0.68311c0.56917,0.00013,0.95341,0.11398,1.1527,0.34156,0.19915,0.22782,0.29877,0.59784,0.29886,1.11-0.28472,1.1956-0.54088,2.1064-0.7685,2.7324,0.17069,1.0248,0.34146,2.1064,0.51233,3.2448-0.17087,1.4232-0.3701,2.6187-0.59772,3.5863-0.11394,0.62629-0.22779,1.5798-0.34155,2.8605-0.11394,1.2809-0.17086,2.8322-0.17078,4.6537-0.000089,0.68321-0.08548,2.149-0.25616,4.3975-0.17086,2.2487-0.48396,5.2515-0.93927,9.0085-0.34164,5.3511-0.75435,10.674-1.2381,15.968-0.48395,5.2941-0.98205,10.588-1.4943,15.882-0.45549,6.3757-1.1101,12.196-1.9639,17.462-0.85396,5.2656-1.8786,9.9762-3.074,14.132-0.28471,2.5048-0.81127,5.2941-1.5797,8.3681-0.76857,3.074-1.7505,6.4041-2.9459,9.9904l-2.647,4.2694c-0.17085,0.22771-1.964,0.95351-5.3795,2.1774-3.4156,1.2239-5.3226,1.8358-5.721,1.8358-0.85394,0-2.1348-1.1243-3.8425-3.3728-1.7078-2.2486-3.7287-5.6783-6.0626-10.289-2.2201-4.1556-3.9848-7.5853-5.2941-10.289-1.3093-2.7039-2.1348-4.739-2.4763-6.1053-0.1139-0.5123-0.28467-1.1669-0.51233-1.9639-0.22774-0.79693-0.48391-1.7077-0.7685-2.7324-1.1386-2.5047-2.5759-5.6071-4.3121-9.3073-1.7363-3.7001-3.7429-8.0834-6.0199-13.15-0.39851-1.2523-0.89661-2.462-1.4943-3.629-0.59775-1.1669-1.3235-2.405-2.1774-3.7144l-0.59772,0.25617c-0.39851,1.1386-0.79698,2.5617-1.1954,4.2694-0.3985,1.7078-0.85391,3.7572-1.3662,6.148-0.56928,1.537-1.167,2.9033-1.7932,4.0986-0.85391,3.3017-1.8216,6.888-2.9032,10.759s-2.2486,8.0265-3.5009,12.467c-0.34157,1.4801-0.68312,3.0171-1.0247,4.611-0.34157,1.5939-0.74005,3.2448-1.1954,4.9525l-1.537,2.8178c-0.22772,1.7078-0.48388,3.3871-0.7685,5.0379-0.39849,1.3093-0.89659,2.889-1.4943,4.739-0.59773,1.8501-1.3235,4.056-2.1774,6.6176-0.17078,1.3093-0.5835,2.2912-1.2381,2.9459-0.65465,0.65464-1.5512,1.0104-2.6897,1.0674-0.11386,0.22769-0.34156,0.46963-0.68311,0.7258-0.34156,0.25616-0.91081,0.49809-1.7078,0.7258-0.56926,0.11384-0.9962-0.18501-1.2808-0.89658-0.28463-0.71157-0.42694-1.7505-0.42694-3.1167-5E-7-0.79696,0.14231-2.0493,0.42694-3.7571s0.71157-3.8709,1.2808-6.4895c0.62618-2.9601,1.1243-5.2798,1.4943-6.9592,0.37001-1.6793,0.61195-2.7466,0.7258-3.2021,0.2277-1.3662,0.48386-3.1594,0.7685-5.3795,0.28462-2.2201,0.59771-4.7817,0.93927-7.685,0.11384-0.74,0.29885-1.665,0.55502-2.7751,0.25616-1.11,0.58348-2.4051,0.98197-3.8852,0.28462-1.1385,0.85387-4.2267,1.7078-9.2646,0.85387-5.0379,1.9639-12.054,3.3301-21.048,1.4801-8.8234,2.9032-17.704,4.2694-26.641z"/>

   <path d="m94.418,940.36c0.68311-1.1954,1.5655-2.4051,2.647-3.629,1.0816-1.2239,2.4478-2.4905,4.0986-3.7998,0.17077-1.1385,0.34155-2.2628,0.51233-3.3728,0.17077-1.11,0.28462-2.2343,0.34155-3.3728,0.17077-0.79692,0.44117-1.7362,0.81119-2.8178,0.37001-1.0816,0.78272-2.2485,1.2381-3.5009,0.51232-1.2523,1.2097-2.8178,2.092-4.6964,0.88234-1.8785,2.0351-3.9847,3.4582-6.3187,1.1954-1.3092,2.4478-2.7466,3.7571-4.3121,1.3093-1.5654,2.6186-3.1451,3.9279-4.739,0.62616-0.51227,1.3093-0.99613,2.0493-1.4516,0.74001-0.45534,1.48-0.96767,2.2201-1.537,0.68308-0.22764,1.4516-0.42688,2.3055-0.59772,0.85386-0.17071,1.7931-0.2561,2.8178-0.25617,1.4231,0.00007,2.5758,0.14239,3.4582,0.42694,0.88232,0.2847,1.6081,0.76857,2.1774,1.4516,0.39844,0.45547,0.78269,1.1386,1.1527,2.0493,0.36998,0.91087,0.72576,2.0209,1.0674,3.3301,0.17074,1.1386,0.36998,2.3909,0.59772,3.7571-0.00004-0.3415-0.0996-0.19918-0.29886,0.42694-0.19927,0.62624-0.49813,1.6224-0.89657,2.9886l-0.7685,2.7324c-0.79699,2.7325-2.5902,5.8918-5.3795,9.4781-2.7894,3.5864-6.5465,7.685-11.271,12.296-0.3985,0.39851-0.74005,0.89661-1.0247,1.4943-0.28465,0.59774-0.42696,1.2382-0.42695,1.9212-0.00001,1.1955,0.21346,2.2486,0.64042,3.1594,0.42692,0.91084,1.0389,1.5939,1.8358,2.0493,0.45538,0.34158,1.1812,0.68313,2.1774,1.0247,0.99617,0.34158,2.1774,0.65467,3.5436,0.93928,2.2201-0.17076,4.2409-0.54078,6.0626-1.11,1.8216-0.56924,3.444-1.2523,4.8671-2.0493,0.28459-0.17076,0.74-0.41269,1.3662-0.7258,0.62615-0.31307,1.2523-0.72578,1.8786-1.2381,0.73999,1.6509,1.3946,3.1309,1.9639,4.4402,0.56921,1.3093,1.0246,2.4478,1.3662,3.4155-3.2448,3.1878-6.1907,5.593-8.8377,7.2153-2.6471,1.6224-5.0806,2.4336-7.3007,2.4336-0.91084,0.56927-1.9497,0.98198-3.1167,1.2381-1.167,0.25618-2.5474,0.38426-4.1413,0.38425-2.1063,0.00001-3.9706-0.31308-5.5929-0.93927-1.6224-0.62617-2.9744-1.537-4.0559-2.7324-0.56927-0.56924-1.1385-1.4089-1.7078-2.519-0.56926-1.11-1.167-2.4336-1.7932-3.9706-0.51234-1.2523-0.99621-2.1774-1.4516-2.7751-0.4554-0.5977-0.96773-0.89656-1.537-0.89658-0.4554,0.00002-0.96773,0.21349-1.537,0.64041-0.56926,0.42696-1.1954,1.0674-1.8785,1.9212-0.2277-0.85386-0.62618-1.907-1.1954-3.1594-0.56925-1.2523-1.3093-2.8178-2.2201-4.6964zm27.324-27.751c-1.2524,0.00005-2.9317,1.6367-5.0379,4.9098-2.1063,3.2733-3.1594,5.6784-3.1594,7.2153-0.00001,0.34159,0.0712,0.58353,0.21348,0.7258,0.14229,0.14236,0.44115,0.21351,0.89657,0.21347,0.62617,0.00004,1.1385-0.32728,1.537-0.98196,0.39846-0.65461,0.76848-1.2666,1.11-1.8358,0.62616-0.56922,1.2381-1.1812,1.8358-1.8358s1.1812-1.295,1.7505-1.9212c0.68308-0.79691,1.1954-1.5939,1.537-2.3909,0.34153-0.79691,0.51231-1.5939,0.51233-2.3909-0.00002-0.51227-0.0996-0.92498-0.29886-1.2381-0.19926-0.31303-0.49812-0.46958-0.89658-0.46963z"/>

   <path d="m137.45,940.36c1.2524-1.0816,2.2201-1.9354,2.9032-2.5616,0.68311-0.62616,1.2239-1.167,1.6224-1.6224,0.9108-0.85386,1.6508-1.6793,2.2201-2.4763,0.56926-0.79693,0.88235-1.5085,0.93928-2.1347,0.51232-1.9354,1.11-4.3548,1.7932-7.258,0.6831-2.9032,1.5654-6.2618,2.647-10.076,0.51232-1.1385,1.0673-2.5758,1.6651-4.3121,0.59771-1.7362,1.2381-3.6859,1.9212-5.8491,0.68309-2.8462,1.537-5.4363,2.5616-7.7703,1.0246-2.3339,2.1632-4.4401,3.4155-6.3187,0.39846-0.51225,0.79694-1.1527,1.1954-1.9212,0.39846-0.76842,0.79694-1.665,1.1954-2.6897,0.39845-0.91073,0.95348-1.9781,1.6651-3.2021,0.71154-1.2238,1.5227-2.6612,2.4336-4.3121,2.3339-3.4154,4.3832-6.3471,6.148-8.795,1.7647-2.4477,3.2163-4.4116,4.3548-5.8918,2.0493-2.4477,4.1128-4.7389,6.1907-6.8738,2.0777-2.1346,4.1698-4.1128,6.276-5.9345,1.9354-1.6507,3.6147-2.8604,5.0379-3.629,1.4231-0.76838,2.5616-1.1526,3.4155-1.1527,0.7969,0.68322,1.3662,1.3094,1.7078,1.8785,0.39842,0.00012,0.7969-0.0568,1.1954-0.17078,1.48,0.00012,2.5616,0.59784,3.2448,1.7932,0.68305,1.1956,1.0246,2.9602,1.0247,5.2941-0.00006,0.51245-0.0855,1.1813-0.25616,2.0066-0.17084,0.82553-0.39854,1.836-0.68311,3.0313-0.39854,0.39858-0.68317,0.91091-0.85388,1.537-0.17084,0.62628-0.31315,1.2525-0.42694,1.8785-0.057,0.79706-0.14238,1.4802-0.25617,2.0493-0.11391,0.56935-0.25623,1.0817-0.42694,1.537-0.74009,1.3663-1.537,3.0314-2.3909,4.9952-0.85395,1.964-1.7648,4.2553-2.7324,6.8738-0.56931,0.96782-1.2809,2.2486-2.1347,3.8425-0.85394,1.594-1.8786,3.3587-3.074,5.2941-0.5693,1.0817-1.2951,2.4336-2.1774,4.0559-0.8824,1.6225-2.0067,3.4868-3.3728,5.5929-0.3416,0.79703-0.92509,1.6651-1.7505,2.6043-0.82546,0.93934-1.8074,2.0352-2.9459,3.2875-0.34159,0.91087-1.2951,2.4763-2.8605,4.6964-1.5655,2.2202-3.7429,5.0949-6.5322,8.6242-1.3662,1.7647-3.1309,3.9564-5.2941,6.5749-2.1632,2.6186-4.6679,5.721-7.5142,9.3073-1.0816,4.2694-1.8928,8.0692-2.4336,11.399-0.54081,3.3302-0.81121,6.2191-0.81119,8.6669-0.00002,0.96775,0.0711,1.6936,0.21347,2.1774,0.1423,0.48387,0.41269,0.72581,0.81119,0.7258,0.28461-0.39847,0.69732-0.85388,1.2381-1.3662,0.54077-0.51231,1.0958-1.11,1.6651-1.7932,1.0816-0.96772,2.3482-2.7609,3.7998-5.3795s3.1166-6.0056,4.9952-10.161c1.6508-3.757,3.1309-6.646,4.4402-8.6669,1.3093-2.0208,2.3908-3.2305,3.2448-3.629l2.9886-1.2808c0.56922-0.22766,1.0816-0.4269,1.537-0.59772,0.45537-0.17073,0.82538-0.25612,1.11-0.25617,0.73999,0.00005,1.4231,0.45545,2.0493,1.3662,0.62614,0.91085,1.1385,2.1632,1.537,3.7571,0.73999,2.9032,1.3377,5.1376,1.7932,6.703,0.45536,1.5655,0.71153,2.4905,0.7685,2.7751,0.73998,1.7078,1.6366,2.9602,2.6897,3.7571,1.0531,0.79698,2.3197,1.1955,3.7998,1.1954,1.7646-0.2846,3.8424-0.68308,6.2334-1.1954,0.45535,1.1385,0.98191,2.3624,1.5797,3.6717,0.59766,1.3093,1.2096,2.704,1.8358,4.184-1.3663,0.91083-2.7467,1.7932-4.1413,2.647-1.3947,0.8539-2.7752,1.7078-4.1413,2.5616-0.91087,0.51234-2.2202,0.89659-3.9279,1.1527-1.7078,0.25618-3.7002,0.38426-5.9772,0.38425-3.4725,0.00001-6.1622-1.6366-8.0692-4.9098s-3.0598-4.8813-3.4582-4.8244h-0.51233c-0.91084,1.1385-1.8643,2.3055-2.8605,3.5009-0.99623,1.1954-1.9782,2.4478-2.9459,3.7571-0.62621,1.3093-1.5086,2.8178-2.647,4.5256-1.1385,1.7078-2.5048,3.5863-4.0986,5.6356-1.8786,2.277-3.5294,3.9848-4.9525,5.1233-1.4232,1.1385-2.647,1.7078-3.6717,1.7078-2.1632-0.00001-3.8567-0.24194-5.0806-0.7258-1.2239-0.48387-1.9497-1.2097-2.1774-2.1774-0.68311-3.1878-1.2097-5.9629-1.5797-8.3254-0.37002-2.3624-0.55503-4.369-0.55503-6.0199,0-0.51231,0.0285-0.96772,0.0854-1.3662,0.0569-0.39846,0.11385-0.76848,0.17078-1.11,0.17077-0.74001,0.37001-1.537,0.59771-2.3909,0-0.28461-0.0712-0.49808-0.21347-0.64041-0.14231-0.1423-0.38425-0.21346-0.7258-0.21348-0.17078,0.22773-0.39848,0.48389-0.6831,0.7685-0.28463,0.28465-0.68311,0.59774-1.1954,0.93927-0.2277-0.74001-0.62618-1.7647-1.1954-3.074-0.56925-1.3093-1.3093-2.9032-2.2201-4.7817zm55.502-78.899c-0.62623,0.0001-1.8786,1.1244-3.7571,3.3728-1.8786,2.2487-4.2695,5.5646-7.1726,9.9478-1.6509,2.4479-3.2733,4.8814-4.8671,7.3007-1.594,2.4194-3.1594,4.796-4.6964,7.1299-0.68314,0.68319-1.1812,1.3663-1.4943,2.0493-0.31312,0.68318-0.46967,1.3948-0.46964,2.1347-1.1385,3.1879-2.2486,6.1765-3.3301,8.9658-1.0247,3.0171-1.8643,5.3511-2.519,7.0018-0.65467,1.6509-1.0389,2.6186-1.1527,2.9032l0.42694,0.42695c1.1385-1.0246,2.1062-2.1062,2.9032-3.2448,1.1385-1.3092,2.5189-3.0028,4.1413-5.0806,1.6223-2.0777,3.4582-4.5113,5.5075-7.3007,2.0493-2.6185,4.1555-5.9344,6.3187-9.9477,2.1631-4.0132,4.4971-8.6384,7.0018-13.876,1.4231-2.8462,2.4904-5.1232,3.2021-6.8311,0.71151-1.7077,1.0673-2.9031,1.0674-3.5863-0.00005-0.39838-0.0712-0.7257-0.21347-0.98197-0.14237-0.25606-0.44123-0.38414-0.89658-0.38424z"/>

   <path d="m203.03,936.6,7.7703-5.1233c0.28462-0.28459,0.62617-0.66884,1.0247-1.1527,0.39847-0.48384,0.85388-1.1812,1.3662-2.092,0.39847-0.73999,0.92503-1.3662,1.5797-1.8785,0.65463-0.51229,1.4089-0.9677,2.2628-1.3662,0.45539-0.56922,1.11-1.2808,1.9639-2.1347,0.85387-0.85384,1.9354-1.85,3.2448-2.9886,0.62616-0.34151,1.4231-0.83961,2.3909-1.4943,0.96771-0.6546,2.0208-1.5227,3.1594-2.6043,5.1802-4.8956,9.72-8.5672,13.619-11.015,3.8994-2.4477,7.1868-3.6716,9.8624-3.6717,1.48,0.00007,2.5758,0.31316,3.2874,0.93927,0.71152,0.62625,1.0673,1.5086,1.0674,2.647-0.00006,1.1955-0.21353,2.2486-0.64042,3.1594-0.42699,0.91087-1.0959,1.6794-2.0066,2.3055-1.4232,1.0247-2.9602,2.1632-4.611,3.4155-0.91086,1.1955-2.0209,2.4621-3.3302,3.7998-1.3093,1.3378-2.8463,2.6613-4.611,3.9706-0.56929,0.74007-1.0532,1.3947-1.4516,1.9639-0.28466,0.28467-0.82545,0.797-1.6224,1.537-0.79699,0.74007-1.8501,1.594-3.1594,2.5616-0.56928,1.2524-1.8074,2.8748-3.7144,4.8671-1.907,1.9924-4.4544,4.3833-7.6422,7.1726-0.3985,0.39851-1.1101,1.3093-2.1347,2.7324-1.0247,1.4232-2.3624,3.3017-4.0132,5.6356l0.59771,0.76849c1.2524-0.39846,2.5616-1.0816,3.9279-2.0493,1.3662-0.96771,2.8747-2.2485,4.5256-3.8425,1.9354-1.7647,3.5151-3.202,4.739-4.3121,1.2239-1.11,2.092-1.8358,2.6044-2.1774,0.39844-0.22768,0.79692-0.45538,1.1954-0.68311,0.39845-0.22767,0.85385-0.5123,1.3662-0.85388,2.6185-3.1309,5.0663-5.4506,7.3434-6.9592,2.277-1.5085,4.3832-2.2628,6.3187-2.2628,1.1954,0.00004,2.1062,0.46967,2.7324,1.4089,0.62613,0.93931,0.99614,2.3482,1.11,4.2267-0.1139,2.8463-0.17082,5.5787-0.17077,8.1973-0.057,1.8216,0.44112,3.4582,1.4943,4.9098,1.0531,1.4516,2.4335,2.1774,4.1413,2.1774,0.51227,0.00002,1.0104-0.1423,1.4943-0.42694,0.48381-0.28461,0.98191-0.65463,1.4943-1.11,0.39842-0.51231,0.78267-0.99618,1.1527-1.4516,0.36996-0.45538,0.7542-0.91079,1.1527-1.3662,0.22765-0.11382,0.55497-0.31306,0.98197-0.59771,0.42688-0.28461,0.83959-0.62616,1.2381-1.0247,0.79689,1.7078,1.4658,3.2021,2.0066,4.4829,0.54072,1.2808,0.95343,2.4051,1.2381,3.3728-1.3094,1.1954-2.6044,2.4336-3.8852,3.7144-1.2809,1.2808-2.6329,2.4905-4.056,3.629-1.7078,1.3093-3.3587,2.2913-4.9525,2.9459-1.594,0.65465-3.1879,0.98197-4.7818,0.98196-3.7002,0.00001-6.5465-1.0531-8.5388-3.1594-1.9924-2.1062-3.1594-5.2941-3.5009-9.5635-0.00004-0.51231-0.0712-1.0389-0.21347-1.5797-0.14235-0.54078-0.44121-1.0958-0.89658-1.6651-0.28466,0.28465-0.59775,0.58351-0.93927,0.89658-0.34159,0.31311-0.74007,0.72582-1.1954,1.2381-0.74006,0.56928-1.6651,1.2808-2.7751,2.1347-1.1101,0.8539-2.4051,1.8786-3.8852,3.074-1.9924,2.0493-3.6717,3.7286-5.0379,5.0379s-2.334,2.2486-2.9032,2.8178c-1.1385,0.96774-2.462,1.9355-3.9706,2.9032-1.5085,0.96774-3.2021,1.9639-5.0806,2.9886-1.1954,0.62618-2.2201,1.1243-3.074,1.4943-0.85389,0.37001-1.4801,0.55502-1.8785,0.55502-2.7324,0-4.7533-0.66887-6.0626-2.0066-1.3093-1.3378-1.9639-3.4013-1.9639-6.1907,0-1.537,0.32732-3.0028,0.98196-4.3975,0.65465-1.3947,1.6366-2.7466,2.9459-4.0559,0.11385-0.74002,0.17078-1.3377,0.17078-1.7932,0-0.28461-0.0712-0.58347-0.21347-0.89658-0.14232-0.31307-0.32733-0.66885-0.55503-1.0674-0.34155-0.79694-0.7258-1.6935-1.1527-2.6897-0.42694-0.99618-0.89658-2.0635-1.4089-3.2021,0.22771-0.22768,0.55503-0.66885,0.98197-1.3235,0.42694-0.65462,0.92504-1.4658,1.4943-2.4336z"/>

   <path d="m265.88,940.36c0.51233-0.56923,1.0247-1.2666,1.537-2.092,0.51233-0.82539,1.1954-1.722,2.0493-2.6897l5.6356-4.9525c0.22769-0.17075,0.35578-0.39845,0.38425-0.68311,0.0284-0.28459,0.0427-0.68307,0.0427-1.1954-0.0569-0.73999-0.14232-1.3377-0.25617-1.7932,0-1.3092,0.25616-3.5009,0.7685-6.5749,0.51232-3.0739,0.96773-4.924,1.3662-5.5502l-0.51233-1.6224c0.74003-3.814,1.7789-7.9838,3.1167-12.509,1.3377-4.5255,2.8605-9.4353,4.5683-14.729,0.56924-0.91073,1.167-2.0635,1.7932-3.4582,0.62616-1.3946,1.3377-2.9743,2.1347-4.739,0.96771-2.96,2.2485-6.0625,3.8425-9.3073,1.5939-3.2447,3.387-6.5748,5.3795-9.9904,2.6755-4.497,5.0521-7.8841,7.1299-10.161s3.9421-3.4154,5.5929-3.4155c3.3016,0.00012,5.5644,0.64053,6.7884,1.9212,1.2238,1.2809,1.8358,3.686,1.8358,7.2153-0.00005,0.91092-0.1566,2.3198-0.46964,4.2267-0.31314,1.9071-0.46968,3.3445-0.46963,4.3121-0.00005,0.96784-0.31314,2.334-0.93927,4.0986-0.62623,1.7648-0.93932,3.3872-0.93928,4.8671-0.057,0.4555-0.19928,0.9109-0.42694,1.3662l0.0854,1.1954c-0.22775,0.79705-0.5693,1.7648-1.0247,2.9032-0.45545,1.1386-1.0532,2.5048-1.7932,4.0986-0.39853,1.4232-0.91086,3.0741-1.537,4.9525-0.62623,1.8786-1.3663,3.9279-2.2201,6.148-0.34159,0.56932-0.78277,1.2667-1.3235,2.092-0.54083,0.82549-1.1243,1.7505-1.7505,2.7751-0.17081,0.7401-0.45544,1.594-0.85388,2.5616-0.39852,0.9678-0.93931,2.1063-1.6224,3.4155-0.34159,0.68317-0.79699,1.4232-1.3662,2.2201-0.56928,0.79702-1.2524,1.8217-2.0493,3.074-0.34158,0.56931-0.7116,1.2809-1.11,2.1347-0.39851,0.85394-0.85392,1.8217-1.3662,2.9032-0.62621,0.96779-1.4516,2.1632-2.4763,3.5863-1.0247,1.4232-2.1917,3.1025-3.5009,5.0379-1.7647,3.131-3.5863,6.1195-5.4648,8.9658-0.00002,5.5218,1.0958,9.6916,3.2874,12.509,2.1916,2.8178,5.4791,4.2267,9.8624,4.2267,0.2846,0.00002,1.1385-0.19922,2.5616-0.59772,1.4231-0.39846,3.387-1.0246,5.8918-1.8785,0.74-0.45538,1.6223-1.0958,2.647-1.9212,1.0246-0.82539,2.1916-1.8074,3.5009-2.9459l3.3302,7.8557c-1.4801,1.3093-2.9602,2.647-4.4402,4.0132-1.4801,1.3662-2.9886,2.704-4.5256,4.0132-1.7647,1.4801-3.5579,2.6044-5.3795,3.3728-1.8216,0.7685-3.6148,1.1528-5.3795,1.1528-0.91083,0-2.3055-0.0996-4.184-0.29886-1.8786-0.19924-3.3017-0.29886-4.2694-0.29886-3.1878,0-5.8206-1.2808-7.8984-3.8425-2.0778-2.5616-3.5436-6.4041-4.3975-11.527-0.11386-0.51231-0.2704-0.96771-0.46964-1.3662-0.19924-0.39846-0.55503-0.85387-1.0674-1.3662-0.74004,0.74006-1.6082,1.6224-2.6043,2.647-0.9962,1.0247-2.2059,2.1916-3.629,3.5009zm40.73-67.03-0.59772-0.34155c-3.1879,3.0741-5.593,5.9773-7.2153,8.7096-1.6224,2.7325-2.4336,5.3795-2.4336,7.9411-0.00002,0.39855-0.18503,1.0674-0.55502,2.0066-0.37004,0.93935-0.92507,2.149-1.6651,3.629-0.91084,1.7648-1.8501,3.7002-2.8178,5.8064-1.0816,3.1879-1.907,5.778-2.4763,7.7703-0.56928,1.9924-0.8539,3.4156-0.85388,4.2694l0.51233,0.6831c0.51231-0.0569,1.1385-0.5692,1.8785-1.537,0.74001-0.96768,1.5939-2.3908,2.5616-4.2694,0.45538-1.0246,1.11-2.22,1.9639-3.5863,0.85386-1.3662,1.8216-2.9885,2.9032-4.8671,0.91078-1.2523,2.3624-4.4686,4.3548-9.6489,1.9924-5.1801,3.0739-8.4818,3.2448-9.905,0.0569-1.1384,0.21343-2.2627,0.46963-3.3728,0.25613-1.11,0.49806-2.2058,0.7258-3.2874z"/>

  </g>

 </g>

</svg>

