<svg  id="wave-loader" xmlns="http://www.w3.org/2000/svg" xmlns:xlink="http://www.w3.org/1999/xlink" width="100%" height="100%" viewBox="0 0 1920 350">

 <defs>


 <style type="text/css">

svg{
  
  margin:0 auto;
  text-align:center;
  overflow:hidden;

  -webkit-animation: total  3s ease-in 18s forwards  ;
  -moz-animation: total  3s ease-in 18s forwards  ;
  -o-animation: total  3s ease-in 18s forwards  ;
  animation: total  3s ease-in 18s forwards  ;

  -webkit-transition:all 0.8s linear;
  -moz-transition:all 0.8s linear;
  -o-transition:all 0.8s linear;
  transition:all 0.8s linear;
}

@keyframes total  {
  from {
      transform:translate(0%,0%);
    
  }
  to {
      transform:translate(0%,100%);
  }

}

@-webkit-keyframes total  {
  from {
      transform:translate(0%,0%);
    
  }
  to {
      transform:translate(0%,100%);
  }


}

/*******************************/

.wave-loader{


filter:drop-shadow(0px 0px 1px black);

stroke-dasharray: 1500;
  stroke-dashoffset: 0;
  -webkit-animation: wave-loader  15s ease-in-out forwards  ;
  -moz-animation: wave-loader  15s ease-in-out forwards  ;
  -o-animation: wave-loader  15s ease-in-out forwards  ;
  animation: wave-loader  15s ease-in-out forwards  ;

  -webkit-transition:fill 0.8s linear;
  -moz-transition:fill 0.8s linear;
  -o-transition:fill 0.8s linear;
  transition:fill 0.8s linear;
}

@keyframes wave-loader  {
  from {
    stroke-dashoffset: 1500;
    
  }
  to {
    stroke-dashoffset: 0;
  }

}

@-webkit-keyframes wave-loader  {
  from {
    stroke-dashoffset: 1500;

    
  }
  to {
    stroke-dashoffset: 0;
  }

}

.circle:hover{
  
  cursor:pointer;
  fill:maroon;


}

/**************/

.circle{


filter:drop-shadow(0px 0px 1px black);


stroke-dasharray: 6;
  stroke-dashoffset: 1000;
  -webkit-animation: circle  15s ease-in-out forwards  ;
  -moz-animation: circle  15s ease-in-out forwards  ;
  -o-animation: circle  15s ease-in-out forwards  ;
  animation: circle  15s ease-in-out forwards  ;

  -webkit-transition:fill 0.8s linear;
  -moz-transition:fill 0.8s linear;
  -o-transition:fill 0.8s linear;
  transition:fill 0.8s linear;
}

@keyframes circle  {
  from {
    stroke-dashoffset: 6;
    
  }
  to {
    stroke-dashoffset: 1000;
    fill:green;
  }

}

@-webkit-keyframes circle  {
  from {
    stroke-dashoffset: 6;

    
  }
  to {
    stroke-dashoffset: 1000;
    fill:green;
  }

}




/**********/

#wave-loader.clickit .circle{
  
fill:#000;
stroke:maroon;

}



/*************************/





</style>






 </defs>


<script type="text/javascript">

var clicker = document.querySelector('#wave-loader');

clicker.addEventListener('click', function(){
  
this.classList.toggle('clickit');


});

</script>


 <g class="wave-loader" stroke-linejoin="round" stroke-linecap="round" stroke-miterlimit="4" transform="translate(0,-702.36215)">

  <path class="wave-loader" d="m0,179.26c12.854-10.892,29.347-17.413,46.174-18.255,18.844-0.94311,37.961,5.299,52.617,17.181,12.387,13.602,30.467,21.848,48.859,22.282,19.466,0.45945,38.971-7.8856,52.081-22.282,12.566-12.943,31.175-19.756,49.128-17.987,18.152,1.7895,34.377,11.605,50.012,20.998s32.176,18.856,50.391,19.808c18.278,0.95521,35.852-6.8235,51.799-15.806,15.947-8.9823,31.35-19.445,48.872-24.731,19.033-5.7416,39.983-4.9094,58.501,2.3241s34.485,20.822,44.587,37.944c25.986-25.687,62.254-40.667,98.792-40.805,37.402-0.14201,74.623,15.301,100.94,41.879,7.0122-21.194,20.753-40.106,38.743-53.324s40.144-20.68,62.465-21.038c18.75-0.3011,37.557,4.3679,53.989,13.403,16.432,9.0352,30.449,22.415,40.239,38.409" stroke="#ff2a2a" transform="translate(0,702.36215)" stroke-dasharray="none" stroke-width="6" fill="none"/>

  <path class="wave-loader" d="m1920.9,883.4c-13.258-10.982-30.105-17.559-47.298-18.463-19.213-1.0108-38.719,5.1219-53.897,16.944-12.901,13.557-31.337,21.684-50.048,22.062-19.876,0.40156-39.77-7.9954-53.347-22.516-13.007-13.054-31.975-19.917-50.323-18.208-18.505,1.7233-35.16,11.454-51.239,20.775-16.079,9.3206-33.042,18.695-51.606,19.579-18.684,0.89012-36.646-6.9682-53.006-16.036-16.36-9.0676-32.186-19.616-50.114-24.955-19.36-5.7656-40.601-5.0108-59.503,2.1145-18.902,7.1252-35.355,20.579-46.092,37.69-26.862-25.906-63.877-40.994-101.2-41.25-38.075-0.26107-76.033,14.947-103.4,41.425-7.5579-21.372-21.763-40.341-40.145-53.607s-40.86-20.772-63.525-21.211c-19.031-0.36914-38.137,4.2037-54.939,13.149-16.802,8.9455-31.262,22.244-41.581,38.239" stroke="#b582df" stroke-dasharray="none" stroke-width="6.07256125999999960" fill="none"/>

  <path class="circle" d="m961.75,881.12c0,6.8363-5.5608,12.378-12.42,12.378-6.8598,0-12.421-5.5416-12.421-12.378,0-6.8363,5.5607-12.378,12.421-12.378,6.8594,0,12.42,5.5416,12.42,12.378z"  stroke="#000" stroke-dasharray="6" stroke-width="6" fill="white"/>

 </g>




<g class="a-n" transform="translate(463.5,-40)">

<svg id="asns-logo" xmlns="http://www.w3.org/2000/svg" xmlns:osb="http://www.openswatchbook.org/uri/2009/osb"  width="50%" height="50%" viewBox="0 0 135 89" preserveAspectRatio="xMidYMid meet" xmlns:xlink="http://www.w3.org/1999/xlink">

 <defs>


  <linearGradient id="linearGradient3805" osb:paint="solid">

   <stop stop-color="red" offset="0"/>

  </linearGradient>

  <linearGradient id="linearGradient4603" y2="254.79" xlink:href="#linearGradient3805" gradientUnits="userSpaceOnUse" x2="701.14" y1="254.79" x1="410.67"/>

  <linearGradient id="linearGradient3809" y2="561.22" xlink:href="#linearGradient3805" gradientUnits="userSpaceOnUse" x2="549.28" y1="561.22" x1="209.16"/>

  <linearGradient id="linearGradient5603" y2="561.22" xlink:href="#linearGradient3805" gradientUnits="userSpaceOnUse" x2="549.28" gradientTransform="matrix(0.97757143,0,0,1,7.5720599,0)" y1="561.22" x1="209.16"/>

  <linearGradient id="linearGradient5916" y2="561.22" gradientUnits="userSpaceOnUse" x2="395.1" gradientTransform="matrix(0.97757143,0,0,1,11.488833,0)" y1="561.22" x1="209.16">

   <stop stop-color="lightblue" offset="0"/>

  </linearGradient>

  <linearGradient id="linearGradient6074" y2="43.955" gradientUnits="userSpaceOnUse" x2="134.4" gradientTransform="matrix(0.97757143,0,0,1,1.6035973,0)" y1="43.955" x1="0.27205">

   <stop stop-color="#000" offset="0"/>

  </linearGradient>



 <style type="text/css">

svg{
  
  margin:0 auto;
  text-align:center;
}



/*******************/


.group1{
  
  filter:drop-shadow(0px 0px 1px white);

  opacity:0;
  -webkit-animation: group1  1s ease-in-out 9s forwards;
  -moz-animation: group1  1s ease-in-out 9s forwards;
  -o-animation: group1  1s ease-in-out 9s forwards;
  animation: group1  1s ease-in-out 9s forwards;

  -webkit-transition:all 1s linear 2s;
  -moz-transition:all 1s linear 2s;
  -o-transition:all 1s linear 2s;
  transition:all 1s linear 2s;
}

@keyframes group1  {
  from {
    transform:translate(0%,70%);
    
  }
  to {
    transform:translate(0%,0%);
    opacity:1;
  }

}

@-webkit-keyframes group1  {
  from {
    transform:translate(0%,70%);
    
  }
  to {
    transform:translate(0%,0%);
    opacity:1;
  }

}





/*******/


.asns-logo{



  stroke-dasharray: 1000;
  stroke-dashoffset: 100;
  -webkit-animation: asns-logo  10s ease-in-out alternate infinite  9s;
  -moz-animation: asns-logo  10s ease-in-out alternate  infinite  9s;
  -o-animation: asns-logo  10s ease-in-out alternate  infinite  9s;
  animation: asns-logo  10s ease-in-out alternate  infinite  9s;

  -webkit-transition:all 5s linear 2s;
  -moz-transition:all 5s linear 2s;
  -o-transition:all 5s linear 2s;
  transition:all 5s linear 2s;
}

@keyframes asns-logo  {
  from {
    stroke-dashoffset: 1000;
    
  }
  to {
    stroke-dashoffset: 0;
    fill:#fff;

  }

}

@-webkit-keyframes asns-logo  {
  from {
    stroke-dashoffset: 1000;
    
  }
  to {
    stroke-dashoffset: 0;
    fill:#fff;

  }

}

/*******/


.asns-a{


stroke-dasharray: 1000;
  stroke-dashoffset: 100;
  -webkit-animation: asns-a  10s ease-in-out alternate infinite  9s;
  -moz-animation: asns-a  10s ease-in-out alternate  infinite  9s;
  -o-animation: asns-a  10s ease-in-out alternate  infinite  9s;
  animation: asns-a  10s ease-in-out alternate  infinite  9s;

  -webkit-transition:all 5s linear 2s;
  -moz-transition:all 5s linear 2s;
  -o-transition:all 5s linear 2s;
  transition:all 5s linear 2s;
}

@keyframes asns-a  {
  from {
    stroke-dashoffset: 1000;
    
  }
  to {
    stroke-dashoffset: 0;
    fill:#fff;
  }

}

@-webkit-keyframes asns-a  {
  from {
    stroke-dashoffset: 1000;

    
  }
  to {
    stroke-dashoffset: 0;
    fill:#fff;
  }

}



.asns-logo:hover{
  
  cursor:pointer;
  fill:maroon;

}



#asns-logo.clickit .asns-logo{
  
fill:#000;
stroke:maroon;

}



/*************************/

<!--
@media screen and (max-height: 34.9375em) { 

  svg {
    font-size: 70%;
  }

}
-->

</style>


</defs>

<script type="text/javascript">

var clicker = document.querySelector('#asns-logo');

clicker.addEventListener('click', function(){
  
this.classList.toggle('clickit');


});

</script>



<g class="group1">


  <g font-family="Sans" stroke-miterlimit="4"  font-weight="normal" transform="translate(0,-655.09448)" font-style="normal">

  <g stroke-linejoin="round" style="letter-spacing:0px;word-spacing:0px;" fill-opacity="1" transform="matrix(0.20759433,0,0,0.16467856,1.412514,605.74479)" stroke-dashoffset="0" stroke="url(#linearGradient3809)" stroke-linecap="round" line-height="125%" font-size="253.0690918px" stroke-width="3">

   <path class="asns-logo" stroke-linejoin="round" d="m405.01,670.27,0-216.43,24.039,0,76.723,97.125,16.291-97.125,22.468,0,0,216.43-24.039,0-70.458-74.283-22.556,74.283z" stroke-dashoffset="0" stroke="url(#linearGradient5603)" stroke-linecap="round" stroke-miterlimit="4" stroke-dasharray="none" stroke-width="5.34746504" fill="transparent"/>

  </g>

  <g style="letter-spacing:0px;word-spacing:0px;" transform="matrix(0.45506618,0,0,0.27565267,589.93477,50.934672)" stroke="url(#linearGradient4603)" font-size="405.19238281px" stroke-width="5.7993865" line-height="125%" fill="#FFF">

   <path d="m487.28,322.06,0-35.81,60.774,0,0,35.81z"/>

   <path d="m441.65,399.82c-40.636-68.364-40.636-221.68,0-290.04,9.28-15.612,39.372,0,39.372,0l152.34,227.72v-227.72s28.126-14.592,36.8,0c40.636,68.364,40.636,221.68,0,290.04-9.28,15.612-39.372,0-39.372,0l-152.34-227.92v227.92s-28.126,14.592-36.8,0z"/>

  </g>

  <g stroke-linejoin="round" style="letter-spacing:0px;word-spacing:0px;" fill-opacity="1" stroke-dashoffset="0" font-size="253.0690918px" transform="matrix(0.17959496,0,0,0.1699962,-20.497928,604.17285)" stroke="url(#linearGradient3809)" stroke-linecap="round" line-height="125%" stroke-width="3">

   <path class="asns-a" stroke-linejoin="round" d="M224.47,670.27c-22.95-198.74,0.73-256.07,68.01-181.15h25.247c105.84-112.82,78.283,57.229,72.478,181.15h-26.696l-20.656-54.865h-74.049l-19.448,54.865zm51.097-74.388,60.036,0-18.482-50.169c-5.6373-15.24-9.8249-27.762-12.563-37.565-2.255,11.616-5.436,23.149-9.543,34.599z" stroke-dashoffset="0" stroke="#4B0082" stroke-linecap="round" stroke-miterlimit="4"  stroke-width="5.65858173" fill="transparent"/>

  </g>

 </g>

 <path class="asns-logo" stroke-linejoin="round" d="m50.894,71.333c0.10161,0.1754-0.11903,0.5511-0.68282,1.0886-0.56379,0.53755-1.4728,1.2369-2.7681,1.9836-1.2953,0.74673-2.98,1.5409-5.0756,2.1924-2.0956,0.65144-4.6056,1.1602-7.482,1.2591-2.5335,0.08554-5.3383-0.15224-8.2886-0.88427-2.949-0.732-6.046-1.96-9.063-3.841-2.399-1.499-4.727-3.403-6.836-5.721-2.1079-2.318-3.997-5.051-5.4817-8.167-2.5803-5.427-3.8859-11.956-3.1352-18.756,0.688-6.173,3.0784-12.44,7.2477-17.748,3.8862-4.937,9.2412-8.924,15.522-11.128,5.947-2.0792,12.592-2.5015,19.042-0.939,6.1765,1.504,12.027,4.8032,16.659,9.6341,5.3217,5.7429,8.6379,12.672,11.31,19.379,0.39538,0.99265,0.77557,1.9755,1.1459,2.9438,1.5402,3.7353,2.996,7.3607,4.6557,10.599,1.6597,3.2387,3.5237,6.0902,5.8446,8.3215,3.193,3.2267,7.2862,5.4847,11.509,6.4929,4.4129,1.0614,9.0835,0.79345,13.211-0.59939,4.3685-1.4665,8.243-4.2193,11.067-7.6164,3.0428-3.6493,4.9531-8.1212,5.6423-12.539,0.76636-4.8695,0.0843-9.7734-1.5658-13.921-0.94583-2.3858-2.2207-4.5566-3.6858-6.4538s-3.1205-3.5212-4.8585-4.8542c-2.1844-1.6788-4.5142-2.9124-6.7911-3.7795-2.2769-0.86713-4.5023-1.3686-6.5638-1.6102v-0.000001c-2.3444-0.2764-4.4876-0.22218-6.347-0.03468s-3.4383,0.50816-4.7199,0.80676-2.2687,0.57474-2.963,0.71926c-0.69432,0.14453-1.0979,0.1566-1.1924-0.0173-0.09452-0.17389,0.12291-0.52976,0.67158-1.0313,0.54868-0.50152,1.4305-1.1486,2.6823-1.8328,1.2517-0.68419,2.8762-1.4055,4.8905-1.9839,2.0144-0.57842,4.422-1.014,7.1736-1.0548,2.4195-0.03447,5.0928,0.24093,7.8998,0.98638s5.7491,1.962,8.6105,3.7974c2.2739,1.4612,4.4775,3.3043,6.4721,5.5388s3.7804,4.8607,5.1832,7.8485c2.4354,5.1994,3.6674,11.438,2.9553,17.945-0.65183,5.9006-2.9094,11.899-6.8611,17.012-3.6791,4.7492-8.7547,8.6209-14.739,10.822-5.6585,2.074-12.005,2.5978-18.216,1.2382-5.941-1.308-11.616-4.318-16.185-8.818-3.147-3.212-5.637-6.849-7.694-10.646-2.057-3.796-3.682-7.753-5.143-11.57-0.395-0.959-0.786-1.916-1.176-2.866-2.634-6.417-5.202-12.28-9.172-16.311-3.2754-3.4861-7.5369-5.9662-11.966-7.1153-4.622-1.2076-9.5462-1.005-13.909,0.40672-4.6119,1.4842-8.716,4.3447-11.706,7.9021-3.218,3.8169-5.2371,8.5176-5.9553,13.163-0.79781,5.115-0.05568,10.268,1.7134,14.611,1.013,2.4955,2.3744,4.7606,3.9356,6.7337s3.3223,3.6544,5.1681,5.0254c2.3172,1.7248,4.7839,2.9754,7.1895,3.8385,2.4056,0.86306,4.7518,1.3393,6.9203,1.5428,2.462,0.23277,4.7064,0.11962,6.6499-0.12842,1.9434-0.24804,3.5893-0.63092,4.9236-0.9837,1.3342-0.35278,2.36-0.67509,3.0822-0.85119,0.72212-0.1761,1.1428-0.2051,1.2444-0.0297z" stroke="url(#linearGradient6074)" stroke-linecap="round" stroke-width="0.98872209" fill="none"/>

</g>

</svg>

</g>



</svg>

